<svg width="137" height="127" viewBox="0 0 137 127" fill="none" xmlns="http://www.w3.org/2000/svg">
<path d="M62.4399 91.6406H72.4518L67.4459 96.5808L62.4399 91.6406Z" stroke="#5E2779" stroke-width="8" stroke-linecap="round" stroke-linejoin="round"/>
<path d="M94.1436 76.8198V80.1133" stroke="#5E2779" stroke-width="8" stroke-linecap="round" stroke-linejoin="round"/>
<path d="M16.8532 58.6829C14.9852 65.8014 14.0431 73.1256 14.0498 80.479C14.0498 107.96 37.9582 122.925 67.4466 122.925C96.9349 122.925 120.843 107.96 120.843 80.479C120.81 73.0956 119.702 65.7552 117.553 58.6829" stroke="#5E2779" stroke-width="8" stroke-linecap="round" stroke-linejoin="round"/>
<path d="M40.7485 76.8198V80.1133" stroke="#5E2779" stroke-width="8" stroke-linecap="round" stroke-linejoin="round"/>
<path d="M44.0926 40.5816C41.5295 47.4979 36.864 53.9399 28.4473 57.0489C15.5587 61.8047 4.57898 55.0926 4.04502 50.462C3.29079 43.9146 11.901 7.44943 30.7434 4.35358C43.5786 2.23918 55.1123 9.91953 55.1123 19.0753C63.5543 16.9595 72.4097 17.0549 80.8028 19.352C80.8028 10.1962 93.1108 2.23918 105.946 4.35358C124.788 7.44943 133.399 43.9146 132.644 50.462C132.11 55.0926 121.131 61.8047 108.242 57.0489C99.8254 53.9399 95.8607 47.4979 93.2977 40.5816" stroke="#5E2779" stroke-width="8" stroke-linecap="round" stroke-linejoin="round"/>
</svg>
