<svg width="20" height="17" viewBox="0 0 20 17" fill="none" xmlns="http://www.w3.org/2000/svg">
<path d="M17.0761 2.27603C16.6504 1.87149 16.1451 1.55058 15.5889 1.33164C15.0327 1.11269 14.4365 1 13.8344 1C13.2323 1 12.6362 1.11269 12.0799 1.33164C11.5237 1.55058 11.0184 1.87149 10.5927 2.27603L9.70941 3.1152L8.82608 2.27603C7.96633 1.45927 6.80027 1.00042 5.58441 1.00042C4.36855 1.00042 3.20249 1.45927 2.34274 2.27603C1.483 3.09279 1 4.20054 1 5.35561C1 6.51068 1.483 7.61844 2.34274 8.4352L9.70941 15.4335L17.0761 8.4352C17.5019 8.03085 17.8397 7.55076 18.0702 7.02235C18.3006 6.49395 18.4193 5.92758 18.4193 5.35561C18.4193 4.78364 18.3006 4.21728 18.0702 3.68887C17.8397 3.16047 17.5019 2.68038 17.0761 2.27603Z" stroke="#FFF6ED" stroke-width="2" stroke-linecap="round" stroke-linejoin="round"/>
</svg>
