<svg width="118" height="107" viewBox="0 0 118 107" fill="none" xmlns="http://www.w3.org/2000/svg">
<path d="M58.5557 26.1226V101.8" stroke="#5E2779" stroke-width="9" stroke-linecap="round" stroke-linejoin="round"/>
<path d="M80.1782 53.1504H90.9893" stroke="#5E2779" stroke-width="9" stroke-linecap="round" stroke-linejoin="round"/>
<path d="M80.1782 31.5295H90.9893" stroke="#5E2779" stroke-width="9" stroke-linecap="round" stroke-linejoin="round"/>
<path d="M9.90556 85.5834C8.47191 85.5834 7.09699 85.0139 6.08325 84.0001C5.06951 82.9864 4.5 81.6114 4.5 80.1778V9.90556C4.5 8.47191 5.06951 7.09699 6.08325 6.08325C7.09699 5.06951 8.47191 4.5 9.90556 4.5H36.9333C42.6679 4.5 48.1676 6.77805 52.2226 10.833C56.2775 14.888 58.5556 20.3877 58.5556 26.1222C58.5556 20.3877 60.8336 14.888 64.8886 10.833C68.9435 6.77805 74.4432 4.5 80.1778 4.5H107.206C108.639 4.5 110.014 5.06951 111.028 6.08325C112.042 7.09699 112.611 8.47191 112.611 9.90556V80.1778C112.611 81.6114 112.042 82.9864 111.028 84.0001C110.014 85.0139 108.639 85.5834 107.206 85.5834H74.7722C70.4713 85.5834 66.3465 87.2919 63.3053 90.3331C60.2641 93.3743 58.5556 97.4991 58.5556 101.8C58.5556 97.4991 56.847 93.3743 53.8058 90.3331C50.7646 87.2919 46.6398 85.5834 42.3389 85.5834H9.90556Z" stroke="#5E2779" stroke-width="9" stroke-linecap="round" stroke-linejoin="round"/>
<path d="M26.1226 53.1504H36.9337" stroke="#5E2779" stroke-width="9" stroke-linecap="round" stroke-linejoin="round"/>
<path d="M26.1226 31.5295H36.9337" stroke="#5E2779" stroke-width="9" stroke-linecap="round" stroke-linejoin="round"/>
</svg>
