<svg width="391" height="421" viewBox="0 0 391 421" fill="none" xmlns="http://www.w3.org/2000/svg">
<path d="M60.7049 152.122C56.3256 192.738 89.3516 221.581 120.119 237.492C9.92969 312.815 227.622 438.807 245.935 345.791C247.656 334.471 250.311 323.322 253.869 312.476C249.475 325.222 279.046 319.327 297.646 310.491C345.461 288.578 339.466 223.516 294.334 204.106C373.283 146.528 257.339 59.7476 196.264 89.5007C174.764 59.2505 114.243 57.9932 115.264 101.587C89.584 102.953 63.7569 124.181 60.7049 152.122Z" fill="#EC5E55"/>
<path d="M217.437 129.862C197.702 141.75 211.781 186.97 221.288 208.093C229.85 199.684 253.329 197.651 263.998 197.685C256.701 170.124 237.173 117.973 217.437 129.862Z" fill="white" stroke="black"/>
<path d="M221.783 176.596C213.743 180.632 218.2 199.009 221.288 207.654C224.872 204.621 234.389 199.873 238.547 200.24C236.508 189.128 229.824 172.561 221.783 176.596Z" fill="black" stroke="black"/>
<path d="M140.14 147.786C120.404 159.674 134.483 204.894 143.99 226.017C152.552 217.608 176.031 215.575 186.7 215.609C179.403 188.048 159.875 135.897 140.14 147.786Z" fill="white" stroke="black"/>
<path d="M156.815 191.482C148.774 195.518 150.452 211.535 153.54 220.18C157.123 217.147 169.147 215.837 173.579 215.126C171.54 204.014 164.855 187.446 156.815 191.482Z" fill="black" stroke="black"/>
<path d="M181.707 265.092C199.617 267.787 239.719 268.796 256.847 251.274C247.058 275.118 218.326 311.264 181.707 265.092Z" fill="white" stroke="black" stroke-width="2"/>
<path d="M168.364 247.184C161.234 246.239 146.942 260.345 164.023 273.991" stroke="black" stroke-width="2" stroke-linecap="round"/>
<path d="M275.925 257.218C282.14 252.198 283.432 228.62 260.608 231.029" stroke="black" stroke-width="2" stroke-linecap="round"/>
<path d="M206.866 226.063L200.661 241.423L214.213 238.391" stroke="black" stroke-width="2" stroke-linecap="round"/>
</svg>
