<svg width="173" height="166" viewBox="0 0 173 166" fill="none" xmlns="http://www.w3.org/2000/svg">
<path d="M143.3 115.277C130.401 126.323 111.625 121.035 97.8989 113.501C101.227 171.148 -0.553917 121.21 26.9014 92.8781C30.3442 89.5673 33.4659 85.9601 36.2297 82.0845C32.9684 86.6441 27.1455 74.5204 25.2393 65.6906C20.1949 43.2978 44.2097 30.353 63.0138 42.2706C61.9181 0.125863 122.831 22.0677 128.854 51.3166C145.009 52.1429 161.656 73.9042 146.353 83.6448C152.668 93.2414 152.233 107.697 143.3 115.277Z" fill="#7AD8C0"/>
<path d="M105.287 80.6375C101.874 76.043 93.0141 66.9521 84.8789 67.3444C92.8805 63.8269 108.164 61.561 105.287 80.6375Z" fill="white" stroke="black" stroke-width="2"/>
<path d="M90.4894 98.5291C91.2865 109.398 78.9448 114.471 72.6743 115.648C65.6347 116.311 67.9525 109.179 69.9913 105.529C71.6894 101.07 89.493 84.943 90.4894 98.5291Z" fill="white" stroke="black" stroke-width="2" stroke-linecap="round"/>
<path d="M66.8649 83.6575C67.662 94.5264 55.3203 99.5989 49.0498 100.777C42.0102 101.44 44.328 94.3071 46.3668 90.6578C48.0649 86.1984 65.8685 70.0715 66.8649 83.6575Z" fill="white" stroke="black" stroke-width="2" stroke-linecap="round"/>
<path d="M70.5786 114.894C75.7783 115.838 77.0645 111.283 75.4058 109.378C73.7472 107.473 70.989 109.752 70.2766 110.777C68.3555 113.347 69.4752 114.423 70.5786 114.894Z" fill="black" stroke="black" stroke-width="2" stroke-linecap="round"/>
<path d="M53.6589 97.9281C58.8586 98.8721 60.1448 94.3166 58.4862 92.4119C56.8275 90.5073 54.0693 92.7859 53.357 93.8111C51.4358 96.3806 52.5555 97.4569 53.6589 97.9281Z" fill="black" stroke="black" stroke-width="2" stroke-linecap="round"/>
<path d="M81.7462 84.7556C83.126 85.5442 86.1449 86.5142 87.182 84.0856C88.4782 81.0498 85.4978 78.3814 82.9751 78.5006" stroke="black" stroke-width="2" stroke-linecap="round"/>
</svg>
