<svg width="359" height="402" viewBox="0 0 359 402" fill="none" xmlns="http://www.w3.org/2000/svg">
<path d="M276.889 173.767C270.549 141.665 238.373 128.513 210.912 124.663C277.513 37.8781 80.255 0.0105611 88.575 75.9151C89.8781 85.053 90.4098 94.2897 90.1483 103.539C90.4423 92.6463 69.2058 105.042 57.0338 116.738C25.8684 146.161 45.8571 193.952 85.1913 196.719C38.3873 261.693 147.91 296.841 187.819 257.763C211.504 274.93 258.364 259.762 247.229 226.964C266.446 219.102 281.356 195.889 276.889 173.767Z" fill="#EC5E55"/>
<path d="M186.046 184.75C176.296 188.069 154.031 192.228 142.972 182.312C150.486 196.986 169.621 218.017 186.046 184.75Z" fill="white" stroke="black" stroke-width="2"/>
<path d="M184.378 139.716C197.174 123.548 185.205 101.469 177.621 92.4512C168.399 83.3625 164.01 97.2203 162.968 105.285C160.576 114.234 168.382 159.926 184.378 139.716Z" fill="white" stroke="black" stroke-width="2" stroke-linecap="round"/>
<path d="M135.067 136.086C147.864 119.917 135.894 97.8389 128.31 88.8208C119.088 79.7321 114.699 93.5898 113.658 101.655C111.265 110.603 119.071 156.296 135.067 136.086Z" fill="white" stroke="black" stroke-width="2" stroke-linecap="round"/>
<path d="M177.056 129.553C185.407 134.013 182.33 142.641 177.944 143.739C173.558 144.836 172.113 138.102 172.208 135.677C172.257 129.443 174.993 129.032 177.056 129.553Z" fill="black" stroke="black" stroke-width="2" stroke-linecap="round"/>
<path d="M127.792 126.666C136.144 131.126 133.067 139.754 128.681 140.851C124.295 141.949 122.85 135.215 122.945 132.79C122.994 126.556 125.729 126.145 127.792 126.666Z" fill="black" stroke="black" stroke-width="2" stroke-linecap="round"/>
<path d="M157.246 151.371C160.04 151.709 165.342 153.636 164.197 158.638C162.766 164.89 155.695 165.676 152.263 162.605" stroke="black" stroke-width="2" stroke-linecap="round"/>
<path d="M217.562 65.8977C220.384 69.3304 225.685 77.3444 224.317 81.9388" stroke="#5D585C"/>
<path d="M225.05 82.2884C221.515 75.9515 217.215 79.7072 215.508 82.3772L215.572 118.207C219.108 125.075 223.407 121.009 225.114 118.118L225.05 82.2884Z" fill="#576157" stroke="#576157"/>
<path d="M236.889 87.5182C235.705 82.221 228.559 81.4028 225.134 81.6559L225.198 117.486C228.725 119.576 236.209 117.383 236.938 114.722C237.415 107.861 238.073 92.8154 236.889 87.5182Z" fill="#3B9FB8" stroke="#2F8599"/>
<path d="M93.2229 68.6425C89.5071 72.361 82.3561 81.2082 83.4776 86.8497" stroke="#5D585C"/>
<path d="M82.9277 86.9319C85.7859 80.1744 90.443 83.341 92.4142 85.769L96.0395 121.364C93.2349 128.649 88.5466 125.175 86.5529 122.527L82.9277 86.9319Z" fill="#576157" stroke="#576157"/>
<path d="M71.7076 93.6782C72.3381 88.2617 79.3513 86.5121 82.7791 86.3143L86.4043 121.91C83.1165 124.449 75.4582 123.252 74.46 120.704C73.2798 113.953 71.0771 99.0947 71.7076 93.6782Z" fill="#3B9FB8" stroke="#2F8599"/>
<path d="M92.407 67.6522C108.242 36.6305 162.611 -6.17744 218.552 67.6904" stroke="#576157" stroke-width="7" stroke-linecap="round"/>
<path d="M105.606 308.005L106.137 230.831C106.17 225.989 109.618 221.928 114.339 221.173L231.757 202.386C238.018 201.384 243.704 206.512 243.444 212.925L240.923 275.021C240.751 279.265 237.951 282.887 233.931 284.066L118.504 317.931C112.074 319.818 105.559 314.804 105.606 308.005Z" fill="#2C322D" stroke="black" stroke-linecap="round"/>
<path d="M234.554 156.504L288.181 167.464C295.755 169.012 298.528 178.866 293.037 184.72L252.779 227.641M252.779 227.641L237.058 221.166M252.779 227.641L235.213 237.642M252.779 227.641L250.453 247.824" stroke="#66B3A0" stroke-width="12" stroke-linecap="round"/>
<path d="M82.4648 160.446L49.1913 206.412C45.4907 211.524 47.463 218.876 53.257 221.567L119.356 252.262M119.356 252.262L139.372 240.924M119.356 252.262L135.117 259.519M119.356 252.262L126.75 278.169" stroke="#66B3A0" stroke-width="12" stroke-linecap="round"/>
<path d="M196.258 289.905L227.61 303.098C232.651 305.219 235.168 310.397 233.392 314.993L214.32 364.351C213.314 366.957 213.612 369.91 215.617 372.11C219.227 376.071 225.005 380.663 231.491 381.056" stroke="#66B3A0" stroke-width="12" stroke-linecap="round"/>
<path d="M166.491 295.143L188.641 312.64C193.268 316.296 193.954 322.815 190.141 326.906L155.212 364.376C153.127 366.613 152.215 369.76 153.54 372.627C155.458 376.778 158.946 381.605 164.403 383.339" stroke="#67B7A2" stroke-width="12" stroke-linecap="round"/>
</svg>
