<svg width="199" height="203" viewBox="0 0 199 203" fill="none" xmlns="http://www.w3.org/2000/svg">
<path d="M33.0238 83.9015C33.3379 101.647 48.5797 112.416 62.2032 117.72C20.3646 155.807 117.462 199.124 120.185 158.063C120.306 153.092 120.823 148.148 121.732 143.288C120.576 149.009 132.556 144.966 139.822 140.21C158.544 128.331 152.633 100.565 132.856 94.4794C162.643 65.6338 109.895 34.0736 86.074 50.0082C75.5486 38.0474 50.329 40.5746 53.0442 59.3313C42.4428 61.2229 32.824 71.6916 33.0238 83.9015Z" fill="#BAD0BB"/>
<path d="M96.8814 64.7389C89.3037 70.8692 97.5313 89.6646 102.592 98.2961C105.709 94.2336 115.361 92.1655 119.797 91.6393C115.316 80.1182 104.459 58.6086 96.8814 64.7389Z" fill="white" stroke="black"/>
<path d="M101.146 84.6791C98.0159 86.8281 100.834 94.5305 102.572 98.104C103.902 96.6136 107.608 94.0824 109.356 94.0297C107.924 89.339 104.275 82.5301 101.146 84.6791Z" fill="black" stroke="black"/>
<path d="M66.0672 76.0856C58.4895 82.2159 66.7171 101.011 71.7781 109.643C74.895 105.58 84.5464 103.512 88.9825 102.986C84.5015 91.4649 73.6449 69.9553 66.0672 76.0856Z" fill="white" stroke="black"/>
<path d="M74.9252 94.397C71.7955 96.546 73.3342 103.371 75.0721 106.945C76.4021 105.454 81.3306 104.279 83.1351 103.748C81.7038 99.057 78.0549 92.248 74.9252 94.397Z" fill="black" stroke="black"/>
<path d="M89.1389 124.893C96.7242 125.147 113.444 123.548 119.642 115.119C116.827 125.903 106.784 142.955 89.1389 124.893Z" fill="white" stroke="black"/>
<path d="M82.6551 117.842C79.6418 117.795 74.4432 124.606 82.2593 129.627" stroke="black" stroke-linecap="round"/>
<path d="M127.884 116.713C130.203 114.232 129.502 103.994 120.142 106.191" stroke="black" stroke-linecap="round"/>
<path d="M97.5444 106.777L95.7726 113.718L101.245 111.723" stroke="black" stroke-linecap="round"/>
<path d="M69.0507 168.154L39.2575 156.916C36.0631 156.2 33.102 152.475 46.8126 143.299C60.5232 134.122 63.3032 130.81 62.9793 130.301M69.0507 168.154L77.2648 167.255M69.0507 168.154L75.0134 176.129M69.0507 168.154L66.7465 179.593" stroke="#EC5E55" stroke-width="5" stroke-linecap="round"/>
<path d="M150.848 45.1081L174.406 75.3407C177.134 77.9544 178.398 84.3028 161.629 88.7864C144.859 93.27 140.86 96.0393 140.956 96.8635M150.848 45.1081L144.538 39.8325M150.848 45.1081L148.673 36.4891M150.848 45.1081L155.344 38.2196" stroke="#EC5E55" stroke-width="5" stroke-linecap="round"/>
</svg>
