<svg width="151" height="189" viewBox="0 0 151 189" fill="none" xmlns="http://www.w3.org/2000/svg">
<path d="M126.499 64.4671C128.561 82.0315 116.15 94.835 104.485 102.013C147.501 133.654 65.0933 190.254 57.1905 150.104C56.4236 145.213 55.2996 140.405 53.8318 135.736C55.6384 141.221 44.2288 138.936 37.0041 135.276C18.4391 126.215 20.1315 97.9589 37.2791 89.1335C6.42555 64.8983 50.1316 26.2244 73.8616 38.5627C81.8337 25.2545 105.06 24.1566 105.076 43.0616C114.95 43.4188 125.065 52.3839 126.499 64.4671Z" fill="#EC5E55"/>
<path d="M68.7427 46.816C76.432 51.5123 71.4497 70.144 67.9973 78.8729C64.6308 75.5044 55.5965 74.8747 51.5002 74.9809C54.0439 63.6358 61.0535 42.1197 68.7427 46.816Z" fill="white" stroke="black"/>
<path d="M67.5131 65.9846C70.6382 67.5672 69.0988 75.1281 67.994 78.6938C66.5896 77.4831 62.8907 75.6217 61.2976 75.8077C61.9764 71.2415 64.3879 64.402 67.5131 65.9846Z" fill="black" stroke="black"/>
<path d="M98.2183 53.2496C105.908 57.9459 100.925 76.5776 97.4729 85.3065C94.1063 81.938 85.0721 81.3083 80.9758 81.4145C83.5194 70.0694 90.5291 48.5533 98.2183 53.2496Z" fill="white" stroke="black"/>
<path d="M92.5953 71.5156C95.7204 73.0982 95.2264 79.6691 94.1216 83.2348C92.7172 82.0241 88.0881 81.5914 86.3798 81.3387C87.0586 76.7726 89.4701 69.933 92.5953 71.5156Z" fill="black" stroke="black"/>
<path d="M82.8868 107.667C75.9291 108.011 60.5747 106.736 54.8182 98.8844C57.4909 109.001 66.8465 124.92 82.8868 107.667Z" fill="white" stroke="black" stroke-width="2"/>
<path d="M86.3893 101.379C89.1184 100.93 94.7381 106.581 88.3074 112.314" stroke="black" stroke-width="2" stroke-linecap="round"/>
<path d="M48.3714 102.485C45.9383 100.484 45.2211 90.8434 54.0073 91.6326" stroke="black" stroke-width="2" stroke-linecap="round"/>
<path d="M72.5994 86.0613L75.1259 92.2953L69.8941 91.171" stroke="black" stroke-width="2" stroke-linecap="round"/>
<path d="M104.195 112.704L132.386 105.494C135.472 104.934 137.936 103.082 123.104 100.155C108.271 97.2275 105.076 96.0025 105.332 95.7558M104.195 112.704L101.099 108.825M104.195 112.704L101.281 115.839M104.195 112.704L104.34 118.28" stroke="#FFC7B7" stroke-width="6" stroke-linecap="round"/>
<path d="M33.93 108.985L5.40311 103.245C2.29219 102.845 -0.264427 101.124 14.3964 97.432C29.0573 93.7402 32.1849 92.3512 31.9161 92.1182M33.93 108.985L36.8208 104.95M33.93 108.985L37.0027 111.965M33.93 108.985L34.0746 114.56" stroke="#FFC7B7" stroke-width="6" stroke-linecap="round"/>
<path d="M53.2891 131.66L45.3602 137.583C41.4906 140.474 40.2405 145.718 42.3896 150.044L49.6897 164.738C50.9377 167.25 51.1807 170.263 49.497 172.507C48.3634 174.017 46.876 175.413 45.1289 175.901" stroke="#FFC7B7" stroke-width="6" stroke-linecap="round"/>
<path d="M75.2891 141.66L67.3602 147.583C63.4906 150.474 62.2405 155.718 64.3896 160.044L71.6897 174.738C72.9377 177.25 73.1807 180.263 71.497 182.507C70.3634 184.017 68.876 185.413 67.1289 185.901" stroke="#FFC7B7" stroke-width="6" stroke-linecap="round"/>
</svg>
