<svg width="20" height="19" viewBox="0 0 20 19" fill="none" xmlns="http://www.w3.org/2000/svg">
<path d="M17.3666 3.64956C16.941 3.24503 16.4356 2.92412 15.8794 2.70517C15.3232 2.48623 14.727 2.37354 14.1249 2.37354C13.5229 2.37354 12.9267 2.48623 12.3705 2.70517C11.8143 2.92412 11.3089 3.24503 10.8833 3.64956L9.99994 4.48873L9.1166 3.64956C8.25686 2.83281 7.0908 2.37396 5.87494 2.37396C4.65908 2.37396 3.49301 2.83281 2.63327 3.64956C1.77353 4.46632 1.29053 5.57408 1.29053 6.72915C1.29053 7.88421 1.77353 8.99197 2.63327 9.80873L9.99994 16.8071L17.3666 9.80873C17.7924 9.40438 18.1302 8.92429 18.3607 8.39589C18.5912 7.86748 18.7098 7.30112 18.7098 6.72915C18.7098 6.15718 18.5912 5.59081 18.3607 5.06241C18.1302 4.534 17.7924 4.05391 17.3666 3.64956Z" fill="#FFF6ED" stroke="#FFF6ED" stroke-width="2" stroke-linecap="round" stroke-linejoin="round"/>
</svg>
