<svg width="131" height="8" viewBox="0 0 131 8" fill="none" xmlns="http://www.w3.org/2000/svg">
<path d="M119.605 8V0.123077H131V8H129.187L129.187 1.84615H121.417L121.418 8H119.605ZM118.051 0.123077L118.051 1.84615L109.989 1.84665V3.32308H118.051V5.04615H109.989V6.27692H118.051V8H108.176V0.123815L118.051 0.123077ZM105.224 0.123077V3.2H106.915V7.8784H95.5192V0.123077H105.224ZM97.3321 4.92308V6.15508H105.102V4.92308H97.3321ZM103.411 1.84615H97.3321V3.2H103.411V1.84615ZM93.9653 0.123077V7.8784H92.1524V0.123077H93.9653ZM80.7571 4.92308V7.87692H78.9442V0.123077H89.0446V3.2H90.5985V7.87692H88.7856V4.92308H80.7571ZM87.2317 1.84615H80.7571V3.2H87.2317V1.84615ZM65.8889 0.123077H77.7552V1.84615H72.992L72.9923 7.87692H71.1794L71.1791 1.84615H65.8889V0.123077ZM64.4396 0.123077L64.4398 1.84615L54.5663 1.84665V3.01145H64.4562V7.83926H52.856V6.11618L62.6433 6.11594V4.73452H52.7537V0.123815L64.4396 0.123077ZM38.5428 0H51.233V7.87692H49.4201L49.4198 1.72308H45.794L45.7943 7.87692H43.9814L43.9812 1.72308H40.3554L40.3556 7.87692H38.5428V0ZM27.9244 0.123077L27.9242 6.15508L36.7335 6.15532V7.8784H26.1115V0.123077H27.9244ZM24.8166 0.123077V7.8784H23.0037V0.123077H24.8166ZM21.3265 0.123077V1.84615H11.6082V2.976H21.3265V4.69908H11.6082L11.6084 7.8784H9.79555V0.123077H21.3265ZM1.65491 0.139323V1.61625H0V0.139323H1.65491ZM4.97197 0.139323V1.61625H3.31577V0.139323H4.97197ZM8.28697 0.139323V1.61625H6.63076V0.139323H8.28697Z" fill="#5E2779"/>
</svg>
