<svg width="1727" height="486" viewBox="0 0 1727 486" fill="none" xmlns="http://www.w3.org/2000/svg">
<path d="M0 74.6751V483.175L1727 485.675V93.1748C1671 39.1748 1586 57.0084 1550.5 72.6752C1507.7 3.87523 1425 -3.6581 1389 1.17523C1293.8 15.1752 1261.67 88.0086 1257.5 122.675C1152.7 63.8752 1041.17 102.842 998.5 129.675C975.7 70.0752 920.333 42.8419 895.5 36.6752C811.1 15.0752 748 58.0086 727 82.1752C705.5 53.5086 641.7 0.375235 558.5 17.1752C475.3 33.9752 442.833 100.175 437 131.175C348.6 96.3752 295.833 112.342 280.5 124.675C256.1 44.2752 184.333 17.8418 151.5 14.6751C74.3 3.87512 18.3333 50.1751 0 74.6751Z" fill="#C9EEFC"/>
</svg>
