<svg width="392" height="576" viewBox="0 0 392 576" fill="none" xmlns="http://www.w3.org/2000/svg">
<path d="M392 575.689H0V29.1888C5.2 10.3888 21.5 5.02218 29 4.68884C52.2 4.68884 61.6667 27.0222 63.5 38.1888C78.3 31.3888 92.3333 37.3555 97.5 41.1888C98.5 32.1888 105.1 12.4888 123.5 5.68884C141.9 -1.11116 155.833 16.5222 160.5 26.1888C191.7 -9.01116 212.833 21.5222 219.5 41.1888C243.1 19.9888 267 30.6888 276 38.6888C279.2 12.6888 295.667 2.85549 303.5 1.18882C319.9 -4.81118 334 13.3555 339 23.1888C378.2 -0.011158 390.667 34.8555 392 55.1888V575.689Z" fill="#C9EEFC"/>
</svg>
