<svg width="124" height="121" viewBox="0 0 124 121" fill="none" xmlns="http://www.w3.org/2000/svg">
<path d="M49.1443 92.4253C50.1645 93.8867 51.7963 95.0094 53.8872 95.7676C58.0809 97.2883 63.8767 97.2504 69.2995 95.83C74.7395 94.4051 79.5816 91.6492 82.0289 87.9642C83.2362 86.1463 83.8627 84.1029 83.7129 81.8374C83.5621 79.5582 82.619 76.9675 80.5383 74.0927L79.5659 72.7494L81.1708 72.5317C84.8786 72.0292 88.8869 70.9141 92.2012 68.8912C95.5016 66.8767 98.0677 63.9953 99.0446 59.9415C100.355 54.4667 96.9115 48.5611 92.0192 46.5112L91.1864 46.1623L91.5326 45.2648C92.3011 43.2651 92.1515 41.62 91.4853 40.3062C90.8024 38.9595 89.5211 37.8569 87.8642 37.1168C84.5201 35.623 80.0125 35.7626 76.9633 37.8959L76.3534 38.3229L75.841 37.7974L75.6104 37.5684C73.1943 35.2337 69.6546 33.9392 65.7698 33.6169C61.7686 33.2849 57.5005 33.9945 53.9307 35.5574C50.3437 37.1279 47.5874 39.4997 46.4005 42.394C45.2417 45.2204 45.4815 48.794 48.3718 53.0553L49.3461 54.4921L47.6618 54.5987C42.6075 54.9201 38.6973 58.1332 37.0057 62.1607C35.3271 66.1576 35.8074 71.0088 39.66 74.7758L39.6607 74.7752L39.6685 74.784C41.211 76.3344 43.3554 77.9296 45.0796 78.7643C45.9705 79.1955 46.6106 79.3535 46.9585 79.3254C46.9952 79.3224 47.0221 79.317 47.0413 79.3126C47.0465 79.2867 47.0529 79.2475 47.0546 79.1902C47.055 79.177 47.056 79.1637 47.0564 79.1505L48.8714 79.1418C48.8713 79.1465 48.87 79.1513 48.8699 79.156L48.8712 79.1563C48.8015 81.7162 48.5189 84.2721 48.0286 86.7939C47.6743 89.1449 48.1404 90.987 49.1443 92.4253Z" fill="#EC5E55" stroke="#EC5E55" stroke-width="1.875"/>
<path d="M69.3236 43.1229C72.5309 47.0567 66.2513 55.4089 62.7106 59.0933C61.5607 56.711 56.8449 54.5474 54.6307 53.7635C58.192 48.5775 66.1163 39.1891 69.3236 43.1229Z" fill="white" stroke="black"/>
<path d="M64.9485 52.5113C66.3152 53.9461 64.0253 57.4341 62.7425 59.0016C62.2251 58.1056 60.6051 56.4133 59.716 56.1812C60.9646 54.0234 63.5817 51.0765 64.9485 52.5113Z" fill="black" stroke="black"/>
<path d="M83.8602 52.3846C87.0675 56.3185 80.7879 64.6707 77.2472 68.355C76.0973 65.9727 71.3815 63.8091 69.1673 63.0252C72.7286 57.8392 80.6529 48.4508 83.8602 52.3846Z" fill="white" stroke="black"/>
<path d="M77.3101 60.4216C78.6769 61.8564 77.1386 65.0602 75.8558 66.6277C75.3385 65.7317 72.9434 64.5677 72.0776 64.0914C73.3262 61.9337 75.9433 58.9868 77.3101 60.4216Z" fill="black" stroke="black"/>
<path d="M66.6776 73.8719C62.7647 73.1038 54.377 70.3397 52.129 65.4287C52.3858 71.1092 55.6551 80.7506 66.6776 73.8719Z" fill="white" stroke="black" stroke-width="2"/>
<path d="M70.7755 71.1395C72.3239 71.4718 74.2379 75.4627 69.6829 77.0316" stroke="black" stroke-width="2" stroke-linecap="round"/>
<path d="M47.7326 65.249C46.8176 63.7451 48.3022 58.7498 52.8543 60.9429" stroke="black" stroke-width="2" stroke-linecap="round"/>
<path d="M64.3642 63.8965L64.5087 67.5483L61.925 65.9133" stroke="black" stroke-width="2" stroke-linecap="round"/>
<path d="M72.2129 97.6984L88.7071 95.6368C90.4218 95.6586 92.3478 94.1602 86.3342 87.9923C80.3207 81.8245 79.2609 79.8542 79.4826 79.6401M72.2129 97.6984L68.1047 96.2841M72.2129 97.6984L68.2825 100.951M72.2129 97.6984L72.1359 103.644" stroke="#66B3A0" stroke-width="4" stroke-linecap="round"/>
<path d="M29.0681 44.5246L20.2963 62.6356C19.1797 64.3049 19.2459 67.5569 28.4439 67.2115C37.642 66.8661 40.0288 67.6039 40.0725 68.016M29.0681 44.5246L31.7379 41.0353M29.0681 44.5246L29.2157 40.0407M29.0681 44.5246L25.9559 41.8736" stroke="#66B3A0" stroke-width="4" stroke-linecap="round"/>
<path d="M52.3775 92.6622L51.5638 94.144C48.8881 99.0161 50.7554 105.178 55.7094 107.825L60.8423 110.566C63.5809 112.029 66.0271 114.976 64.4799 117.63C64.2353 118.05 63.9237 118.434 63.5301 118.754" stroke="#66B3A0" stroke-width="4" stroke-linecap="round"/>
<path d="M45.9171 79.8188L42.1139 82.8806C38.9294 85.4443 37.5925 89.4773 38.7117 93.1443L40.392 98.6496C41.0728 100.88 40.9839 103.41 39.3017 105.212C38.6629 105.896 37.9386 106.484 37.1835 106.77" stroke="#66B3A0" stroke-width="4" stroke-linecap="round"/>
</svg>
