<svg width="265" height="269" viewBox="0 0 265 269" fill="none" xmlns="http://www.w3.org/2000/svg">
<path d="M160.424 215.342L164.996 200.044C165.627 198.826 165.329 195.059 159.085 189.741C152.841 184.422 151.156 182.094 151.094 181.595M160.424 215.342L158.01 216.116M160.424 215.342L161.161 223.335M160.424 215.342L164.329 224.759" stroke="#85DEF8" stroke-width="9" stroke-linecap="round"/>
<path d="M145.796 226.604L149.812 209.4C150.403 208.04 149.951 203.747 143.423 197.454C136.895 191.161 135.098 188.448 135.015 187.878M145.796 226.604L143.384 227.388M145.796 226.604L146.859 235.718M145.796 226.604L150.12 237.463" stroke="#85DEF8" stroke-width="9" stroke-linecap="round"/>
<path d="M51.3141 131.528C57.2701 146.802 75.1313 150.455 89.7182 149.972C62.2611 198.619 167.982 199.959 157.466 163.329C155.995 158.972 154.908 154.491 154.219 149.936C154.949 155.331 164.999 147.353 170.361 140.517C184.293 123.228 169.844 101.35 149.183 103.451C168.18 67.3172 108.187 59.6257 90.7207 82.3351C76.9437 75.8883 53.878 87.4907 62.4294 102.746C52.9977 108.343 47.2314 121.012 51.3141 131.528Z" fill="#EC5E55"/>
<path d="M105.651 91.0732C100.433 99.2178 114.215 112.45 121.758 118.048C123.413 113.362 131.889 107.966 135.92 105.855C128.004 97.5339 110.869 82.9285 105.651 91.0732Z" fill="white" stroke="black"/>
<path d="M116.046 106.78C113.769 109.812 118.892 115.441 121.677 117.892C122.461 116.103 125.161 112.525 126.799 111.827C123.948 108.293 118.323 103.749 116.046 106.78Z" fill="black" stroke="black"/>
<path d="M80.0988 112.415C74.881 120.56 88.6625 133.792 96.2055 139.39C97.8603 134.703 106.336 129.308 110.368 127.197C102.452 118.876 85.3167 104.27 80.0988 112.415Z" fill="white" stroke="black"/>
<path d="M117.505 146.14C124.766 143.53 140.083 135.904 143.261 126.281C144.035 136.685 139.967 155.223 117.505 146.14Z" fill="white" stroke="black" stroke-width="2"/>
<path d="M109.115 142.445C106.248 143.529 103.5 151.376 112.499 152.815" stroke="black" stroke-width="2" stroke-linecap="round"/>
<path d="M151.571 124.592C152.975 121.575 149.046 112.956 140.888 118.354" stroke="black" stroke-width="2" stroke-linecap="round"/>
<path d="M94.3258 124.992C92.0487 128.024 95.6816 133.37 98.4662 135.821C99.2498 134.032 103.54 131.173 105.079 130.039C102.228 126.505 96.603 121.96 94.3258 124.992Z" fill="black" stroke="black"/>
<path d="M119.685 127.291L120.221 133.973L124.765 130.2" stroke="black" stroke-width="2" stroke-linecap="round"/>
<path d="M112.284 191.161L80.4995 192.531C77.2477 193.102 73.2571 190.976 83.3085 177.901C93.3599 164.825 94.9353 160.916 94.4665 160.595M112.284 191.161L119.772 187.316M112.284 191.161L120.471 195.854M112.284 191.161L113.751 201.943" stroke="#85DEF8" stroke-width="9" stroke-linecap="round"/>
<path d="M182.791 81.4469L203.473 111.643C205.964 114.33 206.561 120.262 189.015 122.487C171.469 124.712 167.099 126.794 167.108 127.556M182.791 81.4469L172 71.7088M182.791 81.4469L182.791 71.7069M182.791 81.4469L193 75.7088" stroke="#85DEF8" stroke-width="9" stroke-linecap="round"/>
</svg>
