<svg width="1728" height="491" viewBox="0 0 1728 491" fill="none" xmlns="http://www.w3.org/2000/svg">
<path d="M0 121.5V0.5L1728 0V158.5C1612 261.3 1508 186 1470.5 135.5C1449.7 147.5 1411.5 151.5 1395 152C1432.2 269.6 1305.83 307.333 1238 311.5C1237.2 399.9 1127.67 423 1073 423.5C1019.4 519.1 816.333 492.333 721.5 467C682.3 487.4 640.167 490.833 624 490C576.8 484.8 549.667 457.833 542 445C524 440.667 484.7 426.2 471.5 403C458.3 379.8 477 353.333 488 343C462.5 354.5 396.9 372.8 338.5 354C280.1 335.2 288.5 294.5 300 276.5C268.8 268.5 247 251.167 240 243.5C190.4 223.5 165 179.167 158.5 159.5C76.5 179.1 18.6667 142.333 0 121.5Z" fill="#C9EEFC"/>
</svg>
