<svg width="1512" height="333" viewBox="0 0 1512 333" fill="none" xmlns="http://www.w3.org/2000/svg">
<path d="M0 89.3967V0H1512V114.939C1372 152.522 1321.54 133.061 1284.94 98.1539C1262.54 107.495 1203.27 119.074 1191.31 118.587C1169.44 209.444 1102.94 213.785 1065.31 193.024C1063.91 253.741 974.312 282.125 927.5 254.324C882.7 323.506 751.625 360.98 665.438 307.962C583.537 346.786 526.75 326.372 522.375 288.988C434.875 307.962 423.5 245.326 444.938 222.944C324.625 264.602 278.25 202.832 278.25 168.941C175.438 190.128 154.875 140.724 138.688 115.668C70.7875 130.264 17.9375 104.235 0 89.3967Z" fill="#C9EEFC"/>
</svg>
