<svg width="1512" height="323" viewBox="0 0 1512 323" fill="none" xmlns="http://www.w3.org/2000/svg">
<path d="M0 79.9566V0.32904L1512 0V104.306C1410.5 171.956 1319.5 122.403 1286.69 89.1697C1268.49 97.0667 1235.06 99.699 1220.62 100.028C1253.17 177.418 1142.6 202.249 1083.25 204.992C1082.55 263.166 986.711 278.367 938.875 278.697C891.975 341.609 714.291 323.994 631.312 307.323C597.013 320.748 560.146 323.007 546 322.459C504.7 319.037 480.959 301.29 474.25 292.845C458.5 289.994 424.113 280.473 412.562 265.206C401.012 249.938 417.375 232.521 427 225.721C404.688 233.289 336.5 270.5 296.188 232.96C246.5 244.5 251 206 262.5 181.959C235.2 176.694 193.625 165.545 187.5 160.5C144.1 147.338 144.375 117.906 138.688 104.964C66.9375 117.862 16.3334 93.6664 0 79.9566Z" fill="#C9EEFC"/>
</svg>
