<svg width="1512" height="406" viewBox="0 0 1512 406" fill="none" xmlns="http://www.w3.org/2000/svg">
<path d="M0 89.3967V0H1512V147C1437 210 1335.1 181.907 1298.5 147C1291.5 160.5 1275 182.5 1237 168.5C1215.12 259.356 1123.12 256.761 1085.5 236C1084.1 296.717 989.812 371.301 943 343.5C898.2 412.682 750.688 426.018 664.5 373C582.6 411.824 526.75 326.372 522.375 288.988C434.875 307.962 423.5 245.326 444.938 222.944C324.625 264.602 278.25 202.832 278.25 168.941C175.438 190.128 154.875 140.724 138.688 115.668C70.7875 130.264 17.9375 104.235 0 89.3967Z" fill="#C9EEFC"/>
</svg>
