<svg width="102" height="100" viewBox="0 0 102 100" fill="none" xmlns="http://www.w3.org/2000/svg">
<g clip-path="url(#clip0_652_4271)">
<path d="M86.4246 35.0442C85.2459 32.926 83.6546 31.048 81.7416 29.5177C79.8286 27.9874 77.6314 26.8347 75.2756 26.1255C72.9197 25.4163 70.4513 25.1645 68.0114 25.3843C65.5715 25.6042 63.208 26.2916 61.0558 27.4071L56.5896 29.7206L54.1429 25.326C51.7615 21.0488 47.7509 17.8413 42.9933 16.409C38.2357 14.9768 33.1209 15.4372 28.774 17.6889C24.4271 19.9407 21.2043 23.7993 19.8145 28.416C18.4246 33.0326 18.9817 38.0292 21.3631 42.3064L41.7678 78.9556L79.0137 59.6617C81.1665 58.5472 83.0659 57.0262 84.6036 55.1857C86.1412 53.3453 87.2868 51.2213 87.975 48.9352C88.6632 46.6491 88.8805 44.2457 88.6145 41.8622C88.3485 39.4787 87.6044 37.162 86.4246 35.0442Z" fill="#FFF6ED" stroke="#5E2779" stroke-width="4" stroke-linecap="round" stroke-linejoin="round"/>
</g>
<defs>
<clipPath id="clip0_652_4271">
<rect width="81.7281" height="79.3074" fill="white" transform="translate(22.8614) rotate(16.754)"/>
</clipPath>
</defs>
</svg>
