<svg width="75" height="78" viewBox="0 0 75 78" fill="none" xmlns="http://www.w3.org/2000/svg">
<g clip-path="url(#clip0_652_4270)">
<path d="M50.3275 13.7486C48.7433 12.9178 47.0397 12.4208 45.3142 12.286C43.5887 12.1511 41.8751 12.3811 40.2712 12.9627C38.6672 13.5444 37.2045 14.4663 35.9665 15.6758C34.7285 16.8853 33.7396 18.3588 33.0561 20.0119L31.6372 23.4416L28.3497 21.7187C25.1501 20.0417 21.5328 19.7595 18.2938 20.9341C15.0548 22.1087 12.4593 24.6439 11.0783 27.982C9.69726 31.3201 9.64388 35.1876 10.9299 38.7338C12.2159 42.28 14.7359 45.2143 17.9355 46.8913L45.3517 61.2602L57.1848 32.6579C57.869 31.0051 58.2344 29.2049 58.2601 27.36C58.2858 25.515 57.9712 23.6616 57.3344 21.9056C56.6976 20.1496 55.751 18.5254 54.5488 17.1258C53.3465 15.7262 51.9121 14.5786 50.3275 13.7486Z" fill="#FFF6ED"/>
</g>
<defs>
<clipPath id="clip0_652_4270">
<rect width="56.6747" height="62.0492" fill="white" transform="translate(0 19.3213) rotate(-19.9327)"/>
</clipPath>
</defs>
</svg>
