<svg width="104" height="103" viewBox="0 0 104 103" fill="none" xmlns="http://www.w3.org/2000/svg">
<g clip-path="url(#clip0_652_4272)">
<path d="M88.6361 38.6458C87.5813 36.4632 86.1008 34.4967 84.2791 32.8588C82.4573 31.2209 80.3302 29.9436 78.019 29.1C75.7079 28.2563 73.2581 27.8627 70.8096 27.9418C68.3611 28.0208 65.9619 28.5709 63.749 29.5607L59.1571 31.6132L56.9674 27.0851C54.8363 22.6778 51.017 19.2447 46.3497 17.5409C41.6825 15.8371 36.5497 16.0023 32.0803 18C27.611 19.9977 24.1714 23.6644 22.5181 28.1934C20.8647 32.7224 21.1332 37.7427 23.2643 42.1499L41.5251 79.9132L79.8201 62.7957C82.0335 61.807 84.0174 60.398 85.6584 58.649C87.2994 56.9001 88.5654 54.8457 89.3841 52.603C90.2028 50.3603 90.5581 47.9734 90.4298 45.5785C90.3014 43.1837 89.692 40.8279 88.6361 38.6458Z" fill="#FFF6ED"/>
</g>
<defs>
<clipPath id="clip0_652_4272">
<rect width="81.7281" height="79.3074" fill="white" transform="translate(27.1959) rotate(20.0547)"/>
</clipPath>
</defs>
</svg>
