<svg width="1512" height="759" viewBox="0 0 1512 759" fill="none" xmlns="http://www.w3.org/2000/svg">
<g clip-path="url(#clip0_1026_5871)">
<rect x="1110" y="54" width="57" height="103" fill="#FFC7B7"/>
<rect x="1063" y="80" width="33" height="104" fill="#FFC7B7"/>
<g opacity="0.21">
<rect x="1180" y="93" width="42" height="7" fill="#FFA179"/>
<rect x="1180" y="105" width="42" height="7" fill="#FFA179"/>
<rect x="1180" y="117" width="42" height="7" fill="#FFA179"/>
<rect x="1180" y="129" width="42" height="7" fill="#FFA179"/>
</g>
<path d="M622.148 228.486C399.593 181.883 75.1425 148.346 -17 170.44V492H1506V5C1275.94 76.889 844.703 275.089 622.148 228.486Z" fill="#FFE7BA"/>
<path d="M1127.86 237.276C934.383 246.439 777.338 334.035 723 376.688V489H1506V54C1399.82 70.763 1366.74 125.615 1363.47 150.946C1365.55 175.904 1321.34 228.112 1127.86 237.276Z" fill="#FFC7B7"/>
<path d="M27.6436 29L-1.43457 162.779H62.0783L27.6436 29Z" fill="#FFC7B7"/>
<path d="M35.2959 194.909H26.1133L29.9394 118.965L35.2959 194.909Z" fill="#FF9D78"/>
<path d="M70.587 58L49.2216 156.295H95.8882L70.587 58Z" fill="#FFE2DB"/>
<path d="M76.2099 179.904H69.4629L72.2741 124.104L76.2099 179.904Z" fill="#FF9D78"/>
<path d="M346.145 117L331.324 185.187H363.696L346.145 117Z" fill="#FFC7B7"/>
<path d="M350.045 201.566H345.365L347.315 162.857L350.045 201.566Z" fill="#FF9D78"/>
<path d="M368.033 132L357.143 182.101H380.929L368.033 132Z" fill="#FFE2DB"/>
<path d="M370.899 194.135H367.46L368.893 165.693L370.899 194.135Z" fill="#FF9D78"/>
<path d="M589 344.739C493.063 216.66 132.685 197.815 -15 215.788V491H547.977L589 344.739Z" fill="#FEF3DC"/>
<ellipse cx="132.629" cy="569.169" rx="233.629" ry="174.229" fill="#FFC7B7"/>
<ellipse cx="547.049" cy="514.525" rx="310.05" ry="194.525" fill="#FFF2ED"/>
<ellipse cx="1367.15" cy="486.424" rx="241.053" ry="144.567" fill="#FEF3DC"/>
<ellipse cx="979.372" cy="564.483" rx="241.053" ry="144.567" fill="#FFE7BA"/>
<path d="M402.382 340.726C406.277 341.551 402.235 351.607 399.727 356.533L378.927 361C375.239 357.678 368.66 349.729 371.846 344.506C375.032 339.283 379.369 346.682 381.14 351.035C381.582 344.964 383.529 332.479 387.778 331.105C392.026 329.73 391.613 342.215 390.876 348.629C393.088 345.651 398.488 339.901 402.382 340.726Z" fill="#FF9D78"/>
<path d="M573.618 425.726C569.723 426.551 573.765 436.607 576.273 441.533L597.073 446C600.761 442.678 607.34 434.729 604.154 429.506C600.968 424.283 596.631 431.682 594.86 436.035C594.418 429.964 592.471 417.479 588.222 416.105C583.974 414.73 584.387 427.215 585.124 433.629C582.912 430.651 577.512 424.901 573.618 425.726Z" fill="#FF9D78"/>
<path d="M1031.28 418.127C1023.38 419.749 1031.58 439.528 1036.68 449.214L1078.91 458C1086.39 451.467 1099.75 435.834 1093.28 425.562C1086.81 415.29 1078.01 429.842 1074.41 438.402C1073.52 426.463 1069.56 401.909 1060.94 399.206C1052.31 396.503 1053.15 421.056 1054.65 433.671C1050.15 427.814 1039.19 416.506 1031.28 418.127Z" fill="#FF9D78"/>
<ellipse cx="1315" cy="583.5" rx="241" ry="125.5" fill="#FFF2ED"/>
<rect width="16.953" height="262.896" transform="translate(1384.96 132.383)" fill="#889789"/>
<path d="M1221.72 57.7318C1226.61 52.7141 1238.89 51.772 1248.77 52.1751C1232.88 35.4573 1304.55 36.671 1295.31 48.7862C1292.65 52.2938 1292.41 53.2611 1292.41 53.2611C1293.21 51.4604 1299.5 54.3065 1302.8 56.6628C1311.2 62.6563 1300.23 69.7455 1286.36 68.7055C1297.19 81.1055 1256.19 82.7328 1245.59 74.8521C1235.88 76.7759 1220.91 72.5108 1227.42 67.5907C1221.58 65.5496 1218.36 61.1949 1221.72 57.7318Z" fill="#D9EADA"/>
<rect width="11.7963" height="262.64" transform="translate(1412.85 108.428)" fill="#889789"/>
<path d="M1284.3 48.1026C1314.44 31.7923 1356.92 44.2084 1387.79 59.5184C1384 -38.6545 1612.77 64.5441 1548.26 107.407C1529.63 119.836 1526.07 123.928 1526.07 123.928C1533.8 116.778 1546.06 138.371 1550.05 153.66C1560.15 192.531 1504.37 210.033 1462.4 186.378C1462.11 257.891 1324.63 209.485 1312.77 158.974C1275.81 154.551 1239.48 114.636 1274.63 100.992C1261.51 83.684 1263.51 59.3714 1284.3 48.1026Z" fill="#7AD8C0"/>
<path d="M1267.32 67.9698C1297.46 51.6595 1339.94 64.0756 1370.81 79.3856C1367.02 -18.7873 1595.79 84.4113 1531.28 127.275C1512.65 139.703 1509.09 143.796 1509.09 143.796C1516.82 136.645 1529.08 158.239 1533.06 173.527C1543.17 212.398 1487.39 229.9 1445.42 206.245C1445.13 277.758 1307.65 229.352 1295.79 178.841C1258.83 174.418 1222.5 134.503 1257.65 120.859C1244.53 103.551 1246.53 79.2386 1267.32 67.9698Z" fill="#70BD74"/>
<path d="M1133.25 124.167C1138.14 119.15 1150.42 118.208 1160.3 118.611C1144.41 101.893 1216.08 103.107 1206.84 115.222C1204.18 118.729 1203.93 119.697 1203.93 119.697C1204.74 117.896 1211.02 120.742 1214.33 123.098C1222.73 129.092 1211.76 136.181 1197.89 135.141C1208.72 147.541 1167.72 149.168 1157.12 141.288C1147.41 143.211 1132.44 138.946 1138.95 134.026C1133.11 131.985 1129.89 127.63 1133.25 124.167Z" fill="#D9EADA"/>
<path d="M1315.39 92.2957C1334.36 82.0318 1361.09 89.8451 1380.52 99.4796C1378.13 37.7002 1522.1 102.642 1481.5 129.616C1469.77 137.437 1467.54 140.012 1467.54 140.012C1472.4 135.512 1480.11 149.101 1482.62 158.722C1488.98 183.183 1453.88 194.197 1427.47 179.311C1427.29 224.313 1340.77 193.852 1333.31 162.066C1310.05 159.282 1287.19 134.165 1309.31 125.579C1301.05 114.687 1302.31 99.3871 1315.39 92.2957Z" fill="#D9EADA"/>
</g>
<defs>
<clipPath id="clip0_1026_5871">
<rect width="1512" height="759" fill="white"/>
</clipPath>
</defs>
</svg>
