<svg width="1512" height="982" viewBox="0 0 1512 982" fill="none" xmlns="http://www.w3.org/2000/svg">
<g clip-path="url(#clip0_1026_5871)">
<rect x="1117" y="216" width="57" height="136" fill="#FFC7B7"/>
<rect x="1070" y="250" width="33" height="136" fill="#FFC7B7"/>
<g opacity="0.21">
<rect x="1187" y="267" width="42" height="7" fill="#FFA179"/>
<rect x="1187" y="279" width="42" height="7" fill="#FFA179"/>
<rect x="1187" y="291" width="42" height="7" fill="#FFA179"/>
<rect x="1187" y="303" width="42" height="7" fill="#FFA179"/>
</g>
<path d="M629.148 444.781C406.593 383.728 82.1425 339.793 -10 368.736V790H1513V152C1282.94 246.179 851.703 505.833 629.148 444.781Z" fill="#FFE7BA"/>
<path d="M1134.86 456.311C941.383 468.277 784.338 582.655 730 638.349V785H1513V217C1406.82 238.888 1373.74 310.511 1370.47 343.587C1372.55 376.176 1328.34 444.346 1134.86 456.311Z" fill="#FFC7B7"/>
<path d="M34.6436 183.736L5.56543 358.971H69.0783L34.6436 183.736Z" fill="#FFC7B7"/>
<path d="M42.2957 401.056H33.1132L36.9392 301.578L42.2957 401.056Z" fill="#FF9D78"/>
<path d="M77.587 222.014L56.2216 350.769H102.888L77.587 222.014Z" fill="#FFE2DB"/>
<path d="M83.2099 381.694H76.4629L79.2741 308.602L83.2099 381.694Z" fill="#FF9D78"/>
<path d="M353.145 299.895L338.324 389.212H370.696L353.145 299.895Z" fill="#FFC7B7"/>
<path d="M357.045 410.665H352.365L354.315 359.961L357.045 410.665Z" fill="#FF9D78"/>
<path d="M375.033 319.406L364.143 385.033H387.929L375.033 319.406Z" fill="#FFE2DB"/>
<path d="M377.899 400.796H374.46L375.893 363.541L377.899 400.796Z" fill="#FF9D78"/>
<path d="M596 597.455C500.063 429.721 139.685 405.043 -8 428.58V789H554.977L596 597.455Z" fill="#FEF3DC"/>
<ellipse cx="139.629" cy="891.782" rx="233.629" ry="228.219" fill="#FFC7B7"/>
<ellipse cx="554.049" cy="820.206" rx="310.05" ry="254.804" fill="#FFF2ED"/>
<ellipse cx="1374.15" cy="783.398" rx="241.053" ry="189.365" fill="#FEF3DC"/>
<ellipse cx="986.372" cy="885.646" rx="241.053" ry="189.365" fill="#FFE7BA"/>
<path d="M409.382 591.644C413.277 592.716 409.235 605.789 406.727 612.192L385.927 618C382.239 613.682 375.66 603.348 378.846 596.558C382.032 589.768 386.369 599.387 388.14 605.045C388.582 597.154 390.529 580.923 394.778 579.136C399.026 577.349 398.613 593.58 397.876 601.918C400.088 598.046 405.488 590.571 409.382 591.644Z" fill="#FF9D78"/>
<path d="M580.618 703.319C576.723 704.364 580.765 717.103 583.273 723.341L604.073 729C607.761 724.793 614.34 714.724 611.154 708.108C607.968 701.492 603.631 710.864 601.86 716.378C601.418 708.688 599.471 692.874 595.222 691.133C590.974 689.392 591.387 705.206 592.124 713.33C589.912 709.558 584.512 702.275 580.618 703.319Z" fill="#FF9D78"/>
<path d="M1038.28 693.287C1030.38 695.431 1038.58 721.579 1043.68 734.385L1085.91 746C1093.39 737.364 1106.75 716.696 1100.28 703.116C1093.81 689.536 1085.01 708.774 1081.41 720.091C1080.52 704.307 1076.56 671.846 1067.94 668.273C1059.31 664.699 1060.15 697.159 1061.65 713.836C1057.15 706.093 1046.19 691.143 1038.28 693.287Z" fill="#FF9D78"/>
<ellipse cx="1322" cy="910.5" rx="241" ry="164.5" fill="#FFF2ED"/>
<rect width="16.953" height="312.169" transform="translate(1391.96 351.049)" fill="#889789"/>
<path d="M1228.72 262.405C1233.61 256.447 1245.89 255.328 1255.77 255.807C1239.88 235.956 1311.55 237.397 1302.31 251.783C1299.65 255.948 1299.41 257.097 1299.41 257.097C1300.21 254.958 1306.5 258.338 1309.8 261.136C1318.2 268.253 1307.23 276.671 1293.36 275.436C1304.19 290.16 1263.19 292.092 1252.59 282.734C1242.88 285.019 1227.91 279.954 1234.42 274.112C1228.58 271.688 1225.36 266.517 1228.72 262.405Z" fill="#D9EADA"/>
<rect width="11.7963" height="311.865" transform="translate(1419.85 322.605)" fill="#889789"/>
<path d="M1291.3 250.971C1321.44 231.604 1363.92 246.347 1394.79 264.526C1391 147.953 1619.77 270.494 1555.26 321.391C1536.63 336.149 1533.07 341.008 1533.07 341.008C1540.8 332.517 1553.06 358.158 1557.05 376.312C1567.15 422.468 1511.37 443.251 1469.4 415.162C1469.11 500.078 1331.63 442.6 1319.77 382.622C1282.81 377.37 1246.48 329.974 1281.63 313.773C1268.51 293.221 1270.51 264.352 1291.3 250.971Z" fill="#7AD8C0"/>
<path d="M1274.32 274.563C1304.46 255.196 1346.94 269.939 1377.81 288.118C1374.02 171.545 1602.79 294.086 1538.28 344.983C1519.65 359.741 1516.09 364.6 1516.09 364.6C1523.82 356.109 1536.08 381.75 1540.06 399.904C1550.17 446.06 1494.39 466.843 1452.42 438.754C1452.13 523.67 1314.65 466.192 1302.79 406.214C1265.83 400.962 1229.5 353.566 1264.65 337.365C1251.53 316.813 1253.53 287.944 1274.32 274.563Z" fill="#70BD74"/>
<path d="M1140.25 341.294C1145.14 335.336 1157.42 334.217 1167.3 334.696C1151.41 314.845 1223.08 316.286 1213.84 330.672C1211.18 334.837 1210.93 335.985 1210.93 335.985C1211.74 333.847 1218.02 337.227 1221.33 340.025C1229.73 347.141 1218.76 355.559 1204.89 354.324C1215.72 369.048 1174.72 370.981 1164.12 361.623C1154.41 363.907 1139.44 358.843 1145.95 353.001C1140.11 350.577 1136.89 345.406 1140.25 341.294Z" fill="#D9EADA"/>
<path d="M1322.39 304.339C1341.36 292.152 1368.09 301.429 1387.52 312.87C1385.13 239.511 1529.1 316.625 1488.5 348.654C1476.77 357.941 1474.54 360.999 1474.54 360.999C1479.4 355.656 1487.11 371.791 1489.62 383.216C1495.98 412.261 1460.88 425.339 1434.47 407.664C1434.29 461.1 1347.77 424.93 1340.31 387.186C1317.05 383.881 1294.19 354.055 1316.31 343.86C1308.05 330.927 1309.31 312.76 1322.39 304.339Z" fill="#D9EADA"/>
</g>
<defs>
<clipPath id="clip0_1026_5871">
<rect width="1512" height="982" fill="white"/>
</clipPath>
</defs>
</svg>
