<svg width="203" height="222" viewBox="0 0 203 222" fill="none" xmlns="http://www.w3.org/2000/svg">
<ellipse cx="101.5" cy="174.487" rx="101.5" ry="47.5" fill="#D9EADA"/>
<rect x="25.8555" y="159.733" width="146.217" height="10.6988" transform="rotate(-3.90628 25.8555 159.733)" fill="#050505" fill-opacity="0.1"/>
<path d="M48.3668 137.828L91.2247 134.355C92.4656 134.254 93.425 135.424 93.0834 136.621C92.8795 137.336 92.2536 137.849 91.5128 137.909L48.6549 141.383C47.414 141.483 46.4546 140.314 46.7961 139.116C47.0001 138.402 47.626 137.888 48.3668 137.828Z" fill="#ECC88C" stroke="#ECC88C"/>
<path d="M99.9091 133.651L142.767 130.177C144.008 130.076 144.967 131.246 144.626 132.443C144.422 133.158 143.796 133.671 143.055 133.732L100.197 137.205C98.9563 137.306 97.9969 136.136 98.3384 134.939C98.5423 134.224 99.1682 133.711 99.9091 133.651Z" fill="#ECC88C" stroke="#ECC88C"/>
<path d="M50.1153 136.069L42.1787 38.1465L44.6063 37.9497C47.3479 69.5422 52.7734 133.356 52.543 135.873C52.3125 138.389 50.5287 137.82 50.1153 136.069Z" fill="#ECC88C" stroke="#ECC88C"/>
<path d="M89.2165 132.899L81.2799 34.9766L83.7075 34.7798C86.4491 66.3723 91.8746 130.186 91.6442 132.703C91.4137 135.219 89.6299 134.65 89.2165 132.899Z" fill="#ECC88C" stroke="#ECC88C"/>
<path d="M101.658 131.892L93.721 33.9688L96.1486 33.772C98.8902 65.3645 104.316 129.179 104.085 131.695C103.855 134.211 102.071 133.642 101.658 131.892Z" fill="#ECC88C" stroke="#ECC88C"/>
<path d="M138.981 128.867L131.044 30.9443L133.472 30.7476C136.213 62.3401 141.639 126.154 141.409 128.67C141.178 131.187 139.394 130.618 138.981 128.867Z" fill="#ECC88C" stroke="#ECC88C"/>
<path d="M21.5133 169.166L29.4671 41.0563C32.3591 32.5927 36.3002 37.0737 37.9093 40.3721C35.7705 80.2011 31.0965 161.591 29.5112 168.517C27.9258 175.444 21.4291 173.645 21.5133 169.166Z" fill="#ECC88C"/>
<path d="M167.635 158.561L139.583 33.3083C140.002 24.374 145.036 27.5795 147.5 30.2991C156.542 69.147 174.729 148.616 175.136 155.71C175.543 162.804 168.803 162.886 167.635 158.561Z" fill="#ECC88C"/>
<path d="M151.799 29.5984L23.9085 40.5205C15.1121 38.9012 18.9666 34.3455 21.9934 32.27C61.7054 28.5439 142.9 21.2298 149.985 21.7821C157.069 22.3344 156.242 29.0247 151.799 29.5984Z" fill="#ECC88C"/>
<path d="M141.61 89.6787C141.498 97.9957 136.068 103.744 131.214 106.861C146.122 122.73 111.527 147.52 110.556 128.437C110.513 126.117 110.328 123.828 110.004 121.596C110.417 124.219 106.148 122.886 103.559 120.999C96.8878 116.314 98.993 103.048 106.04 99.2791C95.4257 87.1713 114.219 69.9479 122.707 76.2932C126.457 70.2069 135.443 70.2142 134.476 79.1162C138.253 79.5072 141.681 83.9569 141.61 89.6787Z" fill="#FFCFFF"/>
<path d="M119.429 82.7237C122.111 85.2682 119.446 94.0031 117.778 98.0525C116.66 96.3098 113.299 95.6619 111.758 95.5559C113.197 90.2183 116.746 80.1793 119.429 82.7237Z" fill="white" stroke="black" stroke-width="0.5"/>
<path d="M118.147 91.8586C119.251 92.7366 118.35 96.2997 117.783 97.9656C117.309 97.3318 116.001 96.2983 115.396 96.3264C115.846 94.1649 117.043 90.9807 118.147 91.8586Z" fill="black" stroke="black"/>
<path d="M130.206 86.9337C132.888 89.4781 130.223 98.213 128.555 102.262C127.437 100.52 124.076 99.8719 122.535 99.7658C123.975 94.4283 127.523 84.3893 130.206 86.9337Z" fill="white" stroke="black" stroke-width="0.5"/>
<path d="M127.317 95.4703C128.421 96.3482 127.954 99.4772 127.388 101.143C126.913 100.509 125.195 100.125 124.566 99.9381C125.016 97.7766 126.212 94.5924 127.317 95.4703Z" fill="black" stroke="black"/>
<path d="M122.693 109.667C120.07 110.007 114.267 109.781 112.04 106.158C113.119 110.946 116.761 118.351 122.693 109.667Z" fill="white" stroke="black" stroke-width="0.5"/>
<path d="M124.87 106.291C125.912 106.18 127.778 109.103 125.121 111.603" stroke="black" stroke-width="0.5" stroke-linecap="round"/>
<path d="M109.202 107.124C108.376 106.072 108.519 101.427 111.78 102.141" stroke="black" stroke-width="0.5" stroke-linecap="round"/>
<path d="M119.607 101.735L120.288 104.818L118.374 104.079" stroke="black" stroke-width="0.5" stroke-linecap="round"/>
<path d="M130.067 128.616L140.271 122.655C141.369 122.237 142.358 120.467 137.523 116.728C132.688 112.989 131.694 111.576 131.801 111.336M130.067 128.616L127.215 128.454M130.067 128.616L128.081 132.396M130.067 128.616L130.976 133.715" stroke="#E6FEFE" stroke-width="4" stroke-linecap="round"/>
<path d="M122.991 150.423L132.156 142.965C133.177 142.383 133.882 140.481 128.53 137.53C123.178 134.579 121.978 133.336 122.047 133.083M122.991 150.423L120.148 150.701M122.991 150.423L121.609 154.464M122.991 150.423L124.673 155.322" stroke="#E6FEFE" stroke-width="4" stroke-linecap="round"/>
<path d="M114.254 148.738L123.42 141.279C124.441 140.697 125.146 138.796 119.794 135.845C114.442 132.894 113.242 131.65 113.311 131.397M114.254 148.738L111.411 149.016M114.254 148.738L112.873 152.778M114.254 148.738L115.936 153.637" stroke="#E6FEFE" stroke-width="4" stroke-linecap="round"/>
<path d="M93.9429 94.1697L91.2582 111.877C90.8139 113.588 91.3802 116.349 97.1997 113.712C103.019 111.075 104.663 111.098 104.757 111.439M93.9429 94.1697L95.0861 90.5087M93.9429 94.1697L93.3148 90.3011M93.9429 94.1697L91.528 92.6971" stroke="#E6FEFE" stroke-width="4" stroke-linecap="round"/>
<path d="M48.8358 93.9437C48.7722 101.969 53.9433 107.287 58.6073 110.087C43.7556 126.051 76.9435 148.5 78.2849 130.033C78.375 127.79 78.6022 125.572 78.964 123.404C78.5081 125.954 82.6942 124.483 85.2555 122.55C91.851 117.74 90.0749 105.021 83.2883 101.685C93.8789 89.538 75.9274 73.7155 67.5275 80.2069C64.0005 74.4914 55.2466 74.8846 56.0042 83.4384C52.3163 83.9783 48.8853 88.422 48.8358 93.9437Z" fill="#5E2779"/>
<path d="M71.134 87.1817C68.4516 89.7262 71.1169 98.4611 72.7848 102.51C73.9032 100.768 77.2639 100.12 78.8045 100.014C77.3654 94.6763 73.8165 84.6373 71.134 87.1817Z" fill="white" stroke="black" stroke-width="0.5"/>
<path d="M72.4161 96.3157C71.3119 97.1936 72.2126 100.757 72.7794 102.423C73.2542 101.789 74.5616 100.755 75.167 100.783C74.7171 98.6219 73.5202 95.4378 72.4161 96.3157Z" fill="black" stroke="black"/>
<path d="M60.356 91.3937C57.6736 93.9381 60.3389 102.673 62.0068 106.722C63.1251 104.98 66.4859 104.332 68.0265 104.226C66.5874 98.8882 63.0385 88.8492 60.356 91.3937Z" fill="white" stroke="black" stroke-width="0.5"/>
<path d="M63.2454 99.9273C62.1412 100.805 62.6075 103.934 63.1743 105.6C63.6492 104.966 65.3665 104.582 65.9963 104.395C65.5464 102.234 64.3495 99.0494 63.2454 99.9273Z" fill="black" stroke="black"/>
<path d="M67.8688 114.125C70.4918 114.465 76.2948 114.239 78.5219 110.616C77.4426 115.404 73.8009 122.809 67.8688 114.125Z" fill="white" stroke="black" stroke-width="0.5"/>
<path d="M65.6923 110.75C64.6497 110.639 62.7841 113.562 65.4408 116.062" stroke="black" stroke-width="0.5" stroke-linecap="round"/>
<path d="M81.3595 111.583C82.1863 110.531 82.0428 105.885 78.7819 106.6" stroke="black" stroke-width="0.5" stroke-linecap="round"/>
<path d="M70.9547 106.193L70.274 109.276L72.1877 108.537" stroke="black" stroke-width="0.5" stroke-linecap="round"/>
<path d="M60.4947 133.073L50.2914 127.112C49.1927 126.694 48.204 124.924 53.0388 121.185C57.8737 117.446 58.868 116.033 58.7609 115.794M60.4947 133.073L63.3467 132.911M60.4947 133.073L62.4812 136.853M60.4947 133.073L59.586 138.172" stroke="#E6FEFE" stroke-width="4" stroke-linecap="round"/>
<path d="M94.2203 102.929L96.9051 120.636C97.3494 122.346 96.783 125.108 90.9636 122.471C85.1442 119.834 83.5007 119.857 83.4064 120.198M94.2203 102.929L93.0772 99.2675M94.2203 102.929L94.8485 99.0599M94.2203 102.929L96.6353 101.456" stroke="#E6FEFE" stroke-width="4" stroke-linecap="round"/>
<path d="M67.7953 151.415L76.9607 143.956C77.9821 143.374 78.6869 141.472 73.3347 138.521C67.9825 135.571 66.7826 134.327 66.8516 134.074M67.7953 151.415L64.9523 151.693M67.7953 151.415L66.4137 155.455M67.7953 151.415L69.4772 156.313" stroke="#E6FEFE" stroke-width="4" stroke-linecap="round"/>
<path d="M77.6025 151.413L86.7679 143.954C87.7893 143.372 88.4941 141.47 83.1419 138.519C77.7897 135.569 76.5898 134.325 76.6589 134.072M77.6025 151.413L74.7595 151.691M77.6025 151.413L76.2209 155.453M77.6025 151.413L79.2844 156.311" stroke="#E6FEFE" stroke-width="4" stroke-linecap="round"/>
</svg>
