<svg width="261" height="261" viewBox="0 0 261 261" fill="none" xmlns="http://www.w3.org/2000/svg">
<path d="M219.006 193C219.006 213.435 194.157 230 163.505 230C132.854 230 108.005 213.435 108.005 193C108.005 172.565 132.854 156 163.505 156C194.157 156 219.006 172.565 219.006 193Z" fill="black" fill-opacity="0.08"/>
<path d="M67.6036 177.074L50.2734 182.207C44.5446 183.904 41.5725 190.213 43.9118 195.711L58.6417 230.329C59.8993 233.284 59.7435 236.784 57.3422 238.917C54.9752 241.02 51.6789 242.85 47.8632 242.491" stroke="#67B7A2" stroke-width="13" stroke-linecap="round"/>
<path d="M99.8395 202.403L75.1717 205.328C71.2363 205.795 67.9478 208.541 66.7874 212.33L56.606 245.577C55.8994 247.884 54.3986 249.894 52.2272 250.947C48.3575 252.824 42.9245 254.727 38.9328 253.845" stroke="#67B7A2" stroke-width="13" stroke-linecap="round"/>
<path d="M75.7896 85.2546C91.8782 70.0871 115.949 75.859 133.658 84.8599C127.663 9.91984 258.794 68.9339 224.695 107.501C220.412 112.022 216.547 116.91 213.145 122.127C217.159 115.989 224.944 131.444 227.64 142.839C234.746 171.725 204.56 190.031 180.251 175.62C182.931 230.487 104.695 205.523 96.1337 167.759C75.5367 167.647 53.6757 140.276 72.8654 126.667C64.5319 114.535 64.6446 95.6675 75.7896 85.2546Z" fill="#EC5E55"/>
<path d="M125.252 128.138C129.738 133.923 141.297 145.244 151.644 144.247C141.562 149.309 122.169 153.175 125.252 128.138Z" fill="white" stroke="black" stroke-width="2"/>
<path d="M143.549 103.93C142.203 89.8109 157.764 82.4626 165.713 80.5533C174.657 79.2687 171.923 88.7039 169.438 93.5821C167.412 99.4959 145.232 121.579 143.549 103.93Z" fill="white" stroke="black" stroke-width="2" stroke-linecap="round"/>
<path d="M174.087 121.907C172.741 107.787 188.302 100.439 196.251 98.5299C205.195 97.2453 202.461 106.68 199.976 111.559C197.949 117.472 175.77 139.555 174.087 121.907Z" fill="white" stroke="black" stroke-width="2" stroke-linecap="round"/>
<path d="M151.785 101.28C145.135 100.36 143.636 106.374 145.806 108.758C147.976 111.141 151.419 108.007 152.295 106.628C154.663 103.164 153.204 101.828 151.785 101.28Z" fill="black" stroke="black" stroke-width="2" stroke-linecap="round"/>
<path d="M182.007 119.649C175.357 118.729 173.858 124.744 176.028 127.127C178.198 129.511 181.641 126.376 182.517 124.997C184.885 121.533 183.427 120.197 182.007 119.649Z" fill="black" stroke="black" stroke-width="2" stroke-linecap="round"/>
<path d="M155.103 121.362C153.322 120.417 149.448 119.333 148.201 122.56C146.643 126.594 150.52 129.895 153.728 129.589" stroke="black" stroke-width="2" stroke-linecap="round"/>
<path d="M195.805 156.686L197.573 191.214C197.905 197.699 192.065 202.776 185.69 201.544L138.705 192.467M138.705 192.467L131.235 178.092M138.705 192.467L126.6 190.09M138.705 192.467L124.375 203.785" stroke="#67B7A2" stroke-width="13" stroke-linecap="round"/>
<path d="M152.318 49.6992C149.331 50.4524 143.117 52.732 142.16 55.8253" stroke="#5D585C"/>
<path d="M141.592 55.7221C146.117 53.6532 147.214 57.4706 147.197 59.638L133.384 79.4086C128.654 81.7704 127.677 77.7821 127.779 75.4928L141.592 55.7221Z" fill="#576157" stroke="#576157"/>
<path d="M132.585 53.8134C135.321 51.3663 139.859 53.8101 141.786 55.3378L127.973 75.1085C125.085 74.8342 121.505 70.5901 122.098 68.8244C124.453 64.8403 129.849 56.2604 132.585 53.8134Z" fill="#3B9FB8" stroke="#2F8599"/>
<path d="M224.741 101.601C225.507 105.161 226.332 112.947 223.5 115.61" stroke="#5D585C"/>
<path d="M223.794 115.878C224.703 110.986 220.733 110.848 218.635 111.391L202.807 129.589C201.664 134.751 205.77 134.731 207.967 134.076L223.794 115.878Z" fill="#576157" stroke="#576157"/>
<path d="M227.831 124.153C229.541 120.904 226.069 117.096 224.119 115.597L208.292 133.796C209.259 136.531 214.245 138.973 215.814 137.97C219.107 134.718 226.121 127.401 227.831 124.153Z" fill="#3B9FB8" stroke="#2F8599"/>
<path d="M225.604 101.385C228.173 77.828 212.5 32.1431 151.043 50.2873" stroke="#576157" stroke-width="7" stroke-linecap="round"/>
<path d="M120.534 216.168L146.005 178.984C148.801 174.903 148.193 169.392 144.575 166.019L86.7485 112.103C82.1678 107.832 74.8333 108.775 71.4816 114.065L52.4181 144.157C50.0831 147.842 50.4073 152.617 53.2192 155.953L104.638 216.961C108.897 222.015 116.799 221.62 120.534 216.168Z" fill="#2C322D" stroke="black" stroke-linecap="round"/>
<path d="M109.657 93.1549L78.4156 81.0886C71.2495 78.3208 63.7683 84.3314 64.9272 91.9256L70.0266 125.342M70.0266 125.342L81.7976 127.59M70.0266 125.342L76.1405 137.279M70.0266 125.342L63.1351 137.235" stroke="#67B7A2" stroke-width="13" stroke-linecap="round"/>
</svg>
