<svg width="393" height="998" viewBox="0 0 393 998" fill="none" xmlns="http://www.w3.org/2000/svg">
<g clip-path="url(#clip0_1050_4359)">
<path d="M196.5 497.586C148 452.586 23.7767 432.846 0 449.586V852.086H393V262.086C346.5 287.086 250.512 547.7 196.5 497.586Z" fill="#FFE7BA"/>
<path d="M176 560.086C78.8901 567.543 27.273 647.977 0 682.687V719.086H393V354.086C339.706 367.728 309.139 481.472 307.5 502.086C308.543 522.397 273.11 552.629 176 560.086Z" fill="#FFC7B7"/>
<path d="M166.5 608.586C125 507.586 -26.5 530.43 -38 514.086V766.231H224.847L166.5 608.586Z" fill="#FFF6ED"/>
<ellipse cx="58" cy="850.086" rx="116" ry="119" fill="#FFC7B7"/>
<ellipse cx="336" cy="719.086" rx="126" ry="110" fill="#FFF6ED"/>
<ellipse cx="178.5" cy="819.086" rx="119.5" ry="132" fill="#FFE2DB"/>
<ellipse cx="276.5" cy="818.586" rx="93.5" ry="98.5" fill="#FFE7BA"/>
<ellipse cx="369" cy="859.586" rx="93" ry="84.5" fill="#FFE2DB"/>
<rect width="8.59374" height="158.243" transform="translate(346.005 492.838)" fill="#889789"/>
<path d="M263.26 447.904C265.736 444.883 271.961 444.316 276.971 444.559C268.913 434.496 305.247 435.227 300.563 442.519C299.214 444.63 299.089 445.213 299.089 445.213C299.495 444.129 302.683 445.842 304.359 447.26C308.616 450.868 303.054 455.135 296.024 454.509C301.515 461.973 280.732 462.952 275.358 458.209C270.435 459.367 262.847 456.799 266.15 453.838C263.185 452.609 261.555 449.988 263.26 447.904Z" fill="#BAD0BB"/>
<rect width="5.97974" height="158.089" transform="translate(360.146 478.419)" fill="#889789"/>
<path d="M294.978 442.107C310.261 432.29 331.793 439.763 347.444 448.979C345.518 389.886 461.488 452.004 428.785 477.804C419.341 485.286 417.537 487.749 417.537 487.749C421.457 483.445 427.67 496.442 429.691 505.645C434.812 529.042 406.538 539.577 385.262 525.339C385.117 568.384 315.422 539.247 309.411 508.844C290.678 506.181 272.261 482.155 290.079 473.943C283.427 463.525 284.444 448.89 294.978 442.107Z" fill="#7AD8C0"/>
<path d="M286.371 454.066C301.653 444.249 323.185 451.722 338.836 460.938C336.91 401.845 452.88 463.963 420.178 489.763C410.733 497.245 408.929 499.708 408.929 499.708C412.849 495.404 419.062 508.401 421.083 517.604C426.204 541.001 397.931 551.536 376.654 537.298C376.509 580.343 306.815 551.206 300.803 520.803C282.071 518.14 263.653 494.114 281.472 485.902C274.819 475.484 275.837 460.849 286.371 454.066Z" fill="#70BD74"/>
<path d="M218.413 487.893C220.889 484.873 227.114 484.305 232.124 484.548C224.066 474.485 260.4 475.216 255.716 482.508C254.367 484.62 254.242 485.202 254.242 485.202C254.648 484.118 257.836 485.831 259.512 487.249C263.768 490.857 258.207 495.124 251.176 494.498C256.668 501.962 235.884 502.941 230.511 498.198C225.588 499.356 218 496.789 221.302 493.827C218.338 492.599 216.708 489.977 218.413 487.893Z" fill="#BAD0BB"/>
<path d="M310.741 469.16C320.358 462.982 333.908 467.685 343.757 473.484C342.545 436.297 415.524 475.387 394.945 491.624C389.001 496.331 387.866 497.881 387.866 497.881C390.333 495.173 394.242 503.352 395.515 509.143C398.737 523.867 380.945 530.497 367.556 521.536C367.465 548.624 323.606 530.289 319.823 511.156C308.035 509.481 296.445 494.362 307.658 489.194C303.472 482.637 304.112 473.428 310.741 469.16Z" fill="#D9EADA"/>
<path d="M23.0428 357.086L9 440H39.6724L23.0428 357.086Z" fill="#FFC7B7"/>
<path d="M26.7385 459.913H22.304L24.1517 412.844L26.7385 459.913Z" fill="#FF9D78"/>
<path d="M43.7812 375.197L33.4631 436.119H56L43.7812 375.197Z" fill="#FFE2DB"/>
<path d="M46.4971 450.752H43.2388L44.5964 416.168L46.4971 450.752Z" fill="#FF9D78"/>
<path d="M301.814 723.026C297.448 724.208 301.979 738.623 304.791 745.683L328.112 752.086C332.247 747.325 339.624 735.931 336.052 728.445C332.479 720.958 327.616 731.564 325.631 737.803C325.135 729.101 322.952 711.206 318.189 709.236C313.425 707.266 313.888 725.161 314.715 734.354C312.234 730.086 306.181 721.844 301.814 723.026Z" fill="#FF9D78"/>
<path d="M209.117 622.57C211.242 623.12 209.037 629.824 207.669 633.108L196.324 636.086C194.312 633.871 190.723 628.572 192.461 625.09C194.199 621.608 196.565 626.541 197.531 629.443C197.772 625.395 198.834 617.072 201.152 616.156C203.469 615.239 203.244 623.563 202.841 627.839C204.048 625.853 206.993 622.02 209.117 622.57Z" fill="#FF9D78"/>
<path d="M124.422 806.109C120.999 807.043 124.551 818.441 126.755 824.023L145.034 829.086C148.275 825.321 154.057 816.312 151.257 810.393C148.456 804.473 144.645 812.859 143.09 817.792C142.701 810.912 140.989 796.762 137.256 795.205C133.522 793.647 133.885 807.796 134.533 815.066C132.589 811.691 127.844 805.174 124.422 806.109Z" fill="#FF9D78"/>
</g>
<defs>
<clipPath id="clip0_1050_4359">
<rect width="393" height="998" fill="white"/>
</clipPath>
</defs>
</svg>
