<svg width="241" height="249" viewBox="0 0 241 249" fill="none" xmlns="http://www.w3.org/2000/svg">
<ellipse cx="121.5" cy="224.5" rx="46.5" ry="19.5" fill="black" fill-opacity="0.08"/>
<path d="M132.519 208.736L140.009 194.636C140.867 193.566 141.315 189.814 136.238 183.372C131.161 176.929 129.967 174.315 130.005 173.814M132.519 208.736L130 209.021M132.519 208.736L131.67 216.719M132.519 208.736L134.496 218.738" stroke="#85DEF8" stroke-width="9" stroke-linecap="round"/>
<path d="M115.962 216.903L123.282 200.824C124.128 199.607 124.53 195.31 119.366 187.856C114.202 180.402 112.973 177.389 113.005 176.814M115.962 216.903L113.444 217.198M115.962 216.903L115.214 226.049M115.962 216.903L118.068 228.401" stroke="#85DEF8" stroke-width="9" stroke-linecap="round"/>
<path d="M42.0126 105.111C44.8501 121.258 61.6447 128.351 76.0419 130.744C39.5583 173.045 142.953 195.14 139.843 157.157C139.257 152.596 139.072 147.988 139.291 143.387C138.947 148.82 150.369 142.974 156.97 137.325C174.029 123.112 164.163 98.82 143.491 96.8196C169.22 65.1244 111.909 45.7905 90.32 64.6236C78.079 55.5945 53.1827 62.4366 58.5685 79.0755C48.2208 82.7089 40.0766 93.9974 42.0126 105.111Z" fill="#EC5E55"/>
<path d="M103.242 76.1262C96.5246 83.0864 107.436 98.7695 113.732 105.741C116.275 101.471 125.647 97.8473 130.014 96.5692C123.889 86.8548 109.959 69.1661 103.242 76.1262Z" fill="white" stroke="black"/>
<path d="M110.346 93.5693C107.517 96.0943 111.435 102.621 113.683 105.571C114.803 103.971 118.155 100.994 119.897 100.631C117.797 96.6056 113.175 91.0443 110.346 93.5693Z" fill="black" stroke="black"/>
<path d="M73.9924 92.0286C67.2754 98.9887 78.1871 114.672 84.4825 121.643C87.0263 117.373 96.3975 113.75 100.765 112.472C94.6396 102.757 80.7094 85.0684 73.9924 92.0286Z" fill="white" stroke="black"/>
<path d="M104.04 132.449C111.672 131.317 128.189 126.851 133.197 118.04C131.911 128.393 124.279 145.769 104.04 132.449Z" fill="white" stroke="black" stroke-width="2"/>
<path d="M96.5405 127.176C93.5163 127.676 89.2787 134.83 97.8198 138.009" stroke="black" stroke-width="2" stroke-linecap="round"/>
<path d="M141.678 118.016C143.647 115.334 141.489 106.111 132.428 109.8" stroke="black" stroke-width="2" stroke-linecap="round"/>
<path d="M85.47 107.156C82.6413 109.681 85.1526 115.637 87.401 118.587C88.521 116.987 93.2895 115.028 95.0211 114.218C92.9208 110.192 88.2986 104.631 85.47 107.156Z" fill="black" stroke="black"/>
<path d="M109.882 114.396L109.095 121.054L114.292 118.247" stroke="black" stroke-width="2" stroke-linecap="round"/>
<path d="M90.0711 175.565L58.6374 170.66C55.3368 170.581 51.8418 167.712 64.2674 156.868C76.6929 146.023 79.006 142.499 78.6093 142.093M90.0711 175.565L98.1692 173.267M90.0711 175.565L97.1763 181.775M90.0711 175.565L89.3899 186.424" stroke="#85DEF8" stroke-width="9" stroke-linecap="round"/>
<path d="M180.769 81.8501L195.112 115.522C197.026 118.647 196.445 124.58 178.804 123.313C161.163 122.046 156.47 123.228 156.328 123.977M180.769 81.8501L176.121 75.2949M180.769 81.8501L181.11 73.6536M180.769 81.8501L187.124 77.2254" stroke="#85DEF8" stroke-width="9" stroke-linecap="round"/>
</svg>
