<svg width="358" height="340" viewBox="0 0 358 340" fill="none" xmlns="http://www.w3.org/2000/svg">
<ellipse cx="46.5" cy="19.5" rx="46.5" ry="19.5" transform="matrix(-1 0 0 1 329.5 288.5)" fill="black" fill-opacity="0.08"/>
<path d="M283.536 270.54L284.859 278.688C285.158 280.531 285.968 282.254 287.195 283.661L292.636 289.894C293.441 290.818 294.082 291.877 294.438 293.049C294.886 294.526 295.337 296.34 295.313 297.466" stroke="#67B7A2" stroke-width="4" stroke-linecap="round"/>
<path d="M275.551 267.876L270.379 277.719C269.062 280.225 268.869 283.172 269.848 285.828L274.178 297.578C274.803 299.274 274.986 301.116 274.484 302.853C273.906 304.849 273.029 307.148 271.929 308.336" stroke="#67B7A2" stroke-width="4" stroke-linecap="round"/>
<path d="M323.719 210.397C323.983 221.76 314.176 228.989 305.295 232.684C334.015 256.133 270.864 285.999 267.968 259.783C267.756 256.605 267.282 253.452 266.551 250.362C267.469 253.998 259.427 251.675 254.489 248.792C241.774 241.604 244.95 223.704 257.886 219.373C237.393 201.571 271.486 180.209 287.685 189.88C294.338 181.993 311.107 183.053 309.807 195.116C316.879 196.092 323.527 202.579 323.719 210.397Z" fill="#FFCFFF"/>
<path d="M280.919 199.543C286.1 203.299 281.151 215.509 278.029 221.144C275.857 218.614 269.41 217.503 266.458 217.265C269.12 209.793 275.738 195.788 280.919 199.543Z" fill="white" stroke="black"/>
<path d="M278.625 212.4C280.755 213.706 279.093 218.697 278.038 221.022C277.117 220.098 274.595 218.56 273.437 218.565C274.26 215.532 276.495 211.094 278.625 212.4Z" fill="black" stroke="black"/>
<path d="M301.631 206.123C306.812 209.879 301.863 222.089 298.741 227.724C296.569 225.194 290.122 224.083 287.171 223.845C289.832 216.373 296.45 202.368 301.631 206.123Z" fill="white" stroke="black"/>
<path d="M296.251 218.036C298.38 219.342 297.543 223.743 296.487 226.069C295.567 225.144 292.271 224.501 291.062 224.201C291.885 221.168 294.121 216.73 296.251 218.036Z" fill="black" stroke="black"/>
<path d="M287.646 237.866C282.629 238.196 271.513 237.542 267.185 232.286C269.336 239.124 276.44 249.815 287.646 237.866Z" fill="white" stroke="black" stroke-width="2"/>
<path d="M291.755 233.21C293.749 233.113 297.373 237.357 292.331 240.743" stroke="black" stroke-width="2" stroke-linecap="round"/>
<path d="M261.77 233.491C260.168 231.954 260.361 225.387 266.617 226.586" stroke="black" stroke-width="2" stroke-linecap="round"/>
<path d="M136.7 191.954L265.279 250.256C266.347 250.741 266.574 252.16 265.708 252.953C265.222 253.399 264.516 253.509 263.917 253.232L135.724 194.087C135.292 193.887 135.023 193.446 135.044 192.971C135.08 192.141 135.943 191.611 136.7 191.954Z" fill="#F2B856" stroke="#F2B856"/>
<path d="M281.598 226.46L282.956 230.863L279.278 229.707" stroke="black" stroke-width="2" stroke-linecap="round"/>
<path d="M220.795 233.248L229.873 256.941C230.443 259.408 233.49 262.153 241.11 253.401C248.73 244.648 251.468 243.091 251.885 243.406M220.795 233.248L219.892 227.783M220.795 233.248L216.801 229.243M220.795 233.248L215.673 233.821" stroke="#67B7A2" stroke-width="4" stroke-linecap="round"/>
<path d="M248.475 240.674L263.072 264.091C264.06 266.474 268.582 269.48 278.758 262.44C288.935 255.4 292.707 254.35 293.321 254.705M248.475 240.674L246.797 235.448M248.475 240.674L242.518 236.355M248.475 240.674L241.249 240.457" stroke="#67B7A2" stroke-width="4" stroke-linecap="round"/>
<circle cx="2" cy="2" r="2" transform="matrix(-1 0 0 1 139.72 191.25)" fill="black"/>
<path d="M135.72 194.751C132.887 208.251 118.92 232.751 85.7202 222.751C44.2202 210.251 25.4702 190.699 45.4702 183.699C65.4702 176.699 36.9722 139.199 20.4722 117.699C4.04283 96.2907 -12.0147 -8.9102 25.1865 3.51671M25.1865 3.51671C25.3465 3.57016 25.5075 3.62578 25.6694 3.68359L25.1865 3.51671Z" stroke="#6DDBFA" stroke-width="5"/>
</svg>
