<svg width="535" height="515" viewBox="0 0 535 515" fill="none" xmlns="http://www.w3.org/2000/svg">
<path d="M52.3125 372.117C72.9753 353.107 121.955 354.359 160.832 360.295C102.62 282.748 386.103 318.989 346.171 366.204C340.899 371.783 336.639 377.677 333.442 383.816C337.192 376.609 361.487 391.321 373.699 402.65C405.304 431.61 359.893 456.807 305.23 446.419C344.755 503.521 181.823 492.56 142.342 454.698C103.386 458.749 45.1791 434.142 72.692 416.097C49.5239 404.972 38.0105 385.022 52.3125 372.117Z" fill="#B1B1B2"/>
<path d="M40.2964 360.021C60.9592 341.012 109.939 342.263 148.816 348.199C90.6038 270.652 374.087 306.893 334.155 354.109C328.883 359.687 324.623 365.581 321.426 371.72C325.176 364.513 349.471 379.225 361.683 390.554C393.288 419.514 347.877 444.712 293.213 434.323C332.738 491.425 169.807 480.464 130.325 442.602C91.3701 446.653 33.163 422.046 60.6759 404.002C37.5078 392.877 25.9943 372.926 40.2964 360.021Z" fill="#5E2779"/>
<path d="M86.0662 346.074L39.8534 285.853C34.3353 280.705 32.7424 267.747 70.5159 257.098C108.289 246.449 140.959 250.745 140.901 249.056M86.0662 346.074L103.132 365.675M86.0662 346.074L82.0889 369.994M86.0662 346.074L64.2832 360.816" stroke="#7AD8C0" stroke-width="10" stroke-linecap="round"/>
<path d="M440.213 220.492C439.445 264.514 396.377 289.285 357.852 300.696C476.535 400.669 202 495.687 194.012 393.383C193.637 381.023 192.137 368.679 189.531 356.495C192.844 370.851 158.906 359.265 138.307 346.518C85.2352 314.605 101.775 246.423 157.713 233.867C73.2047 158.397 222.292 86.8434 289.824 129.485C319.534 101.145 390.935 110.677 383.378 156.899C413.398 162.965 440.695 190.201 440.213 220.492Z" fill="#EC5E55"/>
<path d="M259.317 146.48C280.807 161.779 257.648 204.851 243.382 224.474C234.532 214.568 207.199 208.541 194.64 206.766C207.244 180.296 237.827 131.181 259.317 146.48Z" fill="white" stroke="black"/>
<path d="M247.39 192.725C256.263 198.146 248.339 215.864 243.444 224.032C239.669 220.374 229.162 213.987 224.216 213.65C228.235 202.825 238.517 187.304 247.39 192.725Z" fill="black" stroke="black"/>
<path d="M346.629 176.847C368.119 192.147 344.959 235.218 330.693 254.841C321.843 244.935 294.511 238.908 281.951 237.133C294.556 210.663 325.138 161.548 346.629 176.847Z" fill="white" stroke="black"/>
<path d="M321.671 218.708C330.545 224.129 326.236 239.946 321.341 248.114C317.567 244.457 303.608 241.1 298.497 239.634C302.516 228.809 312.798 213.287 321.671 218.708Z" fill="black" stroke="black"/>
<path d="M281.646 288.488C260.178 288.159 212.841 282.371 195.241 261.851C203.284 287.482 231.825 328.693 281.646 288.488Z" fill="white" stroke="black" stroke-width="2"/>
<path d="M299.961 272.748C308.489 273.007 323.25 289.612 301.161 300.433" stroke="black" stroke-width="2" stroke-linecap="round"/>
<path d="M171.929 264.589C165.348 258.488 167.264 234.565 193.771 240.859" stroke="black" stroke-width="2" stroke-linecap="round"/>
<path d="M257.731 244.985L262.794 261.479L247.289 256.132" stroke="black" stroke-width="2" stroke-linecap="round"/>
<path d="M337.349 344.147L426.548 340.523C436.214 340.687 444.531 337.384 400.464 322.861C356.396 308.338 347.156 303.757 348.044 303.281M337.349 344.147L314.641 333.282M337.349 344.147L316.26 355.417M337.349 344.147L334.605 367.295" stroke="#7AD8C0" stroke-width="10" stroke-linecap="round"/>
<path d="M204.996 379.969L168.784 396.012C164.787 397.783 162.404 401.947 162.9 406.293L169.644 465.407C169.94 467.998 169.24 470.627 167.459 472.53C163.07 477.219 155.828 483.239 148.974 483.669" stroke="#7AD8C0" stroke-width="10" stroke-linecap="round"/>
<path d="M173.612 334.787L127.997 356.79C124.314 358.567 122.084 362.408 122.366 366.49L127.402 439.456C127.573 441.925 126.843 444.388 125.186 446.227C119.858 452.137 110.49 460.443 101.957 461.363" stroke="#7AD8C0" stroke-width="10" stroke-linecap="round"/>
</svg>
