<svg width="171" height="196" viewBox="0 0 171 196" fill="none" xmlns="http://www.w3.org/2000/svg">
<ellipse cx="77.4995" cy="176.488" rx="46.5" ry="19.5" fill="black" fill-opacity="0.08"/>
<path d="M86.2598 126.127L79.6045 140.924C77.581 145.422 79.1401 150.724 83.2765 153.412L106.003 168.176C108.39 169.727 110.099 172.235 109.924 175.076C109.744 178.01 108.96 181.37 106.833 183.458" stroke="#67B7A2" stroke-width="4" stroke-linecap="round"/>
<path d="M63.8797 124.028L54.9742 131.879C52.0982 134.415 50.9251 138.371 51.9545 142.065L56.1826 157.235C56.8133 159.499 56.6799 161.949 55.3815 163.907C54.1508 165.763 52.5038 167.684 50.7456 168.414" stroke="#67B7A2" stroke-width="4" stroke-linecap="round"/>
<path d="M138.076 83.1253C135.159 95.2359 122.736 100.134 112.289 101.549C136.115 134.468 60.8191 148.338 65.1276 119.753C65.7972 116.327 66.1817 112.854 66.2765 109.375C66.2261 113.485 58.3614 108.762 53.9411 104.319C42.4957 93.1277 50.8955 75.0606 65.8166 74.112C49.1164 49.4901 91.2403 36.4532 105.679 51.2544C114.944 44.7717 132.409 50.612 127.638 63.0246C134.854 66.0481 140.072 74.7897 138.076 83.1253Z" fill="#FFCFFF"/>
<path d="M95.7919 59.589C100.224 65.0249 91.5465 76.5661 86.6539 81.6572C85.065 78.3652 78.5486 75.3756 75.489 74.2923C80.41 67.1263 91.36 54.1532 95.7919 59.589Z" fill="white" stroke="black"/>
<path d="M89.7469 72.5637C91.6355 74.5463 88.4712 79.3661 86.6986 81.5321C85.9837 80.294 83.7452 77.9555 82.5165 77.6347C84.2418 74.6531 87.8583 70.581 89.7469 72.5637Z" fill="black" stroke="black"/>
<path d="M115.879 72.3879C120.311 77.8237 111.633 89.3649 106.741 94.456C105.152 91.164 98.6354 88.1744 95.5758 87.0911C100.497 79.9251 111.447 66.952 115.879 72.3879Z" fill="white" stroke="black"/>
<path d="M106.827 83.4932C108.716 85.4759 106.59 89.9029 104.818 92.069C104.103 90.8308 100.793 89.2225 99.5968 88.5643C101.322 85.5827 104.939 81.5106 106.827 83.4932Z" fill="black" stroke="black"/>
<path d="M92.1356 102.077C86.7287 101.016 75.1384 97.1964 72.0321 90.4103C72.387 98.2598 76.9045 111.582 92.1356 102.077Z" fill="white" stroke="black" stroke-width="2"/>
<path d="M97.7979 98.3038C99.9375 98.763 102.582 104.278 96.2881 106.446" stroke="black" stroke-width="2" stroke-linecap="round"/>
<path d="M65.9578 90.1631C64.6934 88.0851 66.7449 81.1825 73.035 84.2129" stroke="black" stroke-width="2" stroke-linecap="round"/>
<path d="M88.9382 88.292L89.1379 93.3382L85.5677 91.079" stroke="black" stroke-width="2" stroke-linecap="round"/>
<path d="M99.7836 135.004L122.576 132.155C124.945 132.185 127.606 130.114 119.297 121.592C110.987 113.069 109.523 110.346 109.829 110.05M99.7836 135.004L94.1069 133.049M99.7836 135.004L94.3525 139.498M99.7836 135.004L99.6772 143.219" stroke="#67B7A2" stroke-width="4" stroke-linecap="round"/>
<path d="M40.1675 61.5239L28.0466 86.55C26.5036 88.8565 26.5952 93.3503 39.3051 92.873C52.015 92.3956 55.3133 93.4152 55.3736 93.9846M40.1675 61.5239L43.8567 56.7023M40.1675 61.5239L40.3715 55.328M40.1675 61.5239L35.8671 57.8607" stroke="#67B7A2" stroke-width="4" stroke-linecap="round"/>
</svg>
