<svg width="1741" height="954" viewBox="0 0 1741 954" fill="none" xmlns="http://www.w3.org/2000/svg">
<g clip-path="url(#clip0_958_8631)">
<rect x="1287" y="73" width="66" height="156" fill="#FFC7B7"/>
<rect x="1234" y="112" width="38" height="156" fill="#FFC7B7"/>
<g opacity="0.21">
<rect x="1368" y="131" width="48" height="7" fill="#FFA179"/>
<rect x="1368" y="143" width="48" height="7" fill="#FFA179"/>
<rect x="1368" y="155" width="48" height="7" fill="#FFA179"/>
<rect x="1368" y="167" width="48" height="7" fill="#FFA179"/>
</g>
<path d="M728.893 335C474.044 265.144 102.513 214.872 -3 247.99V730H1741V0C1477.55 107.76 983.743 404.856 728.893 335Z" fill="#FFE7BA"/>
<path d="M1307.81 348.281C1086.16 361.995 906.249 493.087 844 556.919V725H1741V74C1619.36 99.0867 1581.47 181.176 1577.72 219.085C1580.1 256.436 1529.45 334.567 1307.81 348.281Z" fill="#FFC7B7"/>
<path d="M48.2938 36L15 236.639H87.7207L48.2938 36Z" fill="#FFC7B7"/>
<path d="M57.0553 284.828H46.5415L50.9223 170.928L57.0553 284.828Z" fill="#FF9D78"/>
<path d="M97.4629 79.8281L73 227.249H126.432L97.4629 79.8281Z" fill="#FFE2DB"/>
<path d="M103.901 262.658H96.1758L99.3946 178.969L103.901 262.658Z" fill="#FF9D78"/>
<path d="M412.97 169L396 271.266H433.066L412.97 169Z" fill="#FFC7B7"/>
<path d="M417.436 295.828H412.077L414.31 237.773L417.436 295.828Z" fill="#FF9D78"/>
<path d="M438.031 191.34L425.562 266.481H452.797L438.031 191.34Z" fill="#FFE2DB"/>
<path d="M441.313 284.529H437.375L439.016 241.873L441.313 284.529Z" fill="#FF9D78"/>
<path d="M691 509.869C581.085 317.977 168.202 289.745 -1 316.672V729H644L691 509.869Z" fill="#FEF3DC"/>
<ellipse cx="168.5" cy="846.696" rx="267.5" ry="261.305" fill="#FFC7B7"/>
<ellipse cx="643" cy="764.744" rx="355" ry="291.744" fill="#FFF2ED"/>
<ellipse cx="1582" cy="722.599" rx="276" ry="216.818" fill="#FEF3DC"/>
<ellipse cx="1138" cy="839.669" rx="276" ry="216.818" fill="#FFE7BA"/>
<path d="M477.456 503.152C481.856 504.352 477.289 518.985 474.456 526.152L450.956 532.652C446.789 527.819 439.356 516.252 442.956 508.652C446.556 501.052 451.456 511.819 453.456 518.152C453.956 509.319 456.156 491.153 460.956 489.153C465.756 487.153 465.289 505.319 464.456 514.652C466.956 510.318 473.056 501.952 477.456 503.152Z" fill="#FF9D78"/>
<path d="M673.828 631.152C669.428 632.352 673.994 646.985 676.828 654.152L700.328 660.652C704.494 655.819 711.928 644.252 708.328 636.652C704.728 629.052 699.828 639.819 697.828 646.152C697.328 637.319 695.128 619.153 690.328 617.153C685.528 615.153 685.994 633.319 686.828 642.652C684.328 638.318 678.228 629.952 673.828 631.152Z" fill="#FF9D78"/>
<path d="M1197.73 619.853C1188.76 622.3 1198.07 652.135 1203.84 666.746L1251.74 680C1260.24 670.146 1275.39 646.563 1268.05 631.068C1260.71 615.573 1250.73 637.524 1246.65 650.437C1245.63 632.427 1241.14 595.389 1231.36 591.311C1221.58 587.233 1222.53 624.271 1224.23 643.3C1219.13 634.465 1206.7 617.407 1197.73 619.853Z" fill="#FF9D78"/>
<ellipse cx="1522" cy="868" rx="276" ry="188" fill="#FFF2ED"/>
<rect width="19.4107" height="357.425" transform="translate(1602.39 227.57)" fill="#889789"/>
<path d="M1415.49 126.076C1421.08 119.254 1435.14 117.973 1446.46 118.521C1428.26 95.7918 1510.32 97.4419 1499.74 113.913C1496.7 118.682 1496.41 119.997 1496.41 119.997C1497.33 117.549 1504.53 121.419 1508.32 124.622C1517.93 132.771 1505.37 142.409 1489.49 140.995C1501.89 157.854 1454.95 160.066 1442.81 149.352C1431.69 151.968 1414.55 146.169 1422.01 139.479C1415.32 136.704 1411.64 130.784 1415.49 126.076Z" fill="#D9EADA"/>
<rect width="13.5065" height="357.078" transform="translate(1634.33 195.002)" fill="#889789"/>
<path d="M1487.13 112.984C1521.65 90.8089 1570.28 107.689 1605.63 128.504C1601.28 -4.96859 1863.23 135.337 1789.36 193.613C1768.03 210.511 1763.95 216.074 1763.95 216.074C1772.81 206.352 1786.84 235.711 1791.41 256.497C1802.97 309.344 1739.11 333.14 1691.05 300.979C1690.73 398.206 1533.31 332.395 1519.73 263.721C1477.42 257.708 1435.82 203.441 1476.06 184.891C1461.04 161.359 1463.34 128.305 1487.13 112.984Z" fill="#7AD8C0"/>
<path d="M1467.69 139.996C1502.21 117.821 1550.84 134.701 1586.19 155.516C1581.84 22.0431 1843.78 162.349 1769.92 220.625C1748.59 237.523 1744.51 243.086 1744.51 243.086C1753.37 233.364 1767.4 262.723 1771.96 283.508C1783.53 336.356 1719.67 360.152 1671.61 327.991C1671.28 425.217 1513.86 359.407 1500.29 290.733C1457.97 284.719 1416.38 230.453 1456.62 211.903C1441.6 188.371 1443.89 155.316 1467.69 139.996Z" fill="#70BD74"/>
<path d="M1314.19 216.4C1319.78 209.578 1333.84 208.297 1345.16 208.845C1326.96 186.116 1409.03 187.766 1398.45 204.238C1395.4 209.006 1395.12 210.322 1395.12 210.322C1396.03 207.873 1403.24 211.743 1407.02 214.946C1416.64 223.095 1404.07 232.733 1388.19 231.319C1400.6 248.178 1353.65 250.39 1341.52 239.676C1330.4 242.292 1313.26 236.493 1320.72 229.804C1314.02 227.029 1310.34 221.108 1314.19 216.4Z" fill="#D9EADA"/>
<path d="M1522.73 174.088C1544.45 160.133 1575.06 170.756 1597.31 183.855C1594.57 99.8616 1759.41 188.155 1712.92 224.827C1699.5 235.461 1696.93 238.962 1696.93 238.962C1702.51 232.844 1711.34 251.319 1714.21 264.399C1721.49 297.656 1681.3 312.63 1651.06 292.392C1650.85 353.575 1551.79 312.161 1543.25 268.946C1516.62 265.161 1490.44 231.012 1515.77 219.339C1506.31 204.53 1507.76 183.729 1522.73 174.088Z" fill="#D9EADA"/>
</g>
<defs>
<clipPath id="clip0_958_8631">
<rect width="1741" height="954" fill="white"/>
</clipPath>
</defs>
</svg>
