<svg width="357" height="339" viewBox="0 0 357 339" fill="none" xmlns="http://www.w3.org/2000/svg">
<ellipse cx="46.5" cy="19.5" rx="46.5" ry="19.5" transform="matrix(-1 0 0 1 328.5 287.5)" fill="black" fill-opacity="0.08"/>
<path d="M282.536 269.54L283.859 277.688C284.158 279.531 284.967 281.254 286.195 282.661L291.636 288.894C292.441 289.818 293.082 290.877 293.438 292.049C293.886 293.526 294.337 295.34 294.313 296.466" stroke="#67B7A2" stroke-width="4" stroke-linecap="round"/>
<path d="M274.55 266.876L269.379 276.719C268.062 279.225 267.869 282.172 268.848 284.828L273.178 296.578C273.803 298.274 273.986 300.116 273.483 301.853C272.906 303.849 272.029 306.148 270.929 307.336" stroke="#67B7A2" stroke-width="4" stroke-linecap="round"/>
<path d="M322.719 209.397C322.983 220.76 313.176 227.989 304.294 231.684C333.015 255.133 269.864 284.999 266.968 258.783C266.756 255.605 266.282 252.452 265.551 249.362C266.469 252.998 258.427 250.675 253.489 247.792C240.774 240.604 243.95 222.704 256.886 218.373C236.392 200.571 270.486 179.209 286.685 188.88C293.338 180.993 310.107 182.053 308.807 194.116C315.878 195.092 322.527 201.579 322.719 209.397Z" fill="#FFCFFF"/>
<path d="M279.919 198.543C285.1 202.299 280.151 214.509 277.029 220.144C274.857 217.614 268.41 216.503 265.458 216.265C268.12 208.793 274.737 194.788 279.919 198.543Z" fill="white" stroke="black"/>
<path d="M277.625 211.4C279.755 212.706 278.093 217.697 277.037 220.022C276.117 219.098 273.595 217.56 272.437 217.565C273.26 214.532 275.495 210.094 277.625 211.4Z" fill="black" stroke="black"/>
<path d="M300.631 205.123C305.812 208.879 300.863 221.089 297.741 226.724C295.569 224.194 289.122 223.083 286.17 222.845C288.832 215.373 295.449 201.368 300.631 205.123Z" fill="white" stroke="black"/>
<path d="M295.25 217.036C297.38 218.342 296.543 222.743 295.487 225.069C294.566 224.144 291.271 223.501 290.062 223.201C290.885 220.168 293.121 215.73 295.25 217.036Z" fill="black" stroke="black"/>
<path d="M286.645 236.866C281.629 237.196 270.513 236.542 266.185 231.286C268.336 238.124 275.44 248.815 286.645 236.866Z" fill="white" stroke="black" stroke-width="2"/>
<path d="M290.755 232.21C292.749 232.113 296.373 236.357 291.33 239.743" stroke="black" stroke-width="2" stroke-linecap="round"/>
<path d="M260.77 232.491C259.168 230.954 259.361 224.387 265.617 225.586" stroke="black" stroke-width="2" stroke-linecap="round"/>
<path d="M135.699 190.954L264.278 249.256C265.347 249.741 265.574 251.16 264.708 251.953C264.222 252.399 263.516 252.509 262.917 252.232L134.724 193.087C134.292 192.887 134.023 192.446 134.044 191.971C134.08 191.141 134.943 190.611 135.699 190.954Z" fill="#F2B856" stroke="#F2B856"/>
<path d="M280.598 225.46L281.956 229.863L278.278 228.707" stroke="black" stroke-width="2" stroke-linecap="round"/>
<path d="M219.795 232.248L228.873 255.941C229.443 258.408 232.49 261.153 240.11 252.401C247.73 243.648 250.468 242.091 250.885 242.406M219.795 232.248L218.892 226.783M219.795 232.248L215.801 228.243M219.795 232.248L214.673 232.821" stroke="#67B7A2" stroke-width="4" stroke-linecap="round"/>
<path d="M247.475 239.674L262.072 263.091C263.06 265.474 267.582 268.48 277.758 261.44C287.935 254.4 291.707 253.35 292.321 253.705M247.475 239.674L245.797 234.448M247.475 239.674L241.517 235.355M247.475 239.674L240.248 239.457" stroke="#67B7A2" stroke-width="4" stroke-linecap="round"/>
<circle cx="2" cy="2" r="2" transform="matrix(-1 0 0 1 138.72 190.25)" fill="black"/>
<path d="M134.72 193.751C131.887 207.251 117.92 231.751 84.7201 221.751C43.2201 209.251 24.4701 189.699 44.4701 182.699C64.4701 175.699 35.972 138.199 19.472 116.699C3.04271 95.2907 -13.0148 -9.9102 24.1863 2.51671M24.1863 2.51671C24.3463 2.57016 24.5073 2.62578 24.6693 2.68359L24.1863 2.51671Z" stroke="#6DDBFA" stroke-width="3"/>
</svg>
