<svg width="1728" height="2259" viewBox="0 0 1728 2259" fill="none" xmlns="http://www.w3.org/2000/svg">
<path d="M-21.672 736.838C150.688 571.774 435.869 630.065 650.685 724.079C509.044 -78.7037 2088.51 533.74 1729.21 952.374C1625.51 1073.69 1609.5 1024 1609.5 1024C1650.16 957.279 1752.26 1209.07 1795.93 1330.6C1906.73 1639.6 1572.7 1840.84 1277.27 1689.68C1072.67 1938.08 594.122 1668.14 396.591 1409.51C244.36 1439.29 33.8146 1399.84 10.3573 1115.36C-93.8687 986.646 -140.441 850.83 -21.672 736.838Z" fill="#FFE7BA"/>
<path d="M-60.053 870.334C134.728 638.308 176.3 701.698 386.133 799.5C405.132 159.001 1688.13 423.001 1568.82 951.001C1449.21 1119 1558.5 1070.5 1558.5 1070.5C1698.5 1022 1706.14 1285.33 1737.55 1437.43C1817.16 1824.21 1477.17 1954.24 1191 1791.5C820.5 2059 558.5 1948.5 265.361 1762.36C99.0001 1721.5 -54 1613 45.0001 1330C-47.6798 1175.26 -194.3 1030.54 -60.053 870.334Z" fill="#FFC7B7"/>
</svg>
