<svg width="393" height="1546" viewBox="0 0 393 1546" fill="none" xmlns="http://www.w3.org/2000/svg">
<path d="M14.4436 141.994C47.6584 110.185 102.615 121.418 144.011 139.535C116.716 -15.1667 421.09 102.855 351.851 183.529C331.866 206.906 351.851 201 351.851 201C366.083 197.5 356.291 232.997 364.707 256.415C386.06 315.961 321.689 354.743 264.759 325.613C225.331 373.482 133.111 321.462 95.0456 271.622C65.7097 277.361 25.1362 269.759 20.6158 214.937C0.530792 190.133 -8.44404 163.961 14.4436 141.994Z" fill="#FFE7BA"/>
<path d="M45.5839 159.5C-27.2161 187.5 2.58393 259.833 26.5839 292.5C-9.41611 330.1 14.584 368.833 31.084 383.5C6.28399 387.5 3.08398 412.833 4.58398 425C-34.616 467 16.584 513.5 47.084 531.5C3.48398 570.7 25.2507 630.167 41.584 655C-11.216 721 39.2507 767.833 71.084 783C8.68398 808.2 25.4173 868.5 41.584 895.5C2.78398 924.3 34.7507 972.167 55.584 992.5C-7.21601 1047.7 29.4173 1099.5 55.584 1118.5C13.984 1127.7 33.9173 1167.33 49.084 1186C-0.516016 1238 36.7507 1289 61.584 1308C11.984 1350 45.584 1405.17 68.584 1427.5C32.184 1470.7 78.7507 1507.5 106.584 1520.5C152.584 1570.5 211.751 1534.67 235.584 1510.5C343.184 1528.1 338.751 1445.17 323.084 1401.5C361.484 1394.3 351.084 1336.17 341.084 1308C381.884 1264.8 362.417 1208.67 347.584 1186C372.784 1167.6 347.751 1143.33 332.084 1133.5C390.484 1115.1 370.751 1038.83 353.584 1003C398.784 968.2 381.084 910.5 366.584 886C401.384 832.4 359.751 771 334.584 747C395.784 706.2 360.084 646.333 334.584 621.5C406.584 582.7 364.584 550.333 334.584 539C349.384 531 345.751 505.667 342.084 494C390.884 456 362.417 392.833 342.084 366C403.084 328 366.584 235 342.084 231.5C322.484 228.7 327.251 199.333 332.084 185C374.584 122 262.584 91.4999 202.584 82.4999C154.584 75.2999 154.917 138.5 161.084 171C152.917 155.5 118.384 131.5 45.5839 159.5Z" fill="#F4C3C2"/>
</svg>
