<svg width="200" height="55" viewBox="0 0 200 55" fill="none" xmlns="http://www.w3.org/2000/svg">
<g clip-path="url(#clip0_1012_1274)">
<g clip-path="url(#clip1_1012_1274)">
<path d="M6.02062 13.4841V6.47378H6.81237C9.50516 6.47378 10.6433 7.52945 10.6433 9.92121C10.6433 12.313 9.79794 13.4841 7.01031 13.4841H6.02062ZM6.02062 26.1728V17.9831H7.28248C9.8433 17.9831 11.567 19.1088 11.567 21.9748C11.567 24.6222 11.0021 26.1728 7.48866 26.1728H6.02062ZM17.4804 22.3501C17.4804 18.7377 15.8309 16.7583 12.565 15.6284C15.5876 14.7006 16.4948 11.8841 16.4948 9.49234C16.4948 5.28615 14.0206 1.80162 8.8866 1.80162H0.177322V30.8408H9.38145C15.6041 30.8408 17.4763 26.4655 17.4763 22.3501H17.4804ZM34.1814 0.0820312L33.2948 2.2676C31.9274 1.74494 30.4741 1.48338 29.0103 1.49646C23.2082 1.49646 18.9196 5.10884 18.9196 12.0449V20.6346C18.9196 24.4202 20.1814 27.1872 22.2433 28.9109L20.9402 32.0655H23.6247L24.3876 30.2594C25.864 30.8698 27.4501 31.1702 29.0474 31.1418C34.8495 31.1418 39.1381 27.6944 39.1381 20.5892V12.0078C39.1381 8.0944 37.7485 5.24904 35.4804 3.47172L36.8701 0.0944024L34.1814 0.0820312ZM32.8784 9.73976C32.9134 10.1138 32.9258 10.4903 32.9155 10.8655V21.8057C32.9155 25.3356 31.534 26.3418 29.0103 26.3418C28.0439 26.4249 27.0818 26.1391 26.3175 25.5418L32.8784 9.73976ZM25.1546 21.9047V10.8367C25.1546 7.43048 26.5402 6.30059 29.0598 6.30059C29.8701 6.26641 30.6736 6.46227 31.3773 6.86554L25.1546 21.9047ZM47.332 13.5006V6.50677H49.0722C51.9588 6.50677 53.2784 7.51708 53.2784 9.73976C53.2784 11.9624 52.3711 13.4841 49.0722 13.4841L47.332 13.5006ZM54.268 17.3233C56.9526 16.3171 58.932 13.2944 58.932 9.90059C58.932 5.6944 56.4577 1.83048 50.8619 1.83048H41.4598V30.8697H47.332V18.2305H48.5938L52.9608 30.8408H59.6619L54.268 17.3233ZM66.7918 30.8367V12.0985L73.567 30.8408H80.8247V1.80162H75.4103V20.4985L68.5567 1.80162H61.3278V30.8408L66.7918 30.8367ZM97.6825 25.9996H89.7897V18.1026H97.0557V13.315H89.7814V6.64698H97.2619V1.80162H83.7485V30.8408H97.6206L97.6825 25.9996ZM106.016 13.5006V6.49028H106.804C109.497 6.49028 110.627 7.54595 110.627 9.9377C110.627 12.3295 109.802 13.513 107.002 13.513L106.016 13.5006ZM106.016 26.1934V17.9831H107.278C109.839 17.9831 111.563 19.1088 111.563 21.9748C111.563 24.6222 110.998 26.1728 107.485 26.1728L106.016 26.1934ZM117.447 22.3666C117.447 18.7542 115.798 16.7789 112.532 15.6449C115.559 14.7171 116.47 11.9006 116.47 9.50884C116.47 5.30265 113.996 1.81811 108.866 1.81811H100.161V30.8573H109.365C115.584 30.8573 117.431 26.482 117.431 22.3666H117.447ZM119.538 30.8573H125.546V1.80162H119.538V30.8573ZM144.247 6.64698V1.80162H128.907V30.8408H134.92V18.1439H142.342V13.315H134.92V6.64698H144.247ZM161.901 6.64698V1.80162H146.557V30.8408H152.577V18.1439H160V13.315H152.577V6.64698H161.901ZM178.082 26.0284H170.202V18.1233H177.493V13.315H170.223V6.64698H177.707V1.80162H164.194V30.8408H178.062L178.082 26.0284ZM185.604 30.8655V12.0985L192.412 30.8408H199.687V1.80162H194.268V20.4985L187.41 1.80162H180.206V30.8408L185.604 30.8655ZM3.16701 51.0758C2.75277 51.0773 2.33908 51.0456 1.9299 50.981C1.59382 50.929 1.26186 50.8532 0.936085 50.7542C0.728548 50.6932 0.528103 50.6103 0.338147 50.5068L0.655673 49.1336C0.855673 49.2457 1.06557 49.3393 1.28248 49.414C1.55176 49.5097 1.82722 49.5868 2.10722 49.6449C2.41025 49.7037 2.71812 49.7341 3.02681 49.7356C3.47737 49.7637 3.92693 49.6667 4.32578 49.4552C4.47453 49.3551 4.59386 49.2171 4.67143 49.0554C4.749 48.8938 4.782 48.7143 4.76701 48.5356C4.77539 48.277 4.69701 48.023 4.54433 47.814C4.35043 47.5871 4.11713 47.3971 3.85567 47.2532C3.54639 47.0758 3.15877 46.8738 2.68866 46.6511C2.28227 46.4549 1.89562 46.2201 1.53402 45.9501C1.18547 45.6877 0.88661 45.3651 0.651549 44.9975C0.435729 44.6234 0.31565 44.2018 0.301981 43.7702C0.288313 43.3386 0.381478 42.9102 0.573199 42.5233C0.752168 42.2037 1.0071 41.9332 1.31547 41.7356C1.64084 41.5271 1.99917 41.3751 2.37526 41.2862C3.28761 41.0902 4.23272 41.1057 5.13815 41.3315C5.43835 41.409 5.72784 41.5241 6 41.6738L5.6866 43.0016C5.42899 42.8395 5.15187 42.7106 4.86186 42.6181C4.46219 42.4911 4.04393 42.4325 3.62474 42.4449C3.33413 42.4412 3.04472 42.4829 2.76701 42.5686C2.53405 42.6317 2.32201 42.7555 2.15258 42.9274C2.07474 43.0082 2.01413 43.1039 1.97443 43.2088C1.93473 43.3137 1.91678 43.4256 1.92165 43.5377C1.9134 43.7872 1.97773 44.0338 2.10722 44.247C2.26145 44.4738 2.46598 44.6614 2.70516 44.7954C2.97732 44.9645 3.33196 45.1624 3.7732 45.3934C4.11959 45.5624 4.44949 45.7439 4.77114 45.9336C5.07943 46.1171 5.36942 46.3297 5.63712 46.5686C5.88689 46.7929 6.09128 47.0631 6.23918 47.3645C6.39217 47.6833 6.46846 48.0338 6.46186 48.3872C6.4801 48.9139 6.33616 49.4336 6.04949 49.8758C5.76377 50.2788 5.36683 50.5897 4.90722 50.7707C4.35275 50.9854 3.76147 51.0891 3.16701 51.0758ZM10.965 51.0758C10.5042 51.1052 10.0426 51.0308 9.61442 50.8581C9.1862 50.6854 8.8022 50.4188 8.49072 50.0779C7.87386 49.2939 7.56577 48.3109 7.62474 47.315C7.61295 46.6606 7.74529 46.0116 8.01237 45.414C8.25815 44.8735 8.65297 44.4143 9.15052 44.0903C9.70406 43.7499 10.3441 43.5766 10.9938 43.5913C11.3502 43.5811 11.7057 43.6312 12.0454 43.7398C12.3676 43.849 12.6648 44.0214 12.9196 44.247C13.186 44.4914 13.3958 44.7912 13.534 45.1253C13.6953 45.5278 13.7765 45.9579 13.7732 46.3913V47.1253C13.7723 47.318 13.7516 47.5101 13.7113 47.6985H8.56495L8.69691 46.7047H12.2186C12.2415 46.3788 12.2193 46.0513 12.1526 45.7315C12.1042 45.4589 11.9698 45.2089 11.7691 45.0181C11.5295 44.8226 11.2239 44.7266 10.9155 44.7501C10.6029 44.7439 10.2966 44.8378 10.0412 45.0181C9.74943 45.2537 9.54239 45.578 9.45155 45.9418C9.29897 46.5253 9.24124 47.1295 9.27835 47.7315C9.27937 48.1634 9.38702 48.5884 9.59176 48.9686C9.76534 49.2603 10.0265 49.4897 10.3381 49.6243C10.6701 49.7604 11.0268 49.828 11.3856 49.8222C11.5984 49.8202 11.8103 49.8024 12.0206 49.7686C12.2569 49.7361 12.4907 49.689 12.7217 49.6284C12.8998 49.5868 13.0722 49.5216 13.233 49.4346L13.5381 50.3789C13.3381 50.5299 13.1154 50.6482 12.8784 50.7295C12.5786 50.8346 12.2709 50.9158 11.9588 50.9728C11.6313 51.0375 11.299 51.0721 10.965 51.0758ZM24.1072 43.682L19.3113 48.7088L19.4268 48.3377L19.4557 49.5748V50.9521H17.8062V40.3583H19.4557V45.6202L19.3814 47.4181L19.0392 47.1583L22.1485 43.682H24.1072ZM20.1732 47.4717L21.299 46.3666L24.3918 50.9563H22.5031L20.1732 47.4717ZM28.099 51.0758C27.5662 51.0919 27.037 50.9847 26.5526 50.7624C26.1437 50.5656 25.7896 50.271 25.5217 49.9047C25.2547 49.5325 25.0615 49.1125 24.9526 48.6676C24.8326 48.1821 24.7758 47.6831 24.7835 47.1831C24.7726 46.4983 24.9343 45.8219 25.2536 45.2161C25.5385 44.7006 25.9687 44.2804 26.4907 44.0078C27.0322 43.7285 27.6341 43.5869 28.2433 43.5954C28.9374 43.5592 29.6246 43.7487 30.2021 44.1356C30.6889 44.4938 31.0556 44.9914 31.2536 45.5624C31.4722 46.1773 31.5773 46.8272 31.5629 47.48C31.5733 48.1673 31.4117 48.8463 31.0928 49.4552C30.8097 49.9731 30.3791 50.3951 29.8557 50.6676C29.3133 50.948 28.7094 51.0883 28.099 51.0758ZM28.1443 49.9006C28.3963 49.92 28.6487 49.8699 28.8741 49.7558C29.0995 49.6416 29.2893 49.4678 29.4227 49.2532C29.7311 48.6899 29.8741 48.0509 29.8351 47.4099C29.8401 46.964 29.7817 46.5197 29.6619 46.0903C29.5714 45.7315 29.3879 45.4029 29.1299 45.1377C29.0045 45.0175 28.8564 44.9234 28.6943 44.8611C28.5321 44.7988 28.3592 44.7695 28.1856 44.7748C27.9367 44.7549 27.6871 44.8017 27.4624 44.9104C27.2377 45.0192 27.046 45.1859 26.9072 45.3934C26.5972 45.9456 26.4539 46.5758 26.4948 47.2078C26.4889 47.6589 26.5458 48.1085 26.6639 48.5439C26.7579 48.9167 26.9485 49.2577 27.2165 49.5336C27.3389 49.6535 27.484 49.7477 27.6434 49.8107C27.8027 49.8737 27.973 49.9043 28.1443 49.9006ZM33.0928 50.9728V43.6944H34.5278L34.6309 44.6882L34.7629 45.1748V50.9728H33.0928ZM34.6722 45.8222L34.5773 44.6882C34.6749 44.4926 34.816 44.322 34.9897 44.1892C35.2145 44.0082 35.4646 43.8609 35.732 43.7521C36.0134 43.6367 36.3144 43.5765 36.6186 43.5748C36.7559 43.5678 36.8936 43.5678 37.0309 43.5748C37.1217 43.5798 37.2107 43.6053 37.2907 43.649V45.2367C37.198 45.1868 37.0997 45.148 36.9979 45.1212C36.7943 45.0718 36.5847 45.051 36.3753 45.0594C36.1183 45.0547 35.8626 45.0966 35.6206 45.1831C35.4175 45.2521 35.2258 45.3507 35.0515 45.4758C34.9138 45.5781 34.7864 45.6944 34.6722 45.8222ZM40.7299 51.0758C40.3964 51.0841 40.0649 51.0223 39.7567 50.8944C39.4823 50.7672 39.2607 50.5485 39.1299 50.2758C38.9673 49.8946 38.8926 49.4816 38.9113 49.0676V44.8779H37.9876V43.9831C38.3134 43.8923 38.5608 43.8099 38.7423 43.7398C38.8367 43.7048 38.9224 43.6499 38.9936 43.5787C39.0648 43.5075 39.1197 43.4218 39.1546 43.3274C39.1918 43.2284 39.2289 43.113 39.2742 42.981C39.3196 42.849 39.3732 42.7006 39.4268 42.5398L39.6 42.0243H40.6021V43.6738H42.6186V44.8697H40.6021V48.247C40.5922 48.5892 40.6144 48.9315 40.668 49.2697C40.6734 49.3522 40.6977 49.4324 40.7392 49.5039C40.7807 49.5755 40.8382 49.6364 40.9072 49.682C41.0693 49.7476 41.2437 49.7773 41.4186 49.7686C41.5571 49.7674 41.6948 49.7538 41.8309 49.7274C41.9811 49.6993 42.1298 49.6635 42.2763 49.6202C42.3905 49.5859 42.501 49.5406 42.6062 49.4841L42.8619 50.4325C42.6986 50.5571 42.5196 50.6598 42.3299 50.7377C42.0874 50.8396 41.8359 50.9196 41.5794 50.9769C41.3008 51.0417 41.0159 51.0749 40.7299 51.0758ZM44.7175 50.9728V44.8862H43.6742V43.9377L44.7175 43.682V43.0222C44.7035 42.5607 44.7864 42.1013 44.9608 41.6738C45.106 41.3409 45.3279 41.047 45.6082 40.8161C45.8654 40.6054 46.1629 40.4496 46.4825 40.3583C46.783 40.273 47.0937 40.2286 47.4062 40.2264C47.6271 40.2245 47.8478 40.2411 48.066 40.2758C48.2054 40.2936 48.3431 40.3212 48.4784 40.3583V41.5954C48.3441 41.5514 48.206 41.5196 48.066 41.5006C47.8541 41.4726 47.6405 41.4602 47.4268 41.4635C47.2878 41.46 47.1498 41.4883 47.0233 41.5462C46.8968 41.6041 46.7852 41.69 46.6969 41.7975C46.4852 42.0914 46.3844 42.4508 46.4124 42.8119V43.6697H48.1526V44.8738H46.4124V50.9604L44.7175 50.9728ZM50.3711 42.4779C50.1085 42.4833 49.8536 42.389 49.6577 42.214C49.5583 42.128 49.4795 42.0207 49.4274 41.9C49.3753 41.7793 49.3511 41.6484 49.3567 41.5171C49.3555 41.3212 49.4144 41.1295 49.5258 40.9686C49.6309 40.8078 49.772 40.6738 49.9381 40.5769C50.1064 40.48 50.2969 40.4288 50.4907 40.4284C50.6223 40.4151 50.7551 40.4305 50.8801 40.4734C51.0052 40.5163 51.1194 40.5859 51.215 40.6772C51.3107 40.7685 51.3854 40.8794 51.434 41.0023C51.4827 41.1252 51.5041 41.2572 51.4969 41.3892C51.5007 41.5353 51.4724 41.6805 51.414 41.8144C51.3555 41.9484 51.2684 42.0679 51.1588 42.1645C50.9464 42.3665 50.6642 42.4788 50.3711 42.4779ZM49.6247 50.9728V43.6944H51.2742V50.9728H49.6247ZM53.5505 50.9728V40.3295H55.233V50.9728H53.5505ZM57.4474 50.9728V43.6944H58.9691V44.4655C59.181 44.3135 59.4028 44.1757 59.633 44.0532C59.9087 43.9118 60.1973 43.7972 60.4948 43.7109C60.8003 43.6187 61.1162 43.566 61.4351 43.5542C61.8686 43.5206 62.3031 43.6047 62.6928 43.7975C63.0285 44.0005 63.279 44.3185 63.3979 44.6923C63.565 45.2396 63.64 45.8111 63.6206 46.3831V50.9521H61.9711V46.5398C61.9787 46.222 61.9454 45.9047 61.8722 45.5954C61.8498 45.4888 61.8067 45.3876 61.7451 45.2978C61.6835 45.2079 61.6048 45.1311 61.5134 45.0717C61.278 44.9521 61.013 44.9034 60.7505 44.9315C60.4855 44.9463 60.2243 45.0005 59.9753 45.0923C59.6767 45.1958 59.3979 45.3492 59.1505 45.5459V50.9521L57.4474 50.9728ZM63.5382 45.5789L63.2 44.5315C63.4023 44.3718 63.6206 44.2336 63.8515 44.1191C64.145 43.9641 64.453 43.8384 64.7711 43.7439C65.1099 43.6429 65.461 43.5888 65.8144 43.5831C66.2509 43.5588 66.6864 43.6453 67.0804 43.8346C67.4269 44.0276 67.6899 44.3419 67.8186 44.7171C68.0004 45.2602 68.0825 45.8313 68.0619 46.4037V50.981H66.3918V46.5686C66.3988 46.2498 66.367 45.9313 66.2969 45.6202C66.2531 45.4076 66.1271 45.2208 65.9464 45.1006C65.7125 44.981 65.4488 44.9323 65.1876 44.9604C64.9039 44.9731 64.6247 45.0359 64.3629 45.1459C64.0704 45.2541 63.7932 45.3996 63.5382 45.5789ZM72.532 50.9728V43.6944H74.0371V44.4655C74.2492 44.3137 74.471 44.176 74.701 44.0532C74.9779 43.9113 75.2679 43.7967 75.567 43.7109C75.871 43.6185 76.1856 43.5658 76.5031 43.5542C76.9297 43.5244 77.3566 43.6083 77.7402 43.7975C78.0757 44.0007 78.3262 44.3186 78.4454 44.6923C78.6124 45.24 78.6874 45.8111 78.668 46.3831V50.9521H77.0186V46.5398C77.0261 46.222 76.9928 45.9047 76.9196 45.5954C76.8973 45.4888 76.8541 45.3876 76.7925 45.2978C76.7309 45.2079 76.6522 45.1311 76.5608 45.0717C76.3269 44.9522 76.0632 44.9034 75.8021 44.9315C75.5357 44.9459 75.273 45.0001 75.0227 45.0923C74.7169 45.1937 74.4309 45.3472 74.1773 45.5459V50.9521L72.532 50.9728ZM78.6227 45.5789L78.2845 44.5315C78.4878 44.3712 78.7076 44.2329 78.9402 44.1191C79.2333 43.9633 79.5414 43.8376 79.8598 43.7439C80.1985 43.6425 80.5496 43.5884 80.9031 43.5831C81.3382 43.5588 81.7724 43.6453 82.165 43.8346C82.5036 44.0288 82.7601 44.3395 82.8866 44.7088C83.068 45.2519 83.1505 45.8231 83.1299 46.3954V50.9728H81.4557V46.5604C81.4618 46.2418 81.4314 45.9236 81.365 45.6119C81.3209 45.3994 81.195 45.2128 81.0144 45.0923C80.7789 44.9732 80.514 44.9245 80.2516 44.9521C79.9679 44.965 79.6887 45.0279 79.4268 45.1377C79.1411 45.25 78.8709 45.3982 78.6227 45.5789ZM88.1402 51.0758C87.6795 51.1044 87.2182 51.0296 86.7901 50.8569C86.3621 50.6843 85.978 50.4181 85.666 50.0779C85.0491 49.2939 84.741 48.3109 84.8 47.315C84.7906 46.6608 84.9228 46.0123 85.1876 45.414C85.4338 44.8725 85.8303 44.4131 86.3299 44.0903C86.8822 43.7505 87.5208 43.5772 88.1691 43.5913C88.5255 43.5811 88.881 43.6313 89.2206 43.7398C89.5447 43.8478 89.8433 44.0202 90.099 44.247C90.364 44.4918 90.5723 44.7916 90.7093 45.1253C90.8722 45.5274 90.9546 45.9575 90.9526 46.3913V47.1253C90.9509 47.3178 90.9316 47.5096 90.8948 47.6985H85.7402L85.868 46.7047H89.3897C89.4118 46.379 89.391 46.0518 89.3278 45.7315C89.278 45.4585 89.1422 45.2085 88.9402 45.0181C88.7006 44.8226 88.395 44.7266 88.0866 44.7501C87.7741 44.7444 87.4679 44.8382 87.2124 45.0181C86.9218 45.254 86.7162 45.5784 86.6268 45.9418C86.4705 46.5247 86.412 47.1295 86.4536 47.7315C86.4527 48.1636 86.5605 48.5891 86.767 48.9686C86.9393 49.2614 87.2009 49.4912 87.5134 49.6243C87.8454 49.7611 88.2018 49.8285 88.5608 49.8222C88.7736 49.8202 88.9856 49.802 89.1959 49.7686C89.4308 49.7359 89.6635 49.6891 89.8928 49.6284C90.0713 49.5876 90.2433 49.5224 90.4041 49.4346L90.7134 50.3789C90.5119 50.5299 90.2878 50.6482 90.0495 50.7295C89.7497 50.835 89.4425 50.9163 89.1299 50.9728C88.8037 51.0375 88.4726 51.0721 88.1402 51.0758ZM95.0433 51.0758C94.5281 51.0824 94.0218 50.9419 93.5836 50.6709C93.1454 50.4 92.7934 50.0097 92.5691 49.5459C92.2767 48.9355 92.1352 48.2637 92.1567 47.5872C92.1398 46.8619 92.2982 46.1433 92.6186 45.4923C92.9032 44.912 93.3483 44.4254 93.901 44.0903C94.4854 43.7476 95.1537 43.5748 95.8309 43.5913C96.212 43.581 96.5922 43.6325 96.9567 43.7439C97.161 43.7997 97.3546 43.8889 97.5299 44.0078L97.0144 45.0676C96.8692 44.9538 96.6976 44.8786 96.5155 44.849C96.2692 44.805 96.0193 44.7842 95.7691 44.7872C95.4304 44.7852 95.0993 44.8874 94.8206 45.08C94.5166 45.3063 94.2823 45.6135 94.1443 45.9666C93.9617 46.4311 93.8734 46.9273 93.8845 47.4264C93.8218 48.052 93.9667 48.6809 94.2969 49.2161C94.4428 49.4019 94.6316 49.5495 94.847 49.6465C95.0625 49.7434 95.2982 49.7868 95.534 49.7728C95.8331 49.7773 96.1296 49.7183 96.4041 49.5996C96.6212 49.5117 96.8263 49.3967 97.0144 49.2573L97.2619 50.082C97.1588 50.1892 97.0186 50.3212 96.8495 50.4944C96.639 50.6679 96.4024 50.8071 96.1485 50.9068C95.7946 51.0346 95.4192 51.092 95.0433 51.0758ZM97.1052 50.9728V50.0243L97.0062 49.9624V44.8779L97.0598 44.8408L97.0062 43.2614V40.3295H98.6557V50.9728H97.1052ZM105.567 51.0758C105.066 51.0812 104.573 50.9501 104.14 50.6965C103.685 50.4193 103.321 50.0151 103.093 49.5336C102.8 48.9231 102.659 48.2513 102.68 47.5748C102.664 46.85 102.821 46.1318 103.138 45.48C103.424 44.9005 103.869 44.4143 104.421 44.0779C105.007 43.7356 105.676 43.5629 106.355 43.5789C106.736 43.5686 107.116 43.6202 107.48 43.7315C107.685 43.7874 107.878 43.8765 108.054 43.9954L107.538 45.0552C107.392 44.9407 107.219 44.8655 107.035 44.8367C106.79 44.7926 106.542 44.7719 106.293 44.7748C105.954 44.7727 105.623 44.8749 105.344 45.0676C105.039 45.2925 104.804 45.6002 104.668 45.9542C104.485 46.4187 104.397 46.915 104.408 47.414C104.347 48.0395 104.492 48.6679 104.821 49.2037C104.967 49.3889 105.156 49.5361 105.371 49.633C105.587 49.7299 105.822 49.7736 106.058 49.7604C106.357 49.7645 106.653 49.7055 106.928 49.5872C107.145 49.4993 107.35 49.3843 107.538 49.2449L107.786 50.0697C107.682 50.1769 107.538 50.3088 107.373 50.482C107.162 50.6563 106.924 50.7956 106.668 50.8944C106.317 51.0266 105.942 51.0883 105.567 51.0758ZM107.629 50.9728V50.0243L107.53 49.9624V44.8779L107.584 44.8408L107.53 43.2614V40.3295H109.179V50.9728H107.629ZM114.227 51.0758C113.766 51.1041 113.305 51.0291 112.877 50.8565C112.449 50.6838 112.065 50.4178 111.753 50.0779C111.136 49.2939 110.828 48.3109 110.887 47.315C110.883 46.6587 111.023 46.0096 111.299 45.414C111.543 44.8727 111.939 44.4131 112.437 44.0903C112.991 43.7499 113.631 43.5766 114.28 43.5913C114.635 43.5812 114.99 43.6314 115.328 43.7398C115.652 43.8478 115.951 44.0202 116.206 44.247C116.471 44.4918 116.68 44.7916 116.816 45.1253C116.979 45.5274 117.062 45.9575 117.06 46.3913V47.1253C117.06 47.3179 117.041 47.5101 117.002 47.6985H111.806L111.934 46.7047H115.464C115.49 46.379 115.469 46.0512 115.402 45.7315C115.354 45.4588 115.219 45.2088 115.019 45.0181C114.777 44.8255 114.473 44.7299 114.165 44.7501C113.852 44.7431 113.546 44.8371 113.291 45.0181C112.999 45.2536 112.792 45.5779 112.701 45.9418C112.545 46.5247 112.486 47.1295 112.528 47.7315C112.527 48.1636 112.635 48.5891 112.841 48.9686C113.014 49.2614 113.275 49.4912 113.588 49.6243C113.92 49.7604 114.276 49.828 114.635 49.8222C114.848 49.8202 115.06 49.802 115.27 49.7686C115.506 49.7356 115.74 49.689 115.971 49.6284C116.148 49.588 116.319 49.5224 116.478 49.4346L116.788 50.3789C116.587 50.5289 116.364 50.6471 116.128 50.7295C115.828 50.8346 115.52 50.9158 115.208 50.9728C114.885 51.0367 114.556 51.0713 114.227 51.0758ZM120.862 54.1068V52.7666C120.971 52.8 121.082 52.8218 121.196 52.8325C121.309 52.8499 121.424 52.8594 121.538 52.8614C121.766 52.8544 121.991 52.8069 122.202 52.7212C122.492 52.5996 122.741 52.3979 122.92 52.1398C123.195 51.7341 123.375 51.2719 123.447 50.7872L123.538 50.9728H122.833L120.247 43.682H122.033L123.468 48.2181L124.07 50.3253H123.711L124.247 48.2181L125.452 43.682H127.241L124.849 51.1831C124.641 51.9117 124.292 52.5925 123.823 53.1872C123.485 53.6067 123.032 53.9178 122.52 54.082C122.386 54.1266 122.247 54.1583 122.107 54.1769C121.971 54.202 121.833 54.2161 121.695 54.2181C121.603 54.2226 121.511 54.2226 121.419 54.2181L121.072 54.1769C120.999 54.1637 120.928 54.1401 120.862 54.1068ZM128.388 50.9728V43.6944H129.897V44.4779C130.111 44.3265 130.334 44.1887 130.565 44.0655C130.844 43.9249 131.135 43.809 131.435 43.7191C131.744 43.6235 132.064 43.5694 132.388 43.5583C132.695 43.5209 133.007 43.5563 133.299 43.6615C133.591 43.7668 133.853 43.9391 134.066 44.1645C134.412 44.588 134.586 45.3332 134.586 46.3996V50.9563H132.903V46.5439C132.938 46.1054 132.855 45.6656 132.664 45.2697C132.503 45.014 132.173 44.9026 131.666 44.9274C131.497 44.9367 131.33 44.963 131.167 45.0057C130.971 45.0602 130.779 45.129 130.594 45.2119C130.398 45.3042 130.213 45.4176 130.041 45.5501V50.9563L128.388 50.9728ZM139.423 54.2717C138.596 54.3163 137.774 54.1261 137.052 53.7233C136.783 53.5522 136.565 53.3126 136.42 53.0292C136.275 52.7457 136.208 52.4287 136.227 52.1109C136.221 51.8594 136.289 51.6116 136.421 51.3975C136.546 51.1884 136.713 51.0073 136.911 50.8655C137.098 50.7224 137.307 50.6111 137.53 50.5356L138.548 50.6635L138.26 50.915C138.144 51.0164 138.048 51.1379 137.975 51.2738C137.887 51.4575 137.846 51.6601 137.856 51.8635C137.85 52.1109 137.905 52.3558 138.016 52.5769C138.131 52.7892 138.314 52.9567 138.536 53.0511C138.842 53.1797 139.173 53.2388 139.505 53.2243C139.845 53.2276 140.183 53.186 140.511 53.1006C140.781 53.0392 141.033 52.9148 141.245 52.7377C141.334 52.6621 141.405 52.5678 141.453 52.4615C141.5 52.3553 141.524 52.2397 141.522 52.1233C141.528 51.9077 141.481 51.6938 141.386 51.5006C141.277 51.305 141.099 51.1576 140.887 51.0882C140.539 50.9794 140.174 50.9319 139.81 50.948H138.928C138.705 50.948 138.515 50.948 138.338 50.9233C138.183 50.9089 138.028 50.8841 137.876 50.849C137.819 50.8357 137.764 50.8119 137.715 50.7789C137.666 50.7477 137.611 50.724 137.555 50.7088C137.28 50.6314 137.042 50.459 136.882 50.2222C136.761 50.0223 136.696 49.7925 136.697 49.5583C136.705 49.3769 136.75 49.1983 136.829 49.0346C136.922 48.8424 137.047 48.668 137.2 48.5191C137.38 48.3434 137.586 48.196 137.81 48.082L138.812 48.3006C138.651 48.3714 138.51 48.4804 138.4 48.6181C138.288 48.7464 138.226 48.9099 138.223 49.08C138.211 49.1739 138.222 49.2694 138.256 49.3579C138.29 49.4464 138.345 49.5252 138.417 49.5872C138.62 49.6949 138.851 49.7421 139.08 49.7233H140.388C140.854 49.7109 141.32 49.769 141.769 49.8965C142.076 49.9855 142.359 50.1451 142.594 50.3624C142.784 50.5418 142.925 50.7657 143.006 51.014C143.083 51.2538 143.122 51.5043 143.122 51.7563C143.128 52.1316 143.026 52.5008 142.829 52.8202C142.625 53.1426 142.35 53.4136 142.025 53.6119C141.66 53.8341 141.262 53.997 140.845 54.0944C140.38 54.211 139.902 54.2706 139.423 54.2717ZM139.357 48.4985C138.837 48.5066 138.321 48.4055 137.843 48.2016C137.422 48.0292 137.057 47.7438 136.788 47.3769C136.53 47.0073 136.396 46.5656 136.404 46.115C136.385 45.6232 136.519 45.1376 136.788 44.7253C137.049 44.3507 137.417 44.0634 137.843 43.9006C138.332 43.7109 138.853 43.6144 139.377 43.6161C139.902 43.6003 140.426 43.6842 140.92 43.8635C141.351 44.0202 141.727 44.298 142.004 44.6635C142.288 45.0653 142.433 45.549 142.416 46.0408C142.44 46.5123 142.312 46.9789 142.051 47.3727C141.791 47.7665 141.412 48.067 140.969 48.2305C140.454 48.4226 139.906 48.5109 139.357 48.4903V48.4985ZM139.381 47.4717C139.745 47.4911 140.104 47.3896 140.404 47.1831C140.549 47.0398 140.658 46.8653 140.725 46.673C140.791 46.4807 140.813 46.2757 140.788 46.0738C140.817 45.6926 140.699 45.3148 140.458 45.0181C140.324 44.8903 140.165 44.7922 139.991 44.7304C139.817 44.6685 139.632 44.6443 139.447 44.6593C139.204 44.6568 138.961 44.6944 138.73 44.7707C138.518 44.8462 138.337 44.9916 138.219 45.1831C138.074 45.4769 138.01 45.8036 138.033 46.1301C138.055 46.4566 138.163 46.7715 138.346 47.0429C138.471 47.193 138.631 47.3106 138.811 47.3853C138.991 47.46 139.187 47.4897 139.381 47.4717ZM141.575 44.9191L141.196 44.2387C141.354 44.075 141.543 43.9446 141.753 43.8552C142.046 43.7147 142.368 43.6441 142.693 43.649H143.464V44.9191H141.575ZM144.297 50.5274L144.507 49.315C144.636 49.4 144.774 49.4692 144.92 49.5212C145.163 49.6189 145.414 49.6973 145.67 49.7563C145.966 49.8267 146.269 49.864 146.573 49.8676C146.897 49.8934 147.221 49.8232 147.505 49.6655C147.603 49.6051 147.684 49.52 147.739 49.4187C147.794 49.3174 147.821 49.2034 147.819 49.0882C147.819 49.0015 147.803 48.9154 147.769 48.8353C147.736 48.7552 147.687 48.6827 147.625 48.6222C147.469 48.472 147.289 48.3493 147.093 48.2594C146.87 48.148 146.614 48.0325 146.334 47.9088C145.953 47.7496 145.589 47.5505 145.249 47.315C144.965 47.1207 144.727 46.8658 144.553 46.5686C144.385 46.2575 144.304 45.9073 144.318 45.5542C144.311 45.1545 144.447 44.7656 144.701 44.4573C144.965 44.155 145.305 43.9298 145.687 43.8057C146.13 43.6568 146.596 43.5843 147.064 43.5913C147.489 43.5829 147.913 43.6315 148.326 43.7356C148.571 43.7909 148.809 43.8739 149.035 43.9831L148.821 45.2202C148.704 45.1358 148.576 45.0678 148.441 45.0181C148.255 44.9415 148.062 44.8848 147.864 44.849C147.646 44.8079 147.426 44.7871 147.204 44.7872C146.866 44.767 146.528 44.8292 146.219 44.9686C146.121 45.0133 146.039 45.0847 145.98 45.1745C145.922 45.2643 145.89 45.3688 145.889 45.4758C145.878 45.6035 145.903 45.7316 145.958 45.8468C146.014 45.9621 146.1 46.0604 146.206 46.1315C146.468 46.3026 146.744 46.4503 147.031 46.5728C147.454 46.767 147.867 46.9831 148.268 47.2202C148.588 47.4049 148.869 47.6516 149.093 47.9459C149.299 48.2383 149.405 48.5901 149.394 48.948C149.413 49.2519 149.356 49.5558 149.23 49.8327C149.103 50.1096 148.91 50.3511 148.668 50.5356C148.086 50.9258 147.392 51.1154 146.693 51.0758C146.353 51.0783 146.013 51.0507 145.678 50.9934C145.388 50.9468 145.101 50.8779 144.821 50.7872C144.635 50.7245 144.459 50.6371 144.297 50.5274ZM153.188 51.0758C152.853 51.0836 152.52 51.0219 152.21 50.8944C151.937 50.7671 151.717 50.5483 151.588 50.2758C151.421 49.8956 151.345 49.4821 151.365 49.0676V44.8779H150.445V43.9831C150.767 43.8923 151.019 43.8099 151.196 43.7398C151.29 43.7048 151.376 43.6499 151.447 43.5787C151.518 43.5075 151.573 43.4218 151.608 43.3274C151.644 43.2284 151.685 43.113 151.732 42.981L151.88 42.5398L152.054 42.0243H153.056V43.6738H155.052V44.8697H153.035V48.247C153.025 48.5892 153.047 48.9315 153.101 49.2697C153.107 49.3524 153.132 49.4327 153.175 49.5042C153.217 49.5757 153.275 49.6365 153.344 49.682C153.505 49.7476 153.678 49.7773 153.852 49.7686C153.99 49.7674 154.128 49.7538 154.264 49.7274C154.414 49.6993 154.563 49.6635 154.709 49.6202C154.824 49.5868 154.934 49.5414 155.039 49.4841L155.295 50.4325C155.133 50.5571 154.956 50.6597 154.767 50.7377C154.523 50.8395 154.27 50.9196 154.012 50.9769C153.742 51.0401 153.465 51.0732 153.188 51.0758ZM159.588 51.0758C159.127 51.1044 158.666 51.0296 158.238 50.8569C157.809 50.6843 157.425 50.4181 157.113 50.0779C156.497 49.2939 156.188 48.3109 156.247 47.315C156.235 46.6606 156.368 46.0115 156.635 45.414C156.881 44.8725 157.278 44.4131 157.777 44.0903C158.329 43.7497 158.968 43.5764 159.617 43.5913C159.973 43.5811 160.328 43.6313 160.668 43.7398C160.992 43.8478 161.291 44.0202 161.546 44.247C161.811 44.4918 162.02 44.7916 162.157 45.1253C162.32 45.5274 162.402 45.9575 162.4 46.3913V47.1253C162.398 47.3178 162.379 47.5096 162.342 47.6985H157.196L157.328 46.7047H160.849C160.872 46.379 160.851 46.0518 160.788 45.7315C160.738 45.4585 160.602 45.2085 160.4 45.0181C160.16 44.8226 159.855 44.7266 159.546 44.7501C159.234 44.7444 158.928 44.8382 158.672 45.0181C158.382 45.254 158.176 45.5784 158.087 45.9418C157.931 46.5248 157.871 47.1293 157.909 47.7315C157.911 48.1638 158.021 48.5888 158.227 48.9686C158.398 49.261 158.658 49.4909 158.969 49.6243C159.301 49.7604 159.658 49.8276 160.017 49.8222C160.229 49.8203 160.441 49.8024 160.652 49.7686C160.888 49.7364 161.122 49.6895 161.353 49.6284C161.531 49.5867 161.703 49.5216 161.864 49.4346L162.173 50.3789C161.971 50.529 161.747 50.647 161.509 50.7295C161.209 50.835 160.902 50.9163 160.59 50.9728C160.259 51.0383 159.924 51.0725 159.588 51.0758Z" fill="#5E2779"/>
</g>
</g>
<defs>
<clipPath id="clip0_1012_1274">
<rect width="200" height="54.53" fill="white"/>
</clipPath>
<clipPath id="clip1_1012_1274">
<rect width="200" height="54.433" fill="white" transform="translate(0 0.0488281)"/>
</clipPath>
</defs>
</svg>
