<svg width="200" height="55" viewBox="0 0 200 55" fill="none" xmlns="http://www.w3.org/2000/svg">
<path d="M5.8433 13.4021V6.39175H6.63505C9.32784 6.39175 10.466 7.44742 10.466 9.83918C10.466 12.2309 9.62062 13.4021 6.83299 13.4021H5.8433ZM5.8433 26.0907V17.901H7.10515C9.66598 17.901 11.3897 19.0268 11.3897 21.8928C11.3897 24.5402 10.8247 26.0907 7.31134 26.0907H5.8433ZM17.3031 22.268C17.3031 18.6557 15.6536 16.6763 12.3876 15.5464C15.4103 14.6186 16.3175 11.8021 16.3175 9.41031C16.3175 5.20412 13.8433 1.71959 8.70928 1.71959H0V30.7588H9.20412C15.4268 30.7588 17.299 26.3835 17.299 22.268H17.3031ZM34.0041 0L33.1175 2.18557C31.7501 1.66291 30.2968 1.40134 28.833 1.41443C23.0309 1.41443 18.7423 5.0268 18.7423 11.9629V20.5526C18.7423 24.3381 20.0041 27.1052 22.066 28.8289L20.7629 31.9835H23.4474L24.2103 30.1773C25.6867 30.7877 27.2728 31.0881 28.8701 31.0598C34.6722 31.0598 38.9608 27.6124 38.9608 20.5072V11.9258C38.9608 8.01237 37.5711 5.16701 35.3031 3.38969L36.6928 0.0123711L34.0041 0ZM32.701 9.65773C32.7361 10.0318 32.7485 10.4082 32.7381 10.7835V21.7237C32.7381 25.2536 31.3567 26.2598 28.833 26.2598C27.8666 26.3429 26.9045 26.0571 26.1402 25.4598L32.701 9.65773ZM24.9773 21.8227V10.7546C24.9773 7.34845 26.3629 6.21856 28.8825 6.21856C29.6928 6.18438 30.4963 6.38024 31.2 6.78351L24.9773 21.8227ZM47.1546 13.4186V6.42474H48.8948C51.7814 6.42474 53.101 7.43505 53.101 9.65773C53.101 11.8804 52.1938 13.4021 48.8948 13.4021L47.1546 13.4186ZM54.0907 17.2412C56.7753 16.2351 58.7546 13.2124 58.7546 9.81856C58.7546 5.61237 56.2804 1.74845 50.6845 1.74845H41.2825V30.7876H47.1546V18.1485H48.4165L52.7835 30.7588H59.4845L54.0907 17.2412ZM66.6144 30.7546V12.0165L73.3897 30.7588H80.6474V1.71959H75.233V20.4165L68.3794 1.71959H61.1505V30.7588L66.6144 30.7546ZM97.5052 25.9175H89.6124V18.0206H96.8783V13.233H89.6041V6.56495H97.0845V1.71959H83.5711V30.7588H97.4433L97.5052 25.9175ZM105.839 13.4186V6.40825H106.627C109.32 6.40825 110.449 7.46392 110.449 9.85567C110.449 12.2474 109.625 13.4309 106.825 13.4309L105.839 13.4186ZM105.839 26.1113V17.901H107.101C109.662 17.901 111.386 19.0268 111.386 21.8928C111.386 24.5402 110.821 26.0907 107.307 26.0907L105.839 26.1113ZM117.27 22.2845C117.27 18.6722 115.621 16.6969 112.355 15.5629C115.381 14.6351 116.293 11.8186 116.293 9.4268C116.293 5.22062 113.819 1.73608 108.689 1.73608H99.9835V30.7753H109.188C115.406 30.7753 117.254 26.4 117.254 22.2845H117.27ZM119.361 30.7753H125.369V1.71959H119.361V30.7753ZM144.07 6.56495V1.71959H128.73V30.7588H134.742V18.0619H142.165V13.233H134.742V6.56495H144.07ZM161.724 6.56495V1.71959H146.379V30.7588H152.4V18.0619H159.823V13.233H152.4V6.56495H161.724ZM177.905 25.9464H170.025V18.0412H177.315V13.233H170.045V6.56495H177.53V1.71959H164.016V30.7588H177.885L177.905 25.9464ZM185.427 30.7835V12.0165L192.235 30.7588H199.509V1.71959H194.091V20.4165L187.233 1.71959H180.029V30.7588L185.427 30.7835ZM2.98969 50.9938C2.57545 50.9952 2.16176 50.9635 1.75258 50.899C1.41649 50.847 1.08454 50.7711 0.758763 50.6722C0.551225 50.6112 0.35078 50.5282 0.160825 50.4247L0.478351 49.0515C0.678351 49.1637 0.888247 49.2573 1.10515 49.332C1.37443 49.4276 1.6499 49.5047 1.9299 49.5629C2.23293 49.6217 2.5408 49.6521 2.84948 49.6536C3.30005 49.6817 3.7496 49.5847 4.14845 49.3732C4.29721 49.2731 4.41654 49.1351 4.49411 48.9734C4.57168 48.8117 4.60468 48.6323 4.58969 48.4536C4.59807 48.195 4.51969 47.9409 4.36701 47.732C4.17311 47.5051 3.93981 47.3151 3.67835 47.1711C3.36907 46.9938 2.98144 46.7918 2.51134 46.5691C2.10494 46.3728 1.7183 46.1381 1.3567 45.868C1.00814 45.6056 0.709288 45.283 0.474227 44.9155C0.258407 44.5414 0.138328 44.1198 0.124659 43.6882C0.11099 43.2565 0.204156 42.8282 0.395876 42.4412C0.574845 42.1217 0.82978 41.8512 1.13814 41.6536C1.46352 41.4451 1.82185 41.2931 2.19794 41.2041C3.11029 41.0081 4.0554 41.0237 4.96082 41.2495C5.26103 41.327 5.55052 41.4421 5.82268 41.5918L5.50928 42.9196C5.25167 42.7574 4.97455 42.6286 4.68454 42.5361C4.28487 42.4091 3.86661 42.3505 3.44742 42.3629C3.15681 42.3591 2.8674 42.4009 2.58969 42.4866C2.35673 42.5497 2.14469 42.6735 1.97526 42.8454C1.89742 42.9261 1.8368 43.0219 1.79711 43.1268C1.75741 43.2317 1.73945 43.3436 1.74433 43.4557C1.73608 43.7052 1.80041 43.9518 1.9299 44.1649C2.08412 44.3918 2.28866 44.5794 2.52784 44.7134C2.8 44.8825 3.15464 45.0804 3.59588 45.3113C3.94227 45.4804 4.27216 45.6619 4.59381 45.8515C4.90211 46.0351 5.1921 46.2477 5.45979 46.4866C5.70957 46.7109 5.91396 46.9811 6.06186 47.2825C6.21485 47.6012 6.29113 47.9518 6.28454 48.3052C6.30278 48.8319 6.15884 49.3515 5.87216 49.7938C5.58644 50.1967 5.18951 50.5077 4.7299 50.6887C4.17542 50.9034 3.58415 51.0071 2.98969 50.9938ZM10.7876 50.9938C10.3268 51.0232 9.86531 50.9488 9.43709 50.7761C9.00888 50.6033 8.62488 50.3367 8.3134 49.9959C7.69654 49.2118 7.38844 48.2289 7.44742 47.233C7.43563 46.5786 7.56797 45.9295 7.83505 45.332C8.08082 44.7915 8.47565 44.3323 8.9732 44.0082C9.52674 43.6678 10.1668 43.4946 10.8165 43.5093C11.1729 43.499 11.5284 43.5492 11.868 43.6577C12.1903 43.7669 12.4875 43.9394 12.7423 44.1649C13.0087 44.4094 13.2184 44.7092 13.3567 45.0433C13.5179 45.4458 13.5992 45.8759 13.5959 46.3093V47.0433C13.595 47.236 13.5743 47.4281 13.534 47.6165H8.38763L8.51959 46.6227H12.0412C12.0641 46.2968 12.0419 45.9693 11.9753 45.6495C11.9269 45.3768 11.7925 45.1268 11.5918 44.9361C11.3521 44.7405 11.0465 44.6446 10.7381 44.668C10.4256 44.6619 10.1193 44.7558 9.86392 44.9361C9.5721 45.1716 9.36507 45.4959 9.27423 45.8598C9.12165 46.4433 9.06392 47.0474 9.10103 47.6495C9.10204 48.0814 9.2097 48.5063 9.41443 48.8866C9.58802 49.1783 9.84922 49.4077 10.1608 49.5423C10.4928 49.6783 10.8495 49.746 11.2082 49.7402C11.421 49.7381 11.633 49.7204 11.8433 49.6866C12.0796 49.654 12.3134 49.607 12.5443 49.5464C12.7225 49.5047 12.8948 49.4396 13.0557 49.3526L13.3608 50.2969C13.1608 50.4478 12.9381 50.5661 12.701 50.6474C12.4012 50.7526 12.0936 50.8338 11.7814 50.8907C11.454 50.9555 11.1216 50.9901 10.7876 50.9938ZM23.9299 43.6L19.134 48.6268L19.2495 48.2557L19.2784 49.4928V50.8701H17.6289V40.2763H19.2784V45.5381L19.2041 47.3361L18.8619 47.0763L21.9711 43.6H23.9299ZM19.9959 47.3897L21.1216 46.2845L24.2144 50.8742H22.3258L19.9959 47.3897ZM27.9216 50.9938C27.3889 51.0099 26.8597 50.9026 26.3753 50.6804C25.9664 50.4836 25.6123 50.189 25.3443 49.8227C25.0774 49.4504 24.8842 49.0305 24.7753 48.5856C24.6553 48.1001 24.5985 47.6011 24.6062 47.101C24.5953 46.4163 24.757 45.7398 25.0763 45.134C25.3612 44.6186 25.7914 44.1984 26.3134 43.9258C26.8549 43.6465 27.4568 43.5049 28.066 43.5134C28.7601 43.4772 29.4473 43.6667 30.0247 44.0536C30.5116 44.4118 30.8783 44.9093 31.0763 45.4804C31.2948 46.0953 31.4 46.7452 31.3856 47.3979C31.3959 48.0852 31.2343 48.7642 30.9155 49.3732C30.6324 49.891 30.2018 50.313 29.6784 50.5856C29.136 50.8659 28.5321 51.0063 27.9216 50.9938ZM27.967 49.8186C28.2189 49.838 28.4714 49.7879 28.6968 49.6737C28.9222 49.5596 29.112 49.3857 29.2454 49.1711C29.5538 48.6079 29.6968 47.9689 29.6577 47.3278C29.6627 46.882 29.6044 46.4377 29.4845 46.0082C29.3941 45.6495 29.2106 45.3209 28.9526 45.0557C28.8272 44.9354 28.6791 44.8414 28.517 44.7791C28.3548 44.7168 28.1819 44.6875 28.0082 44.6928C27.7594 44.6729 27.5098 44.7197 27.285 44.8284C27.0603 44.9371 26.8687 45.1039 26.7299 45.3113C26.4199 45.8635 26.2766 46.4938 26.3175 47.1258C26.3116 47.5768 26.3685 48.0265 26.4866 48.4619C26.5806 48.8346 26.7711 49.1757 27.0392 49.4515C27.1616 49.5714 27.3067 49.6657 27.4661 49.7287C27.6254 49.7917 27.7957 49.8223 27.967 49.8186ZM32.9155 50.8907V43.6124H34.3505L34.4536 44.6062L34.5856 45.0928V50.8907H32.9155ZM34.4948 45.7402L34.4 44.6062C34.4976 44.4106 34.6387 44.2399 34.8124 44.1072C35.0372 43.9262 35.2873 43.7789 35.5546 43.6701C35.836 43.5546 36.1371 43.4944 36.4412 43.4928C36.5786 43.4858 36.7162 43.4858 36.8536 43.4928C36.9443 43.4977 37.0334 43.5233 37.1134 43.567V45.1546C37.0207 45.1047 36.9224 45.066 36.8206 45.0392C36.6169 44.9898 36.4074 44.969 36.1979 44.9773C35.941 44.9726 35.6853 45.0146 35.4433 45.101C35.2402 45.17 35.0484 45.2687 34.8742 45.3938C34.7365 45.4961 34.6091 45.6124 34.4948 45.7402ZM40.5526 50.9938C40.2191 51.002 39.8875 50.9402 39.5794 50.8124C39.305 50.6852 39.0834 50.4665 38.9526 50.1938C38.79 49.8126 38.7153 49.3996 38.734 48.9856V44.7959H37.8103V43.901C38.1361 43.8103 38.3835 43.7278 38.5649 43.6577C38.6594 43.6228 38.7451 43.5679 38.8163 43.4967C38.8875 43.4255 38.9424 43.3398 38.9773 43.2454C39.0144 43.1464 39.0515 43.0309 39.0969 42.899C39.1423 42.767 39.1959 42.6186 39.2495 42.4577L39.4227 41.9423H40.4247V43.5918H42.4412V44.7876H40.4247V48.1649C40.4148 48.5072 40.4371 48.8495 40.4907 49.1876C40.496 49.2702 40.5204 49.3503 40.5619 49.4219C40.6034 49.4934 40.6609 49.5544 40.7299 49.6C40.892 49.6656 41.0664 49.6953 41.2412 49.6866C41.3798 49.6854 41.5175 49.6718 41.6536 49.6454C41.8038 49.6173 41.9524 49.5815 42.099 49.5381C42.2132 49.5039 42.3237 49.4586 42.4289 49.4021L42.6845 50.3505C42.5212 50.4751 42.3423 50.5777 42.1526 50.6557C41.9101 50.7575 41.6586 50.8375 41.4021 50.8948C41.1235 50.9597 40.8386 50.9929 40.5526 50.9938ZM44.5402 50.8907V44.8041H43.4969V43.8557L44.5402 43.6V42.9402C44.5262 42.4787 44.6091 42.0193 44.7835 41.5918C44.9287 41.2588 45.1506 40.9649 45.4309 40.734C45.688 40.5234 45.9856 40.3676 46.3052 40.2763C46.6057 40.191 46.9164 40.1466 47.2289 40.1443C47.4498 40.1425 47.6705 40.1591 47.8887 40.1938C48.028 40.2115 48.1658 40.2392 48.301 40.2763V41.5134C48.1667 41.4693 48.0287 41.4376 47.8887 41.4186C47.6768 41.3905 47.4632 41.3781 47.2495 41.3814C47.1104 41.378 46.9724 41.4063 46.846 41.4642C46.7195 41.5221 46.6079 41.608 46.5196 41.7155C46.3079 42.0094 46.2071 42.3688 46.2351 42.7299V43.5876H47.9753V44.7918H46.2351V50.8783L44.5402 50.8907ZM50.1938 42.3959C49.9312 42.4012 49.6763 42.3069 49.4804 42.132C49.381 42.046 49.3022 41.9387 49.2501 41.818C49.198 41.6973 49.1738 41.5664 49.1794 41.4351C49.1781 41.2392 49.2371 41.0474 49.3485 40.8866C49.4536 40.7258 49.5946 40.5918 49.7608 40.4948C49.9291 40.3979 50.1196 40.3468 50.3134 40.3464C50.4449 40.3331 50.5778 40.3484 50.7028 40.3914C50.8279 40.4343 50.9421 40.5038 51.0377 40.5951C51.1333 40.6864 51.208 40.7974 51.2567 40.9203C51.3054 41.0432 51.3268 41.1752 51.3196 41.3072C51.3234 41.4533 51.2951 41.5984 51.2366 41.7324C51.1782 41.8664 51.0911 41.9859 50.9814 42.0825C50.7691 42.2845 50.4869 42.3968 50.1938 42.3959ZM49.4474 50.8907V43.6124H51.0969V50.8907H49.4474ZM53.3732 50.8907V40.2474H55.0557V50.8907H53.3732ZM57.2701 50.8907V43.6124H58.7918V44.3835C59.0036 44.2314 59.2254 44.0937 59.4557 43.9711C59.7314 43.8298 60.02 43.7151 60.3175 43.6289C60.6229 43.5367 60.9389 43.484 61.2577 43.4722C61.6912 43.4386 62.1258 43.5226 62.5155 43.7155C62.8511 43.9185 63.1017 44.2365 63.2206 44.6103C63.3876 45.1575 63.4627 45.7291 63.4433 46.301V50.8701H61.7938V46.4577C61.8014 46.14 61.7681 45.8226 61.6948 45.5134C61.6725 45.4068 61.6293 45.3056 61.5678 45.2157C61.5062 45.1258 61.4275 45.049 61.3361 44.9897C61.1007 44.8701 60.8357 44.8214 60.5732 44.8495C60.3082 44.8643 60.0469 44.9185 59.7979 45.0103C59.4994 45.1138 59.2206 45.2672 58.9732 45.4639V50.8701L57.2701 50.8907ZM63.3608 45.4969L63.0227 44.4495C63.225 44.2898 63.4433 44.1516 63.6742 44.0371C63.9677 43.8821 64.2757 43.7564 64.5938 43.6619C64.9326 43.5609 65.2836 43.5068 65.6371 43.501C66.0736 43.4767 66.5091 43.5633 66.9031 43.7526C67.2496 43.9456 67.5125 44.2599 67.6412 44.6351C67.8231 45.1781 67.9052 45.7493 67.8845 46.3217V50.899H66.2144V46.4866C66.2215 46.1678 66.1897 45.8493 66.1196 45.5381C66.0758 45.3255 65.9498 45.1388 65.7691 45.0186C65.5352 44.899 65.2715 44.8503 65.0103 44.8783C64.7266 44.8911 64.4474 44.9539 64.1856 45.0639C63.8931 45.172 63.6159 45.3176 63.3608 45.4969ZM72.3546 50.8907V43.6124H73.8598V44.3835C74.0719 44.2317 74.2936 44.094 74.5237 43.9711C74.8006 43.8293 75.0906 43.7146 75.3897 43.6289C75.6936 43.5364 76.0083 43.4838 76.3258 43.4722C76.7524 43.4424 77.1793 43.5263 77.5629 43.7155C77.8984 43.9187 78.1489 44.2366 78.268 44.6103C78.4351 45.1579 78.5101 45.7291 78.4907 46.301V50.8701H76.8412V46.4577C76.8488 46.14 76.8155 45.8226 76.7423 45.5134C76.7199 45.4068 76.6768 45.3056 76.6152 45.2157C76.5536 45.1258 76.4749 45.049 76.3835 44.9897C76.1496 44.8701 75.8859 44.8214 75.6247 44.8495C75.3584 44.8638 75.0956 44.918 74.8454 45.0103C74.5396 45.1117 74.2536 45.2652 74 45.4639V50.8701L72.3546 50.8907ZM78.4454 45.4969L78.1072 44.4495C78.3105 44.2891 78.5303 44.1509 78.7629 44.0371C79.0559 43.8813 79.3641 43.7555 79.6825 43.6619C80.0212 43.5605 80.3723 43.5063 80.7258 43.501C81.1609 43.4767 81.5951 43.5633 81.9876 43.7526C82.3263 43.9468 82.5827 44.2575 82.7093 44.6268C82.8907 45.1699 82.9732 45.741 82.9526 46.3134V50.8907H81.2784V46.4783C81.2845 46.1598 81.254 45.8415 81.1876 45.5299C81.1436 45.3174 81.0177 45.1308 80.8371 45.0103C80.6016 44.8912 80.3367 44.8425 80.0742 44.8701C79.7906 44.883 79.5114 44.9458 79.2495 45.0557C78.9638 45.1679 78.6935 45.3162 78.4454 45.4969ZM87.9629 50.9938C87.5022 51.0224 87.0409 50.9476 86.6128 50.7749C86.1847 50.6022 85.8007 50.3361 85.4887 49.9959C84.8718 49.2118 84.5637 48.2289 84.6227 47.233C84.6133 46.5788 84.7455 45.9303 85.0103 45.332C85.2565 44.7905 85.6529 44.331 86.1526 44.0082C86.7049 43.6685 87.3435 43.4952 87.9918 43.5093C88.3481 43.499 88.7037 43.5492 89.0433 43.6577C89.3674 43.7658 89.666 43.9381 89.9217 44.1649C90.1867 44.4097 90.395 44.7095 90.532 45.0433C90.6948 45.4454 90.7773 45.8755 90.7753 46.3093V47.0433C90.7736 47.2357 90.7543 47.4276 90.7175 47.6165H85.5629L85.6907 46.6227H89.2124C89.2345 46.297 89.2137 45.9698 89.1505 45.6495C89.1007 45.3764 88.9648 45.1265 88.7629 44.9361C88.5233 44.7405 88.2177 44.6446 87.9093 44.668C87.5968 44.6623 87.2906 44.7562 87.0351 44.9361C86.7445 45.172 86.5389 45.4963 86.4495 45.8598C86.2932 46.4427 86.2347 47.0474 86.2763 47.6495C86.2754 48.0816 86.3831 48.507 86.5897 48.8866C86.762 49.1793 87.0236 49.4091 87.3361 49.5423C87.668 49.6791 88.0245 49.7465 88.3835 49.7402C88.5963 49.7381 88.8083 49.72 89.0186 49.6866C89.2535 49.6539 89.4862 49.6071 89.7155 49.5464C89.894 49.5056 90.066 49.4404 90.2268 49.3526L90.5361 50.2969C90.3345 50.4478 90.1105 50.5661 89.8722 50.6474C89.5724 50.753 89.2652 50.8342 88.9526 50.8907C88.6264 50.9555 88.2953 50.9901 87.9629 50.9938ZM94.866 50.9938C94.3508 51.0003 93.8444 50.8599 93.4062 50.5889C92.968 50.3179 92.6161 49.9277 92.3918 49.4639C92.0993 48.8535 91.9579 48.1817 91.9794 47.5052C91.9624 46.7799 92.1209 46.0612 92.4412 45.4103C92.7259 44.8299 93.1709 44.3433 93.7237 44.0082C94.3081 43.6656 94.9764 43.4928 95.6536 43.5093C96.0346 43.499 96.4148 43.5505 96.7794 43.6619C96.9837 43.7177 97.1773 43.8069 97.3526 43.9258L96.8371 44.9856C96.6919 44.8718 96.5203 44.7966 96.3382 44.767C96.0919 44.7229 95.8419 44.7022 95.5918 44.7052C95.2531 44.7032 94.9219 44.8054 94.6433 44.9979C94.3393 45.2243 94.1049 45.5315 93.967 45.8845C93.7844 46.3491 93.6961 46.8453 93.7072 47.3443C93.6444 47.97 93.7894 48.5989 94.1196 49.134C94.2655 49.3198 94.4543 49.4675 94.6697 49.5645C94.8851 49.6614 95.1209 49.7047 95.3567 49.6907C95.6557 49.6953 95.9523 49.6362 96.2268 49.5175C96.4439 49.4297 96.6489 49.3147 96.8371 49.1753L97.0845 50C96.9814 50.1072 96.8412 50.2392 96.6722 50.4124C96.4616 50.5859 96.2251 50.725 95.9711 50.8247C95.6173 50.9525 95.2419 51.01 94.866 50.9938ZM96.9278 50.8907V49.9423L96.8289 49.8804V44.7959L96.8825 44.7588L96.8289 43.1794V40.2474H98.4784V50.8907H96.9278ZM105.39 50.9938C104.888 50.9992 104.395 50.868 103.963 50.6144C103.508 50.3373 103.144 49.9331 102.915 49.4515C102.623 48.8411 102.482 48.1693 102.503 47.4928C102.487 46.768 102.644 46.0498 102.961 45.3979C103.247 44.8185 103.692 44.3322 104.243 43.9959C104.829 43.6536 105.499 43.4808 106.177 43.4969C106.558 43.4866 106.939 43.5381 107.303 43.6495C107.507 43.7053 107.701 43.7945 107.876 43.9134L107.361 44.9732C107.214 44.8587 107.041 44.7834 106.858 44.7546C106.613 44.7106 106.364 44.6899 106.115 44.6928C105.777 44.6907 105.446 44.7929 105.167 44.9856C104.862 45.2105 104.627 45.5182 104.491 45.8722C104.308 46.3367 104.22 46.8329 104.231 47.332C104.17 47.9575 104.315 48.5859 104.643 49.1216C104.79 49.3068 104.979 49.4541 105.194 49.551C105.409 49.6479 105.645 49.6916 105.88 49.6783C106.179 49.6825 106.476 49.6235 106.751 49.5052C106.968 49.4173 107.173 49.3023 107.361 49.1629L107.608 49.9876C107.505 50.0948 107.361 50.2268 107.196 50.4C106.984 50.5743 106.746 50.7135 106.491 50.8124C106.139 50.9446 105.765 51.0063 105.39 50.9938ZM107.452 50.8907V49.9423L107.353 49.8804V44.7959L107.406 44.7588L107.353 43.1794V40.2474H109.002V50.8907H107.452ZM114.049 50.9938C113.589 51.022 113.128 50.9471 112.7 50.7744C112.272 50.6018 111.887 50.3358 111.575 49.9959C110.958 49.2118 110.65 48.2289 110.709 47.233C110.705 46.5767 110.846 45.9276 111.122 45.332C111.366 44.7906 111.761 44.3311 112.26 44.0082C112.813 43.6678 113.453 43.4945 114.103 43.5093C114.458 43.4992 114.812 43.5494 115.151 43.6577C115.475 43.7658 115.773 43.9381 116.029 44.1649C116.294 44.4097 116.502 44.7095 116.639 45.0433C116.802 45.4454 116.885 45.8755 116.882 46.3093V47.0433C116.883 47.2359 116.864 47.428 116.825 47.6165H111.629L111.757 46.6227H115.287C115.313 46.297 115.292 45.9692 115.225 45.6495C115.176 45.3768 115.042 45.1268 114.841 44.9361C114.6 44.7435 114.296 44.6479 113.988 44.668C113.675 44.661 113.368 44.755 113.113 44.9361C112.822 45.1716 112.614 45.4959 112.524 45.8598C112.367 46.4427 112.309 47.0474 112.351 47.6495C112.35 48.0816 112.457 48.507 112.664 48.8866C112.836 49.1793 113.098 49.4091 113.41 49.5423C113.742 49.6783 114.099 49.746 114.458 49.7402C114.671 49.7381 114.882 49.72 115.093 49.6866C115.329 49.6536 115.563 49.607 115.794 49.5464C115.971 49.506 116.142 49.4404 116.301 49.3526L116.61 50.2969C116.41 50.4469 116.187 50.5651 115.951 50.6474C115.651 50.7526 115.343 50.8338 115.031 50.8907C114.708 50.9546 114.379 50.9893 114.049 50.9938ZM120.685 54.0247V52.6845C120.793 52.7179 120.905 52.7398 121.019 52.7505C121.132 52.7678 121.246 52.7773 121.361 52.7794C121.589 52.7724 121.813 52.7249 122.025 52.6392C122.314 52.5175 122.563 52.3158 122.742 52.0577C123.017 51.652 123.198 51.1898 123.27 50.7052L123.361 50.8907H122.656L120.07 43.6H121.856L123.291 48.1361L123.893 50.2433H123.534L124.07 48.1361L125.274 43.6H127.064L124.672 51.101C124.464 51.8297 124.115 52.5105 123.645 53.1052C123.308 53.5246 122.855 53.8358 122.342 54C122.208 54.0445 122.07 54.0763 121.93 54.0948C121.794 54.12 121.656 54.134 121.518 54.1361C121.425 54.1406 121.333 54.1406 121.241 54.1361L120.895 54.0948C120.822 54.0817 120.751 54.0581 120.685 54.0247ZM128.21 50.8907V43.6124H129.72V44.3959C129.933 44.2444 130.156 44.1067 130.388 43.9835C130.667 43.8428 130.958 43.7269 131.258 43.6371C131.567 43.5415 131.887 43.4874 132.21 43.4763C132.518 43.4389 132.83 43.4742 133.122 43.5795C133.413 43.6848 133.676 43.8571 133.889 44.0825C134.235 44.506 134.408 45.2511 134.408 46.3175V50.8742H132.726V46.4619C132.761 46.0234 132.678 45.5836 132.487 45.1876C132.326 44.932 131.996 44.8206 131.489 44.8454C131.32 44.8547 131.153 44.8809 130.99 44.9237C130.794 44.9781 130.602 45.047 130.417 45.1299C130.221 45.2222 130.035 45.3356 129.864 45.468V50.8742L128.21 50.8907ZM139.245 54.1897C138.419 54.2343 137.597 54.0441 136.874 53.6412C136.606 53.4702 136.388 53.2306 136.243 52.9472C136.098 52.6637 136.031 52.3467 136.049 52.0289C136.044 51.7773 136.111 51.5296 136.243 51.3155C136.369 51.1064 136.536 50.9253 136.734 50.7835C136.921 50.6404 137.13 50.5291 137.353 50.4536L138.371 50.5814L138.082 50.833C137.967 50.9343 137.87 51.0559 137.798 51.1918C137.71 51.3754 137.669 51.578 137.678 51.7814C137.673 52.0289 137.728 52.2738 137.839 52.4948C137.953 52.7072 138.137 52.8746 138.359 52.9691C138.665 53.0976 138.996 53.1568 139.328 53.1423C139.667 53.1455 140.006 53.1039 140.334 53.0186C140.604 52.9571 140.855 52.8328 141.068 52.6557C141.157 52.5801 141.227 52.4857 141.275 52.3795C141.323 52.2732 141.347 52.1577 141.344 52.0412C141.351 51.8256 141.304 51.6118 141.208 51.4186C141.1 51.2229 140.922 51.0756 140.709 51.0062C140.361 50.8973 139.997 50.8499 139.633 50.866H138.751C138.528 50.866 138.338 50.866 138.161 50.8412C138.005 50.8268 137.851 50.802 137.699 50.767C137.642 50.7537 137.587 50.7299 137.538 50.6969C137.488 50.6656 137.434 50.642 137.377 50.6268C137.103 50.5494 136.864 50.3769 136.705 50.1402C136.583 49.9402 136.519 49.7105 136.52 49.4763C136.528 49.2948 136.573 49.1163 136.652 48.9526C136.744 48.7604 136.87 48.586 137.023 48.4371C137.203 48.2614 137.409 48.114 137.633 48L138.635 48.2186C138.474 48.2894 138.332 48.3984 138.223 48.5361C138.111 48.6643 138.048 48.8279 138.045 48.9979C138.033 49.0919 138.045 49.1874 138.079 49.2759C138.112 49.3644 138.168 49.4431 138.239 49.5052C138.443 49.6129 138.673 49.6601 138.903 49.6412H140.21C140.677 49.6289 141.143 49.687 141.592 49.8144C141.899 49.9035 142.181 50.0631 142.417 50.2804C142.606 50.4598 142.748 50.6837 142.829 50.932C142.906 51.1718 142.945 51.4223 142.944 51.6742C142.95 52.0496 142.849 52.4188 142.652 52.7381C142.448 53.0606 142.173 53.3315 141.847 53.5299C141.482 53.7521 141.084 53.915 140.668 54.0124C140.203 54.129 139.725 54.1885 139.245 54.1897ZM139.179 48.4165C138.66 48.4246 138.144 48.3234 137.666 48.1196C137.245 47.9472 136.88 47.6618 136.61 47.2948C136.352 46.9253 136.218 46.4835 136.227 46.033C136.207 45.5412 136.341 45.0556 136.61 44.6433C136.872 44.2687 137.239 43.9814 137.666 43.8186C138.155 43.6289 138.675 43.5324 139.2 43.534C139.725 43.5182 140.248 43.6022 140.742 43.7814C141.173 43.9381 141.55 44.2159 141.827 44.5814C142.111 44.9833 142.256 45.467 142.239 45.9588C142.262 46.4303 142.134 46.8968 141.874 47.2906C141.614 47.6844 141.235 47.9849 140.792 48.1484C140.277 48.3406 139.729 48.4289 139.179 48.4082V48.4165ZM139.204 47.3897C139.568 47.4091 139.927 47.3076 140.227 47.101C140.371 46.9578 140.481 46.7833 140.547 46.591C140.614 46.3987 140.635 46.1937 140.61 45.9918C140.64 45.6106 140.521 45.2328 140.28 44.9361C140.147 44.8082 139.988 44.7102 139.814 44.6483C139.64 44.5865 139.454 44.5623 139.27 44.5773C139.026 44.5748 138.784 44.6124 138.553 44.6887C138.34 44.7642 138.16 44.9096 138.041 45.101C137.897 45.3949 137.833 45.7216 137.856 46.0481C137.878 46.3746 137.986 46.6894 138.169 46.9608C138.294 47.111 138.453 47.2285 138.634 47.3033C138.814 47.378 139.01 47.4077 139.204 47.3897ZM141.398 44.8371L141.019 44.1567C141.177 43.9929 141.366 43.8625 141.575 43.7732C141.868 43.6326 142.19 43.562 142.515 43.567H143.287V44.8371H141.398ZM144.12 50.4454L144.33 49.233C144.459 49.3179 144.597 49.3872 144.742 49.4392C144.986 49.5369 145.237 49.6153 145.493 49.6742C145.789 49.7446 146.092 49.782 146.396 49.7856C146.72 49.8114 147.044 49.7411 147.328 49.5835C147.426 49.5231 147.507 49.4379 147.562 49.3367C147.617 49.2354 147.644 49.1214 147.641 49.0062C147.642 48.9194 147.625 48.8334 147.592 48.7533C147.559 48.6732 147.51 48.6007 147.447 48.5402C147.292 48.39 147.112 48.2673 146.915 48.1773C146.693 48.066 146.437 47.9505 146.157 47.8268C145.775 47.6675 145.412 47.4685 145.072 47.233C144.788 47.0387 144.55 46.7838 144.375 46.4866C144.208 46.1755 144.127 45.8252 144.14 45.4722C144.133 45.0725 144.269 44.6835 144.524 44.3753C144.787 44.073 145.128 43.8478 145.509 43.7237C145.953 43.5748 146.419 43.5023 146.887 43.5093C147.312 43.5009 147.736 43.5494 148.148 43.6536C148.394 43.7089 148.631 43.7919 148.858 43.901L148.643 45.1381C148.527 45.0538 148.399 44.9858 148.264 44.9361C148.078 44.8595 147.884 44.8028 147.687 44.767C147.469 44.7258 147.248 44.7051 147.027 44.7052C146.688 44.6849 146.35 44.7472 146.041 44.8866C145.944 44.9313 145.861 45.0027 145.803 45.0924C145.744 45.1822 145.713 45.2867 145.711 45.3938C145.701 45.5215 145.725 45.6495 145.781 45.7648C145.837 45.8801 145.922 45.9783 146.029 46.0495C146.29 46.2206 146.566 46.3682 146.854 46.4907C147.277 46.6849 147.69 46.901 148.091 47.1381C148.411 47.3228 148.692 47.5696 148.915 47.8639C149.122 48.1563 149.228 48.508 149.216 48.866C149.235 49.1699 149.179 49.4737 149.052 49.7507C148.926 50.0276 148.733 50.269 148.491 50.4536C147.909 50.8437 147.215 51.0334 146.515 50.9938C146.176 50.9963 145.836 50.9687 145.501 50.9113C145.21 50.8648 144.923 50.7959 144.643 50.7052C144.458 50.6425 144.282 50.5551 144.12 50.4454ZM153.01 50.9938C152.675 51.0016 152.343 50.9398 152.033 50.8124C151.76 50.6851 151.539 50.4663 151.41 50.1938C151.244 49.8136 151.168 49.4001 151.188 48.9856V44.7959H150.268V43.901C150.59 43.8103 150.841 43.7278 151.019 43.6577C151.113 43.6228 151.199 43.5678 151.27 43.4967C151.341 43.4255 151.396 43.3398 151.431 43.2454C151.467 43.1464 151.508 43.0309 151.555 42.899L151.703 42.4577L151.876 41.9423H152.878V43.5918H154.874V44.7876H152.858V48.1649C152.848 48.5072 152.87 48.8495 152.924 49.1876C152.93 49.2704 152.955 49.3506 152.997 49.4221C153.04 49.4936 153.098 49.5545 153.167 49.6C153.327 49.6656 153.501 49.6953 153.674 49.6866C153.813 49.6854 153.951 49.6718 154.087 49.6454C154.237 49.6173 154.385 49.5815 154.532 49.5381C154.647 49.5047 154.757 49.4594 154.862 49.4021L155.118 50.3505C154.956 50.4751 154.778 50.5777 154.59 50.6557C154.346 50.7575 154.093 50.8375 153.835 50.8948C153.565 50.958 153.288 50.9912 153.01 50.9938ZM159.41 50.9938C158.95 51.0224 158.488 50.9476 158.06 50.7749C157.632 50.6022 157.248 50.3361 156.936 49.9959C156.319 49.2118 156.011 48.2289 156.07 47.233C156.058 46.5785 156.191 45.9295 156.458 45.332C156.704 44.7905 157.1 44.331 157.6 44.0082C158.152 43.6677 158.791 43.4944 159.439 43.5093C159.796 43.499 160.151 43.5492 160.491 43.6577C160.815 43.7658 161.113 43.9381 161.369 44.1649C161.634 44.4097 161.842 44.7095 161.979 45.0433C162.142 45.4454 162.225 45.8755 162.223 46.3093V47.0433C162.221 47.2357 162.202 47.4276 162.165 47.6165H157.019L157.151 46.6227H160.672C160.694 46.297 160.674 45.9698 160.61 45.6495C160.56 45.3764 160.425 45.1265 160.223 44.9361C159.983 44.7405 159.677 44.6446 159.369 44.668C159.057 44.6623 158.75 44.7562 158.495 44.9361C158.204 45.172 157.999 45.4963 157.909 45.8598C157.753 46.4428 157.694 47.0472 157.732 47.6495C157.734 48.0817 157.843 48.5067 158.049 48.8866C158.22 49.179 158.481 49.4088 158.792 49.5423C159.124 49.6783 159.48 49.7456 159.839 49.7402C160.052 49.7382 160.264 49.7203 160.474 49.6866C160.711 49.6543 160.945 49.6075 161.175 49.5464C161.354 49.5047 161.525 49.4395 161.687 49.3526L161.996 50.2969C161.794 50.447 161.57 50.5649 161.332 50.6474C161.032 50.753 160.725 50.8342 160.412 50.8907C160.082 50.9563 159.747 50.9905 159.41 50.9938Z" fill="#5E2779"/>
</svg>
