<svg width="131" height="36" viewBox="0 0 131 36" fill="none" xmlns="http://www.w3.org/2000/svg">
<path d="M3.83677 8.90239V4.24575H4.35665C6.12476 4.24575 6.87208 4.94699 6.87208 6.53572C6.87208 8.12446 6.317 8.90239 4.48662 8.90239H3.83677ZM3.83677 17.3309V11.8908H4.66532C6.34679 11.8908 7.4786 12.6386 7.4786 14.5424C7.4786 16.301 7.10765 17.3309 4.80071 17.3309H3.83677ZM11.3614 14.7917C11.3614 12.3921 10.2783 11.0773 8.13385 10.3268C10.1186 9.71045 10.7143 7.83958 10.7143 6.25084C10.7143 3.45687 9.08966 1.14224 5.71861 1.14224H0V20.4317H6.04353C10.1294 20.4317 11.3587 17.5254 11.3587 14.7917H11.3614ZM22.3275 0L21.7453 1.45177C20.8475 1.1046 19.8932 0.93085 18.9321 0.939544C15.1224 0.939544 12.3064 3.33908 12.3064 7.94641V13.6522C12.3064 16.1667 13.1349 18.0047 14.4888 19.1497L13.6331 21.2452H15.3958L15.8968 20.0454C16.8662 20.4509 17.9076 20.6504 18.9564 20.6316C22.7661 20.6316 25.5821 18.3417 25.5821 13.622V7.92175C25.5821 5.32226 24.6696 3.43221 23.1804 2.25162L24.0929 0.00821759L22.3275 0ZM21.4719 6.4152C21.4949 6.66364 21.503 6.91373 21.4962 7.163V14.4301C21.4962 16.7748 20.5892 17.4432 18.9321 17.4432C18.2975 17.4984 17.6658 17.3085 17.1639 16.9118L21.4719 6.4152ZM16.4004 14.4958V7.14382C16.4004 4.88125 17.3102 4.13071 18.9646 4.13071C19.4966 4.108 20.0242 4.23811 20.4863 4.50598L16.4004 14.4958ZM30.9623 8.91334V4.26767H32.1049C34.0003 4.26767 34.8667 4.93877 34.8667 6.4152C34.8667 7.89162 34.271 8.90239 32.1049 8.90239L30.9623 8.91334ZM35.5166 11.4526C37.2793 10.7842 38.5789 8.77638 38.5789 6.52203C38.5789 3.72805 36.9543 1.16142 33.28 1.16142H27.1065V20.4508H30.9623V12.0552H31.7908L34.6582 20.4317H39.0582L35.5166 11.4526ZM43.7398 20.4289V7.98202L48.1885 20.4317H52.954V1.14224H49.3988V13.5618L44.8987 1.14224H40.1521V20.4317L43.7398 20.4289ZM64.023 17.2158H58.8405V11.9703H63.6114V8.79008H58.8351V4.3608H63.7468V1.14224H54.8737V20.4317H63.9823L64.023 17.2158ZM69.4952 8.91334V4.25671H70.0123C71.7805 4.25671 72.5224 4.95794 72.5224 6.54668C72.5224 8.13541 71.9808 8.92156 70.1423 8.92156L69.4952 8.91334ZM69.4952 17.3446V11.8908H70.3237C72.0052 11.8908 73.137 12.6386 73.137 14.5424C73.137 16.301 72.766 17.3309 70.4591 17.3309L69.4952 17.3446ZM77.0008 14.8026C77.0008 12.4031 75.9178 11.091 73.7733 10.3377C75.7607 9.72141 76.3591 7.85054 76.3591 6.2618C76.3591 3.46782 74.7345 1.1532 71.3662 1.1532H65.6503V20.4426H71.6938C75.777 20.4426 76.99 17.5363 76.99 14.8026H77.0008ZM78.3736 20.4426H82.3187V1.14224H78.3736V20.4426ZM94.598 4.3608V1.14224H84.5255V20.4317H88.4733V11.9977H93.3471V8.79008H88.4733V4.3608H94.598ZM106.19 4.3608V1.14224H96.1143V20.4317H100.068V11.9977H104.941V8.79008H100.068V4.3608H106.19ZM116.814 17.235H111.64V11.984H116.427V8.79008H111.654V4.3608H116.568V1.14224H107.695V20.4317H116.801L116.814 17.235ZM121.753 20.4481V7.98202L126.224 20.4317H131V1.14224H127.442V13.5618L122.939 1.14224H118.209V20.4317L121.753 20.4481ZM1.96306 33.8729C1.69107 33.8738 1.41944 33.8528 1.15076 33.8099C0.930086 33.7754 0.712118 33.725 0.498212 33.6592C0.361941 33.6187 0.230326 33.5636 0.105599 33.4949L0.31409 32.5827C0.445412 32.6572 0.583233 32.7194 0.725657 32.769C0.902468 32.8326 1.08334 32.8838 1.26719 32.9224C1.46617 32.9615 1.66832 32.9816 1.871 32.9827C2.16685 33.0013 2.46203 32.9369 2.72392 32.7964C2.8216 32.7299 2.89995 32.6382 2.95088 32.5308C3.00181 32.4234 3.02348 32.3042 3.01364 32.1856C3.01915 32.0137 2.96768 31.845 2.86743 31.7062C2.74011 31.5555 2.58692 31.4293 2.41525 31.3337C2.21217 31.2159 1.95765 31.0817 1.64897 30.9337C1.38213 30.8034 1.12825 30.6474 0.890825 30.4681C0.661958 30.2938 0.465726 30.0795 0.311383 29.8353C0.169673 29.5868 0.0908275 29.3068 0.0818525 29.0201C0.0728775 28.7334 0.134051 28.4488 0.259937 28.1918C0.37745 27.9796 0.544843 27.7999 0.747318 27.6686C0.960964 27.5301 1.19624 27.4291 1.44319 27.37C2.04225 27.2399 2.66282 27.2502 3.25733 27.4002C3.45445 27.4517 3.64453 27.5281 3.82324 27.6275L3.61745 28.5096C3.4483 28.4018 3.26634 28.3162 3.07592 28.2548C2.81349 28.1704 2.53886 28.1315 2.26362 28.1398C2.0728 28.1373 1.88276 28.165 1.70042 28.2219C1.54745 28.2638 1.40823 28.3461 1.29698 28.4602C1.24586 28.5139 1.20607 28.5775 1.18 28.6472C1.15393 28.7169 1.14214 28.7912 1.14535 28.8656C1.13993 29.0314 1.18217 29.1952 1.26719 29.3368C1.36846 29.4874 1.50276 29.6121 1.6598 29.7011C1.83851 29.8134 2.07137 29.9449 2.36109 30.0983C2.58854 30.2106 2.80515 30.3311 3.01635 30.4571C3.21878 30.579 3.40919 30.7203 3.58496 30.879C3.74897 31.028 3.88317 31.2074 3.98028 31.4076C4.08074 31.6194 4.13083 31.8522 4.1265 32.0869C4.13848 32.4368 4.04396 32.782 3.85573 33.0758C3.66812 33.3434 3.40749 33.55 3.1057 33.6702C2.74163 33.8128 2.35339 33.8817 1.96306 33.8729ZM7.08328 33.8729C6.78071 33.8924 6.47767 33.843 6.1965 33.7282C5.91533 33.6135 5.66319 33.4364 5.45867 33.21C5.05363 32.6892 4.85133 32.0363 4.89006 31.3748C4.88232 30.94 4.96921 30.5089 5.14458 30.112C5.30596 29.753 5.5652 29.4479 5.8919 29.2327C6.25536 29.0066 6.67565 28.8915 7.10223 28.9013C7.33624 28.8944 7.56969 28.9278 7.79269 28.9999C8.00429 29.0724 8.19945 29.1869 8.36671 29.3368C8.54167 29.4992 8.67937 29.6983 8.77016 29.9202C8.87603 30.1876 8.92937 30.4733 8.9272 30.7612V31.2487C8.92664 31.3767 8.91303 31.5043 8.88659 31.6295H5.50741L5.59406 30.9693H7.90641C7.92145 30.7529 7.90687 30.5353 7.86309 30.3229C7.83133 30.1418 7.74308 29.9757 7.61127 29.849C7.45394 29.7191 7.25327 29.6554 7.05078 29.671C6.84557 29.6669 6.64444 29.7293 6.47676 29.849C6.28515 30.0055 6.14921 30.2209 6.08956 30.4626C5.98938 30.8502 5.95147 31.2515 5.97584 31.6514C5.9765 31.9383 6.04719 32.2206 6.18162 32.4732C6.2956 32.6669 6.46711 32.8193 6.67171 32.9087C6.88968 32.9991 7.12389 33.044 7.35946 33.0402C7.49918 33.0388 7.63835 33.027 7.77644 33.0046C7.93159 32.9829 8.08512 32.9517 8.23675 32.9114C8.35372 32.8838 8.4669 32.8405 8.5725 32.7827L8.77287 33.41C8.6415 33.5102 8.49529 33.5888 8.33964 33.6428C8.14279 33.7127 7.9408 33.7666 7.73583 33.8044C7.52084 33.8474 7.3026 33.8704 7.08328 33.8729ZM15.7126 28.9615L12.5636 32.3006L12.6394 32.0541L12.6584 32.8758V33.7907H11.5753V26.7537H12.6584V30.2489L12.6096 31.4432L12.3849 31.2707L14.4265 28.9615H15.7126ZM13.1295 31.4788L13.8687 30.7447L15.8995 33.7935H14.6593L13.1295 31.4788ZM18.3337 33.8729C17.9839 33.8836 17.6364 33.8123 17.3183 33.6647C17.0498 33.534 16.8173 33.3383 16.6414 33.095C16.4661 32.8477 16.3392 32.5688 16.2677 32.2732C16.1889 31.9507 16.1516 31.6193 16.1567 31.2871C16.1495 30.8323 16.2557 30.3829 16.4654 29.9805C16.6524 29.6381 16.9349 29.359 17.2777 29.1779C17.6332 28.9924 18.0284 28.8983 18.4284 28.904C18.8842 28.8799 19.3354 29.0058 19.7146 29.2628C20.0343 29.5008 20.275 29.8312 20.405 30.2106C20.5485 30.619 20.6176 31.0507 20.6081 31.4843C20.6149 31.9409 20.5088 32.3919 20.2994 32.7964C20.1136 33.1404 19.8308 33.4207 19.4871 33.6017C19.131 33.7879 18.7345 33.8812 18.3337 33.8729ZM18.3634 33.0922C18.5289 33.1051 18.6946 33.0719 18.8426 32.996C18.9906 32.9202 19.1152 32.8047 19.2028 32.6622C19.4054 32.288 19.4992 31.8636 19.4736 31.4377C19.4769 31.1416 19.4386 30.8465 19.3599 30.5612C19.3005 30.3229 19.18 30.1046 19.0106 29.9285C18.9283 29.8486 18.831 29.7861 18.7246 29.7447C18.6181 29.7034 18.5045 29.6839 18.3905 29.6874C18.2271 29.6742 18.0632 29.7053 17.9157 29.7775C17.7681 29.8497 17.6423 29.9605 17.5511 30.0983C17.3476 30.4651 17.2535 30.8837 17.2804 31.3035C17.2765 31.6031 17.3138 31.9018 17.3914 32.191C17.4531 32.4387 17.5782 32.6652 17.7542 32.8484C17.8346 32.9281 17.9299 32.9907 18.0345 33.0325C18.1391 33.0744 18.251 33.0947 18.3634 33.0922ZM21.6127 33.8044V28.9697H22.5549L22.6226 29.6299L22.7093 29.9531V33.8044H21.6127ZM22.6497 30.3832L22.5874 29.6299C22.6515 29.5 22.7441 29.3866 22.8582 29.2984C23.0058 29.1782 23.17 29.0804 23.3456 29.0081C23.5303 28.9314 23.728 28.8914 23.9277 28.8903C24.0179 28.8856 24.1083 28.8856 24.1985 28.8903C24.2581 28.8936 24.3165 28.9106 24.3691 28.9396V29.9942C24.3082 29.9611 24.2437 29.9353 24.1768 29.9175C24.0431 29.8847 23.9055 29.8709 23.768 29.8764C23.5992 29.8733 23.4314 29.9011 23.2725 29.9586C23.1391 30.0044 23.0132 30.07 22.8988 30.1531C22.8084 30.221 22.7247 30.2982 22.6497 30.3832ZM26.6273 33.8729C26.4083 33.8784 26.1906 33.8373 25.9883 33.7524C25.8081 33.6679 25.6626 33.5226 25.5767 33.3415C25.47 33.0882 25.4209 32.8139 25.4332 32.5389V29.7559H24.8267V29.1615C25.0406 29.1012 25.203 29.0464 25.3222 28.9999C25.3842 28.9767 25.4405 28.9402 25.4872 28.8929C25.5339 28.8456 25.57 28.7887 25.5929 28.7259C25.6173 28.6602 25.6417 28.5835 25.6715 28.4959C25.7012 28.4082 25.7364 28.3096 25.7716 28.2028L25.8854 27.8604H26.5433V28.956H27.8674V29.7504H26.5433V31.9938C26.5368 32.2212 26.5515 32.4485 26.5867 32.6731C26.5902 32.728 26.6062 32.7812 26.6334 32.8287C26.6606 32.8763 26.6984 32.9168 26.7437 32.947C26.8501 32.9906 26.9646 33.0103 27.0795 33.0046C27.1704 33.0037 27.2609 32.9947 27.3502 32.9772C27.4488 32.9585 27.5464 32.9348 27.6426 32.906C27.7177 32.8832 27.7902 32.8531 27.8593 32.8156L28.0271 33.4456C27.9199 33.5283 27.8024 33.5965 27.6778 33.6483C27.5186 33.7159 27.3535 33.7691 27.1851 33.8072C27.0022 33.8502 26.815 33.8723 26.6273 33.8729ZM29.2456 33.8044V29.7614H28.5606V29.1313L29.2456 28.9615V28.5232C29.2364 28.2167 29.2908 27.9115 29.4053 27.6275C29.5007 27.4064 29.6464 27.2112 29.8305 27.0578C29.9993 26.9179 30.1946 26.8144 30.4045 26.7537C30.6018 26.697 30.8058 26.6676 31.011 26.6661C31.1561 26.6649 31.301 26.6759 31.4442 26.6989C31.5357 26.7107 31.6262 26.7291 31.715 26.7537V27.5755C31.6268 27.5462 31.5362 27.5251 31.4442 27.5125C31.3051 27.4939 31.1648 27.4856 31.0245 27.4878C30.9332 27.4856 30.8426 27.5044 30.7596 27.5428C30.6765 27.5812 30.6033 27.6383 30.5453 27.7097C30.4063 27.905 30.3401 28.1437 30.3584 28.3835V28.9533H31.5011V29.7531H30.3584V33.7962L29.2456 33.8044ZM32.9578 28.1617C32.7854 28.1652 32.618 28.1026 32.4894 27.9864C32.4241 27.9293 32.3724 27.858 32.3382 27.7778C32.3039 27.6976 32.2881 27.6107 32.2917 27.5234C32.2909 27.3933 32.3296 27.266 32.4027 27.1591C32.4718 27.0523 32.5644 26.9633 32.6735 26.8989C32.784 26.8345 32.9091 26.8006 33.0363 26.8003C33.1227 26.7915 33.2099 26.8017 33.292 26.8302C33.3741 26.8587 33.4492 26.9049 33.5119 26.9655C33.5747 27.0262 33.6238 27.0998 33.6557 27.1815C33.6877 27.2632 33.7018 27.3508 33.697 27.4385C33.6995 27.5356 33.6809 27.632 33.6425 27.721C33.6042 27.8099 33.547 27.8893 33.475 27.9535C33.3355 28.0877 33.1503 28.1623 32.9578 28.1617ZM32.4677 33.8044V28.9697H33.5508V33.8044H32.4677ZM35.0454 33.8044V26.7346H36.1502V33.8044H35.0454ZM37.6042 33.8044V28.9697H38.6033V29.482C38.7424 29.3809 38.8881 29.2894 39.0393 29.208C39.2203 29.1141 39.4098 29.038 39.6052 28.9807C39.8057 28.9194 40.0132 28.8845 40.2225 28.8766C40.5071 28.8543 40.7925 28.9101 41.0483 29.0382C41.2688 29.1731 41.4333 29.3843 41.5114 29.6326C41.621 29.9961 41.6703 30.3758 41.6576 30.7557V33.7907H40.5745V30.8598C40.5795 30.6487 40.5576 30.4379 40.5095 30.2325C40.4949 30.1617 40.4665 30.0945 40.4261 30.0348C40.3856 29.9751 40.3339 29.924 40.274 29.8846C40.1194 29.8052 39.9454 29.7728 39.773 29.7915C39.599 29.8013 39.4275 29.8373 39.264 29.8983C39.068 29.9671 38.8849 30.069 38.7225 30.1996V33.7907L37.6042 33.8044ZM41.6034 30.2215L41.3814 29.5258C41.5142 29.4197 41.6576 29.3279 41.8092 29.2519C42.0019 29.1489 42.2041 29.0654 42.413 29.0026C42.6355 28.9355 42.866 28.8996 43.0981 28.8958C43.3846 28.8796 43.6706 28.9371 43.9293 29.0629C44.1568 29.1911 44.3295 29.3998 44.414 29.6491C44.5334 30.0098 44.5873 30.3892 44.5737 30.7694V33.8099H43.4771V30.879C43.4818 30.6672 43.4609 30.4556 43.4149 30.2489C43.3861 30.1077 43.3034 29.9837 43.1847 29.9038C43.0311 29.8244 42.858 29.792 42.6865 29.8107C42.5002 29.8191 42.3169 29.8608 42.145 29.9339C41.9529 30.0058 41.7709 30.1024 41.6034 30.2215ZM47.5089 33.8044V28.9697H48.4972V29.482C48.6364 29.3811 48.782 29.2896 48.9331 29.208C49.1149 29.1138 49.3053 29.0377 49.5017 28.9807C49.7013 28.9193 49.9079 28.8843 50.1164 28.8766C50.3965 28.8568 50.6768 28.9126 50.9287 29.0382C51.1489 29.1732 51.3134 29.3844 51.3917 29.6326C51.5013 29.9964 51.5506 30.3758 51.5379 30.7557V33.7907H50.4548V30.8598C50.4598 30.6487 50.4379 30.4379 50.3898 30.2325C50.3752 30.1617 50.3468 30.0945 50.3064 30.0348C50.2659 29.9751 50.2143 29.924 50.1543 29.8846C50.0007 29.8052 49.8275 29.7728 49.656 29.7915C49.4811 29.801 49.3086 29.837 49.1443 29.8983C48.9435 29.9657 48.7557 30.0676 48.5892 30.1996V33.7907L47.5089 33.8044ZM51.5081 30.2215L51.2861 29.5258C51.4195 29.4193 51.5639 29.3274 51.7166 29.2519C51.909 29.1483 52.1113 29.0648 52.3204 29.0026C52.5428 28.9353 52.7733 28.8993 53.0054 28.8958C53.2911 28.8796 53.5762 28.9371 53.834 29.0629C54.0563 29.1919 54.2247 29.3983 54.3078 29.6436C54.427 30.0043 54.4811 30.3837 54.4676 30.7639V33.8044H53.3683V30.8735C53.3723 30.6619 53.3523 30.4505 53.3087 30.2435C53.2798 30.1023 53.1971 29.9783 53.0785 29.8983C52.9239 29.8192 52.75 29.7868 52.5776 29.8052C52.3914 29.8138 52.208 29.8555 52.0361 29.9285C51.8485 30.003 51.671 30.1015 51.5081 30.2215ZM57.7574 33.8729C57.4549 33.8919 57.152 33.8422 56.8709 33.7275C56.5899 33.6128 56.3377 33.436 56.1328 33.21C55.7278 32.6892 55.5255 32.0363 55.5642 31.3748C55.558 30.9402 55.6449 30.5094 55.8187 30.112C55.9804 29.7523 56.2407 29.4471 56.5687 29.2327C56.9314 29.007 57.3507 28.8919 57.7764 28.9013C58.0104 28.8945 58.2438 28.9278 58.4668 28.9999C58.6796 29.0716 58.8757 29.1861 59.0436 29.3368C59.2176 29.4994 59.3543 29.6985 59.4443 29.9202C59.5512 30.1873 59.6054 30.473 59.604 30.7612V31.2487C59.6029 31.3766 59.5903 31.504 59.5661 31.6295H56.1815L56.2655 30.9693H58.5778C58.5924 30.753 58.5787 30.5356 58.5372 30.3229C58.5045 30.1415 58.4153 29.9755 58.2827 29.849C58.1254 29.7191 57.9247 29.6554 57.7222 29.671C57.517 29.6672 57.316 29.7295 57.1482 29.849C56.9574 30.0057 56.8224 30.2212 56.7637 30.4626C56.6611 30.8498 56.6226 31.2515 56.65 31.6514C56.6494 31.9384 56.7201 32.221 56.8558 32.4732C56.9689 32.6676 57.1406 32.8203 57.3458 32.9087C57.5638 32.9996 57.7979 33.0443 58.0336 33.0402C58.1733 33.0388 58.3125 33.0268 58.4506 33.0046C58.6048 32.9828 58.7576 32.9517 58.9082 32.9114C59.0254 32.8843 59.1383 32.841 59.2439 32.7827L59.447 33.41C59.3147 33.5102 59.1675 33.5888 59.0111 33.6428C58.8142 33.7129 58.6125 33.7669 58.4072 33.8044C58.1931 33.8474 57.9756 33.8704 57.7574 33.8729ZM62.2901 33.8729C61.9518 33.8772 61.6193 33.7839 61.3316 33.6039C61.0438 33.424 60.8128 33.1647 60.6654 32.8567C60.4734 32.4512 60.3806 32.0049 60.3947 31.5555C60.3836 31.0738 60.4876 30.5964 60.6979 30.164C60.8848 29.7785 61.1771 29.4553 61.54 29.2327C61.9237 29.0051 62.3626 28.8903 62.8072 28.9013C63.0574 28.8944 63.3071 28.9286 63.5464 29.0026C63.6805 29.0397 63.8077 29.0989 63.9228 29.1779L63.5843 29.8819C63.489 29.8063 63.3763 29.7563 63.2567 29.7367C63.095 29.7074 62.9309 29.6937 62.7666 29.6956C62.5442 29.6943 62.3268 29.7622 62.1438 29.8901C61.9442 30.0405 61.7903 30.2445 61.6998 30.479C61.5799 30.7876 61.5219 31.1172 61.5292 31.4487C61.488 31.8643 61.5831 32.2821 61.8 32.6375C61.8958 32.7609 62.0197 32.859 62.1612 32.9234C62.3026 32.9878 62.4574 33.0166 62.6123 33.0073C62.8086 33.0103 63.0033 32.9711 63.1836 32.8923C63.3261 32.8339 63.4608 32.7575 63.5843 32.6649L63.7468 33.2127C63.6791 33.284 63.587 33.3716 63.476 33.4867C63.3378 33.6019 63.1824 33.6944 63.0157 33.7606C62.7834 33.8455 62.5369 33.8836 62.2901 33.8729ZM63.6439 33.8044V33.1744L63.5789 33.1333V29.7559L63.6141 29.7312L63.5789 28.6821V26.7346H64.662V33.8044H63.6439ZM69.2 33.8729C68.8709 33.8765 68.5471 33.7893 68.2632 33.6209C67.9643 33.4368 67.7253 33.1683 67.5754 32.8484C67.3834 32.4429 67.2906 31.9967 67.3047 31.5473C67.2939 31.0659 67.397 30.5888 67.6052 30.1558C67.793 29.7709 68.085 29.4479 68.4473 29.2245C68.8321 28.9971 69.2717 28.8824 69.7172 28.893C69.9674 28.8862 70.217 28.9204 70.4564 28.9944C70.5905 29.0315 70.7177 29.0907 70.8328 29.1697L70.4943 29.8737C70.3982 29.7976 70.2845 29.7476 70.164 29.7285C70.0032 29.6992 69.84 29.6855 69.6766 29.6874C69.4542 29.686 69.2367 29.7539 69.0538 29.8819C68.8533 30.0313 68.6992 30.2357 68.6098 30.4708C68.4899 30.7794 68.4319 31.109 68.4392 31.4405C68.3991 31.856 68.4942 32.2734 68.71 32.6293C68.8061 32.7523 68.9301 32.8501 69.0715 32.9145C69.2129 32.9789 69.3675 33.0079 69.5223 32.9991C69.7186 33.0018 69.9133 32.9626 70.0936 32.884C70.2361 32.8257 70.3708 32.7493 70.4943 32.6567L70.6568 33.2045C70.5891 33.2758 70.4943 33.3634 70.386 33.4785C70.2471 33.5942 70.0908 33.6867 69.923 33.7524C69.6922 33.8402 69.4465 33.8812 69.2 33.8729ZM70.5539 33.8044V33.1744L70.4889 33.1333V29.7559L70.5241 29.7312L70.4889 28.6821V26.7346H71.572V33.8044H70.5539ZM74.8862 33.8729C74.5837 33.8916 74.2809 33.8419 73.9998 33.7272C73.7188 33.6125 73.4665 33.4358 73.2616 33.21C72.8565 32.6892 72.6542 32.0363 72.6929 31.3748C72.6903 30.9388 72.7827 30.5076 72.9637 30.112C73.1242 29.7524 73.3837 29.4472 73.711 29.2327C74.0745 29.0066 74.4948 28.8915 74.9214 28.9013C75.1545 28.8946 75.387 28.9279 75.6091 28.9999C75.8219 29.0716 76.018 29.1861 76.1858 29.3368C76.3599 29.4994 76.4966 29.6985 76.5866 29.9202C76.6935 30.1873 76.7477 30.473 76.7463 30.7612V31.2487C76.7466 31.3767 76.7339 31.5043 76.7084 31.6295H73.2968L73.3807 30.9693H75.6985C75.7157 30.753 75.702 30.5353 75.6578 30.3229C75.6262 30.1418 75.5379 29.9757 75.406 29.849C75.2477 29.7211 75.0478 29.6576 74.8455 29.671C74.6403 29.6663 74.4389 29.7287 74.2715 29.849C74.0799 30.0054 73.9439 30.2209 73.8843 30.4626C73.7817 30.8498 73.7432 31.2515 73.7706 31.6514C73.77 31.9384 73.8408 32.221 73.9764 32.4732C74.0895 32.6676 74.2613 32.8203 74.4665 32.9087C74.6844 32.9991 74.9184 33.044 75.1542 33.0402C75.2939 33.0388 75.4331 33.0268 75.5712 33.0046C75.7263 32.9827 75.8799 32.9517 76.0315 32.9114C76.1479 32.8846 76.26 32.841 76.3645 32.7827L76.5676 33.41C76.4359 33.5096 76.2897 33.5881 76.1344 33.6428C75.9375 33.7127 75.7356 33.7666 75.5306 33.8044C75.3183 33.8469 75.1025 33.8699 74.8862 33.8729ZM79.2428 35.8862V34.996C79.3143 35.0182 79.3877 35.0327 79.4621 35.0398C79.5366 35.0513 79.6116 35.0576 79.6869 35.059C79.8365 35.0543 79.9841 35.0228 80.1228 34.9658C80.313 34.885 80.4764 34.7511 80.5939 34.5796C80.7745 34.3101 80.8929 34.0031 80.9405 33.6812L81.0001 33.8044H80.5371L78.8394 28.9615H80.0118L80.9541 31.9746L81.3494 33.3744H81.1138L81.4658 31.9746L82.2564 28.9615H83.4316L81.8611 33.9441C81.7244 34.4281 81.4953 34.8804 81.1869 35.2754C80.9654 35.554 80.6679 35.7607 80.3313 35.8698C80.2433 35.8994 80.1526 35.9204 80.0605 35.9328C79.9712 35.9495 79.8805 35.9588 79.7897 35.9602C79.7293 35.9632 79.6688 35.9632 79.6083 35.9602L79.3809 35.9328C79.3329 35.924 79.2864 35.9083 79.2428 35.8862ZM84.1843 33.8044V28.9697H85.1753V29.4902C85.3157 29.3896 85.4622 29.2981 85.614 29.2163C85.7974 29.1228 85.9886 29.0458 86.1853 28.9862C86.3882 28.9226 86.5985 28.8867 86.8108 28.8793C87.0128 28.8545 87.2178 28.878 87.4092 28.9479C87.6006 29.0179 87.7731 29.1323 87.9128 29.282C88.1402 29.5633 88.2539 30.0583 88.2539 30.7666V33.7935H87.1492V30.8625C87.1721 30.5713 87.1179 30.2791 86.9922 30.0161C86.8866 29.8463 86.67 29.7723 86.3369 29.7888C86.2263 29.795 86.1165 29.8124 86.0093 29.8408C85.8807 29.877 85.7548 29.9227 85.6329 29.9778C85.5043 30.0391 85.3826 30.1144 85.2701 30.2024V33.7935L84.1843 33.8044ZM91.43 35.9958C90.8875 36.0254 90.3477 35.8991 89.8731 35.6315C89.6968 35.5179 89.5536 35.3587 89.4585 35.1704C89.3633 34.9821 89.3195 34.7716 89.3316 34.5604C89.3279 34.3934 89.3721 34.2288 89.4589 34.0866C89.5412 33.9477 89.6509 33.8274 89.7811 33.7332C89.9037 33.6381 90.041 33.5642 90.1872 33.5141L90.856 33.599L90.6665 33.7661C90.5904 33.8334 90.5271 33.9141 90.4797 34.0044C90.422 34.1264 90.395 34.261 90.4011 34.3961C90.3973 34.5604 90.4336 34.7231 90.5067 34.87C90.5817 35.011 90.7022 35.1222 90.8479 35.185C91.049 35.2704 91.2663 35.3097 91.4842 35.3C91.707 35.3022 91.9292 35.2746 92.1449 35.2178C92.3221 35.177 92.4872 35.0945 92.6268 34.9768C92.685 34.9266 92.7315 34.8639 92.7629 34.7933C92.7942 34.7228 92.8097 34.646 92.8083 34.5686C92.8125 34.4254 92.7818 34.2834 92.7189 34.155C92.6479 34.0251 92.5308 33.9272 92.3913 33.8811C92.1628 33.8088 91.9237 33.7773 91.6846 33.788H91.1051C90.9589 33.788 90.8344 33.788 90.7179 33.7715C90.6159 33.762 90.5146 33.7455 90.4147 33.7222C90.377 33.7134 90.3412 33.6976 90.3091 33.6757C90.2764 33.6549 90.2408 33.6392 90.2035 33.6291C90.0231 33.5777 89.8667 33.4631 89.7621 33.3059C89.6821 33.1731 89.6399 33.0204 89.6403 32.8649C89.6457 32.7443 89.6752 32.6257 89.7269 32.517C89.7878 32.3893 89.8702 32.2735 89.9706 32.1746C90.0889 32.0579 90.224 31.96 90.3713 31.8842L91.0293 32.0294C90.9235 32.0765 90.8306 32.1489 90.7585 32.2403C90.6852 32.3255 90.644 32.4342 90.6421 32.5471C90.6342 32.6095 90.6417 32.673 90.6639 32.7317C90.6861 32.7905 90.7224 32.8428 90.7694 32.884C90.9032 32.9556 91.0545 32.987 91.2053 32.9744H92.0636C92.3699 32.9662 92.6758 33.0048 92.9707 33.0895C93.1724 33.1487 93.3579 33.2547 93.5123 33.399C93.6368 33.5182 93.7299 33.6669 93.783 33.8318C93.8337 33.9911 93.8593 34.1575 93.8588 34.3249C93.8628 34.5742 93.7961 34.8194 93.6666 35.0316C93.533 35.2457 93.3523 35.4257 93.1386 35.5575C92.8988 35.7051 92.6375 35.8133 92.3642 35.878C92.0587 35.9555 91.745 35.995 91.43 35.9958ZM91.3867 32.1609C91.0455 32.1663 90.7069 32.0991 90.393 31.9637C90.1165 31.8491 89.8766 31.6596 89.6998 31.4158C89.5305 31.1703 89.4424 30.8769 89.448 30.5776C89.4353 30.251 89.5233 29.9284 89.6998 29.6545C89.8713 29.4057 90.1129 29.2148 90.393 29.1067C90.7142 28.9807 91.0558 28.9166 91.4003 28.9177C91.7451 28.9072 92.0887 28.963 92.4129 29.082C92.6959 29.1861 92.9432 29.3707 93.125 29.6134C93.3115 29.8804 93.4066 30.2017 93.3958 30.5283C93.411 30.8415 93.327 31.1515 93.1561 31.413C92.9851 31.6746 92.7362 31.8742 92.4454 31.9828C92.1072 32.1105 91.7474 32.1691 91.3867 32.1554V32.1609ZM91.403 31.4788C91.6416 31.4917 91.8777 31.4243 92.0745 31.2871C92.1693 31.1919 92.2414 31.076 92.285 30.9483C92.3287 30.8205 92.3428 30.6844 92.3263 30.5503C92.3455 30.2971 92.268 30.0461 92.1097 29.849C92.022 29.7641 91.9176 29.6989 91.8033 29.6579C91.6889 29.6168 91.5672 29.6007 91.4463 29.6107C91.2863 29.609 91.1271 29.634 90.9752 29.6847C90.8358 29.7348 90.7174 29.8314 90.6394 29.9586C90.5448 30.1538 90.5027 30.3708 90.5175 30.5877C90.5322 30.8046 90.6032 31.0137 90.7233 31.194C90.8052 31.2937 90.9099 31.3718 91.0283 31.4214C91.1467 31.4711 91.2753 31.4908 91.403 31.4788ZM92.8435 29.7833L92.5943 29.3313C92.6981 29.2225 92.8224 29.1359 92.9599 29.0766C93.1524 28.9832 93.3637 28.9363 93.5772 28.9396H94.0836V29.7833H92.8435ZM94.6305 33.5086L94.7686 32.7033C94.8531 32.7597 94.9441 32.8057 95.0394 32.8402C95.1994 32.9051 95.364 32.9572 95.5322 32.9964C95.7265 33.0431 95.9254 33.0679 96.1252 33.0703C96.3377 33.0875 96.5506 33.0408 96.7371 32.9361C96.8015 32.8959 96.8544 32.8394 96.8905 32.7721C96.9267 32.7048 96.9447 32.6291 96.9429 32.5526C96.9435 32.495 96.9325 32.4378 96.9106 32.3846C96.8888 32.3314 96.8564 32.2833 96.8156 32.2431C96.7135 32.1433 96.5954 32.0618 96.4663 32.002C96.3201 31.9281 96.1522 31.8514 95.9681 31.7692C95.7177 31.6634 95.479 31.5312 95.256 31.3748C95.0691 31.2457 94.9129 31.0764 94.7984 30.879C94.6884 30.6723 94.6351 30.4396 94.6441 30.2051C94.6395 29.9396 94.7288 29.6813 94.8959 29.4765C95.0689 29.2757 95.2926 29.1261 95.543 29.0437C95.8343 28.9448 96.1401 28.8966 96.4474 28.9013C96.7265 28.8957 97.0052 28.9279 97.2759 28.9971C97.4368 29.0338 97.5931 29.089 97.7416 29.1615L97.6008 29.9832C97.5243 29.9272 97.4404 29.882 97.3517 29.849C97.2297 29.7981 97.1026 29.7605 96.9727 29.7367C96.8298 29.7094 96.6848 29.6956 96.5394 29.6956C96.3173 29.6822 96.0952 29.7235 95.8923 29.8161C95.8284 29.8458 95.7741 29.8932 95.7358 29.9529C95.6974 30.0125 95.6766 30.0819 95.6757 30.1531C95.669 30.2379 95.6848 30.3229 95.7214 30.3995C95.7581 30.4761 95.8143 30.5413 95.8842 30.5886C96.0558 30.7023 96.237 30.8003 96.4257 30.8817C96.7035 31.0107 96.9748 31.1542 97.238 31.3117C97.4484 31.4344 97.6325 31.5983 97.7795 31.7938C97.9149 31.9881 97.9845 32.2217 97.9772 32.4595C97.9896 32.6613 97.9526 32.8632 97.8695 33.0471C97.7863 33.2311 97.6597 33.3915 97.5006 33.5141C97.1184 33.7732 96.6631 33.8992 96.2037 33.8729C95.9805 33.8745 95.7576 33.8562 95.5376 33.8181C95.3466 33.7872 95.1584 33.7414 94.9744 33.6812C94.8526 33.6395 94.737 33.5815 94.6305 33.5086ZM100.468 33.8729C100.248 33.8781 100.03 33.837 99.8265 33.7524C99.6471 33.6678 99.5024 33.5225 99.4177 33.3415C99.3085 33.0889 99.2585 32.8143 99.2715 32.5389V29.7559H98.6677V29.1615C98.8789 29.1012 99.044 29.0464 99.1605 28.9999C99.2224 28.9767 99.2787 28.9402 99.3255 28.8929C99.3722 28.8456 99.4083 28.7887 99.4312 28.7259C99.4548 28.6602 99.4819 28.5835 99.5125 28.4959L99.6099 28.2028L99.7237 27.8604H100.382V28.956H101.692V29.7504H100.368V31.9938C100.362 32.2212 100.376 32.4485 100.411 32.6731C100.416 32.7281 100.432 32.7814 100.46 32.8289C100.487 32.8764 100.526 32.9168 100.571 32.947C100.676 32.9906 100.79 33.0103 100.904 33.0046C100.995 33.0037 101.086 32.9947 101.175 32.9772C101.274 32.9585 101.371 32.9348 101.467 32.906C101.543 32.8838 101.615 32.8536 101.684 32.8156L101.852 33.4456C101.746 33.5283 101.629 33.5965 101.505 33.6483C101.345 33.7159 101.179 33.7691 101.01 33.8072C100.832 33.8491 100.651 33.8712 100.468 33.8729ZM104.671 33.8729C104.368 33.8919 104.065 33.8422 103.784 33.7275C103.503 33.6128 103.251 33.436 103.046 33.21C102.641 32.6892 102.439 32.0363 102.477 31.3748C102.47 30.94 102.556 30.5089 102.732 30.112C102.894 29.7523 103.154 29.4471 103.482 29.2327C103.844 29.0065 104.264 28.8913 104.69 28.9013C104.924 28.8945 105.157 28.9278 105.38 28.9999C105.593 29.0716 105.789 29.1861 105.957 29.3368C106.131 29.4994 106.268 29.6985 106.357 29.9202C106.464 30.1873 106.519 30.473 106.517 30.7612V31.2487C106.516 31.3766 106.503 31.504 106.479 31.6295H103.1L103.187 30.9693H105.499C105.514 30.753 105.5 30.5356 105.459 30.3229C105.426 30.1415 105.337 29.9755 105.204 29.849C105.047 29.7191 104.846 29.6554 104.643 29.671C104.438 29.6672 104.237 29.7295 104.069 29.849C103.879 30.0057 103.744 30.2212 103.685 30.4626C103.583 30.8499 103.543 31.2514 103.569 31.6514C103.57 31.9385 103.642 32.2208 103.777 32.4732C103.889 32.6674 104.06 32.8201 104.264 32.9087C104.483 32.9991 104.717 33.0437 104.952 33.0402C105.092 33.0389 105.231 33.027 105.369 33.0046C105.524 32.9831 105.678 32.952 105.829 32.9114C105.947 32.8837 106.059 32.8405 106.165 32.7827L106.368 33.41C106.236 33.5097 106.089 33.588 105.932 33.6428C105.736 33.7129 105.534 33.7669 105.329 33.8044C105.112 33.848 104.892 33.8707 104.671 33.8729Z" fill="#5E2779"/>
<svg width="200" height="55" viewBox="0 0 200 55" fill="none" xmlns="http://www.w3.org/2000/svg">
<path d="M5.8433 13.4021V6.39175H6.63505C9.32784 6.39175 10.466 7.44742 10.466 9.83918C10.466 12.2309 9.62062 13.4021 6.83299 13.4021H5.8433ZM5.8433 26.0907V17.901H7.10515C9.66598 17.901 11.3897 19.0268 11.3897 21.8928C11.3897 24.5402 10.8247 26.0907 7.31134 26.0907H5.8433ZM17.3031 22.268C17.3031 18.6557 15.6536 16.6763 12.3876 15.5464C15.4103 14.6186 16.3175 11.8021 16.3175 9.41031C16.3175 5.20412 13.8433 1.71959 8.70928 1.71959H0V30.7588H9.20412C15.4268 30.7588 17.299 26.3835 17.299 22.268H17.3031ZM34.0041 0L33.1175 2.18557C31.7501 1.66291 30.2968 1.40134 28.833 1.41443C23.0309 1.41443 18.7423 5.0268 18.7423 11.9629V20.5526C18.7423 24.3381 20.0041 27.1052 22.066 28.8289L20.7629 31.9835H23.4474L24.2103 30.1773C25.6867 30.7877 27.2728 31.0881 28.8701 31.0598C34.6722 31.0598 38.9608 27.6124 38.9608 20.5072V11.9258C38.9608 8.01237 37.5711 5.16701 35.3031 3.38969L36.6928 0.0123711L34.0041 0ZM32.701 9.65773C32.7361 10.0318 32.7485 10.4082 32.7381 10.7835V21.7237C32.7381 25.2536 31.3567 26.2598 28.833 26.2598C27.8666 26.3429 26.9045 26.0571 26.1402 25.4598L32.701 9.65773ZM24.9773 21.8227V10.7546C24.9773 7.34845 26.3629 6.21856 28.8825 6.21856C29.6928 6.18438 30.4963 6.38024 31.2 6.78351L24.9773 21.8227ZM47.1546 13.4186V6.42474H48.8948C51.7814 6.42474 53.101 7.43505 53.101 9.65773C53.101 11.8804 52.1938 13.4021 48.8948 13.4021L47.1546 13.4186ZM54.0907 17.2412C56.7753 16.2351 58.7546 13.2124 58.7546 9.81856C58.7546 5.61237 56.2804 1.74845 50.6845 1.74845H41.2825V30.7876H47.1546V18.1485H48.4165L52.7835 30.7588H59.4845L54.0907 17.2412ZM66.6144 30.7546V12.0165L73.3897 30.7588H80.6474V1.71959H75.233V20.4165L68.3794 1.71959H61.1505V30.7588L66.6144 30.7546ZM97.5052 25.9175H89.6124V18.0206H96.8783V13.233H89.6041V6.56495H97.0845V1.71959H83.5711V30.7588H97.4433L97.5052 25.9175ZM105.839 13.4186V6.40825H106.627C109.32 6.40825 110.449 7.46392 110.449 9.85567C110.449 12.2474 109.625 13.4309 106.825 13.4309L105.839 13.4186ZM105.839 26.1113V17.901H107.101C109.662 17.901 111.386 19.0268 111.386 21.8928C111.386 24.5402 110.821 26.0907 107.307 26.0907L105.839 26.1113ZM117.27 22.2845C117.27 18.6722 115.621 16.6969 112.355 15.5629C115.381 14.6351 116.293 11.8186 116.293 9.4268C116.293 5.22062 113.819 1.73608 108.689 1.73608H99.9835V30.7753H109.188C115.406 30.7753 117.254 26.4 117.254 22.2845H117.27ZM119.361 30.7753H125.369V1.71959H119.361V30.7753ZM144.07 6.56495V1.71959H128.73V30.7588H134.742V18.0619H142.165V13.233H134.742V6.56495H144.07ZM161.724 6.56495V1.71959H146.379V30.7588H152.4V18.0619H159.823V13.233H152.4V6.56495H161.724ZM177.905 25.9464H170.025V18.0412H177.315V13.233H170.045V6.56495H177.53V1.71959H164.016V30.7588H177.885L177.905 25.9464ZM185.427 30.7835V12.0165L192.235 30.7588H199.509V1.71959H194.091V20.4165L187.233 1.71959H180.029V30.7588L185.427 30.7835ZM2.98969 50.9938C2.57545 50.9952 2.16176 50.9635 1.75258 50.899C1.41649 50.847 1.08454 50.7711 0.758763 50.6722C0.551225 50.6112 0.35078 50.5282 0.160825 50.4247L0.478351 49.0515C0.678351 49.1637 0.888247 49.2573 1.10515 49.332C1.37443 49.4276 1.6499 49.5047 1.9299 49.5629C2.23293 49.6217 2.5408 49.6521 2.84948 49.6536C3.30005 49.6817 3.7496 49.5847 4.14845 49.3732C4.29721 49.2731 4.41654 49.1351 4.49411 48.9734C4.57168 48.8117 4.60468 48.6323 4.58969 48.4536C4.59807 48.195 4.51969 47.9409 4.36701 47.732C4.17311 47.5051 3.93981 47.3151 3.67835 47.1711C3.36907 46.9938 2.98144 46.7918 2.51134 46.5691C2.10494 46.3728 1.7183 46.1381 1.3567 45.868C1.00814 45.6056 0.709288 45.283 0.474227 44.9155C0.258407 44.5414 0.138328 44.1198 0.124659 43.6882C0.11099 43.2565 0.204156 42.8282 0.395876 42.4412C0.574845 42.1217 0.82978 41.8512 1.13814 41.6536C1.46352 41.4451 1.82185 41.2931 2.19794 41.2041C3.11029 41.0081 4.0554 41.0237 4.96082 41.2495C5.26103 41.327 5.55052 41.4421 5.82268 41.5918L5.50928 42.9196C5.25167 42.7574 4.97455 42.6286 4.68454 42.5361C4.28487 42.4091 3.86661 42.3505 3.44742 42.3629C3.15681 42.3591 2.8674 42.4009 2.58969 42.4866C2.35673 42.5497 2.14469 42.6735 1.97526 42.8454C1.89742 42.9261 1.8368 43.0219 1.79711 43.1268C1.75741 43.2317 1.73945 43.3436 1.74433 43.4557C1.73608 43.7052 1.80041 43.9518 1.9299 44.1649C2.08412 44.3918 2.28866 44.5794 2.52784 44.7134C2.8 44.8825 3.15464 45.0804 3.59588 45.3113C3.94227 45.4804 4.27216 45.6619 4.59381 45.8515C4.90211 46.0351 5.1921 46.2477 5.45979 46.4866C5.70957 46.7109 5.91396 46.9811 6.06186 47.2825C6.21485 47.6012 6.29113 47.9518 6.28454 48.3052C6.30278 48.8319 6.15884 49.3515 5.87216 49.7938C5.58644 50.1967 5.18951 50.5077 4.7299 50.6887C4.17542 50.9034 3.58415 51.0071 2.98969 50.9938ZM10.7876 50.9938C10.3268 51.0232 9.86531 50.9488 9.43709 50.7761C9.00888 50.6033 8.62488 50.3367 8.3134 49.9959C7.69654 49.2118 7.38844 48.2289 7.44742 47.233C7.43563 46.5786 7.56797 45.9295 7.83505 45.332C8.08082 44.7915 8.47565 44.3323 8.9732 44.0082C9.52674 43.6678 10.1668 43.4946 10.8165 43.5093C11.1729 43.499 11.5284 43.5492 11.868 43.6577C12.1903 43.7669 12.4875 43.9394 12.7423 44.1649C13.0087 44.4094 13.2184 44.7092 13.3567 45.0433C13.5179 45.4458 13.5992 45.8759 13.5959 46.3093V47.0433C13.595 47.236 13.5743 47.4281 13.534 47.6165H8.38763L8.51959 46.6227H12.0412C12.0641 46.2968 12.0419 45.9693 11.9753 45.6495C11.9269 45.3768 11.7925 45.1268 11.5918 44.9361C11.3521 44.7405 11.0465 44.6446 10.7381 44.668C10.4256 44.6619 10.1193 44.7558 9.86392 44.9361C9.5721 45.1716 9.36507 45.4959 9.27423 45.8598C9.12165 46.4433 9.06392 47.0474 9.10103 47.6495C9.10204 48.0814 9.2097 48.5063 9.41443 48.8866C9.58802 49.1783 9.84922 49.4077 10.1608 49.5423C10.4928 49.6783 10.8495 49.746 11.2082 49.7402C11.421 49.7381 11.633 49.7204 11.8433 49.6866C12.0796 49.654 12.3134 49.607 12.5443 49.5464C12.7225 49.5047 12.8948 49.4396 13.0557 49.3526L13.3608 50.2969C13.1608 50.4478 12.9381 50.5661 12.701 50.6474C12.4012 50.7526 12.0936 50.8338 11.7814 50.8907C11.454 50.9555 11.1216 50.9901 10.7876 50.9938ZM23.9299 43.6L19.134 48.6268L19.2495 48.2557L19.2784 49.4928V50.8701H17.6289V40.2763H19.2784V45.5381L19.2041 47.3361L18.8619 47.0763L21.9711 43.6H23.9299ZM19.9959 47.3897L21.1216 46.2845L24.2144 50.8742H22.3258L19.9959 47.3897ZM27.9216 50.9938C27.3889 51.0099 26.8597 50.9026 26.3753 50.6804C25.9664 50.4836 25.6123 50.189 25.3443 49.8227C25.0774 49.4504 24.8842 49.0305 24.7753 48.5856C24.6553 48.1001 24.5985 47.6011 24.6062 47.101C24.5953 46.4163 24.757 45.7398 25.0763 45.134C25.3612 44.6186 25.7914 44.1984 26.3134 43.9258C26.8549 43.6465 27.4568 43.5049 28.066 43.5134C28.7601 43.4772 29.4473 43.6667 30.0247 44.0536C30.5116 44.4118 30.8783 44.9093 31.0763 45.4804C31.2948 46.0953 31.4 46.7452 31.3856 47.3979C31.3959 48.0852 31.2343 48.7642 30.9155 49.3732C30.6324 49.891 30.2018 50.313 29.6784 50.5856C29.136 50.8659 28.5321 51.0063 27.9216 50.9938ZM27.967 49.8186C28.2189 49.838 28.4714 49.7879 28.6968 49.6737C28.9222 49.5596 29.112 49.3857 29.2454 49.1711C29.5538 48.6079 29.6968 47.9689 29.6577 47.3278C29.6627 46.882 29.6044 46.4377 29.4845 46.0082C29.3941 45.6495 29.2106 45.3209 28.9526 45.0557C28.8272 44.9354 28.6791 44.8414 28.517 44.7791C28.3548 44.7168 28.1819 44.6875 28.0082 44.6928C27.7594 44.6729 27.5098 44.7197 27.285 44.8284C27.0603 44.9371 26.8687 45.1039 26.7299 45.3113C26.4199 45.8635 26.2766 46.4938 26.3175 47.1258C26.3116 47.5768 26.3685 48.0265 26.4866 48.4619C26.5806 48.8346 26.7711 49.1757 27.0392 49.4515C27.1616 49.5714 27.3067 49.6657 27.4661 49.7287C27.6254 49.7917 27.7957 49.8223 27.967 49.8186ZM32.9155 50.8907V43.6124H34.3505L34.4536 44.6062L34.5856 45.0928V50.8907H32.9155ZM34.4948 45.7402L34.4 44.6062C34.4976 44.4106 34.6387 44.2399 34.8124 44.1072C35.0372 43.9262 35.2873 43.7789 35.5546 43.6701C35.836 43.5546 36.1371 43.4944 36.4412 43.4928C36.5786 43.4858 36.7162 43.4858 36.8536 43.4928C36.9443 43.4977 37.0334 43.5233 37.1134 43.567V45.1546C37.0207 45.1047 36.9224 45.066 36.8206 45.0392C36.6169 44.9898 36.4074 44.969 36.1979 44.9773C35.941 44.9726 35.6853 45.0146 35.4433 45.101C35.2402 45.17 35.0484 45.2687 34.8742 45.3938C34.7365 45.4961 34.6091 45.6124 34.4948 45.7402ZM40.5526 50.9938C40.2191 51.002 39.8875 50.9402 39.5794 50.8124C39.305 50.6852 39.0834 50.4665 38.9526 50.1938C38.79 49.8126 38.7153 49.3996 38.734 48.9856V44.7959H37.8103V43.901C38.1361 43.8103 38.3835 43.7278 38.5649 43.6577C38.6594 43.6228 38.7451 43.5679 38.8163 43.4967C38.8875 43.4255 38.9424 43.3398 38.9773 43.2454C39.0144 43.1464 39.0515 43.0309 39.0969 42.899C39.1423 42.767 39.1959 42.6186 39.2495 42.4577L39.4227 41.9423H40.4247V43.5918H42.4412V44.7876H40.4247V48.1649C40.4148 48.5072 40.4371 48.8495 40.4907 49.1876C40.496 49.2702 40.5204 49.3503 40.5619 49.4219C40.6034 49.4934 40.6609 49.5544 40.7299 49.6C40.892 49.6656 41.0664 49.6953 41.2412 49.6866C41.3798 49.6854 41.5175 49.6718 41.6536 49.6454C41.8038 49.6173 41.9524 49.5815 42.099 49.5381C42.2132 49.5039 42.3237 49.4586 42.4289 49.4021L42.6845 50.3505C42.5212 50.4751 42.3423 50.5777 42.1526 50.6557C41.9101 50.7575 41.6586 50.8375 41.4021 50.8948C41.1235 50.9597 40.8386 50.9929 40.5526 50.9938ZM44.5402 50.8907V44.8041H43.4969V43.8557L44.5402 43.6V42.9402C44.5262 42.4787 44.6091 42.0193 44.7835 41.5918C44.9287 41.2588 45.1506 40.9649 45.4309 40.734C45.688 40.5234 45.9856 40.3676 46.3052 40.2763C46.6057 40.191 46.9164 40.1466 47.2289 40.1443C47.4498 40.1425 47.6705 40.1591 47.8887 40.1938C48.028 40.2115 48.1658 40.2392 48.301 40.2763V41.5134C48.1667 41.4693 48.0287 41.4376 47.8887 41.4186C47.6768 41.3905 47.4632 41.3781 47.2495 41.3814C47.1104 41.378 46.9724 41.4063 46.846 41.4642C46.7195 41.5221 46.6079 41.608 46.5196 41.7155C46.3079 42.0094 46.2071 42.3688 46.2351 42.7299V43.5876H47.9753V44.7918H46.2351V50.8783L44.5402 50.8907ZM50.1938 42.3959C49.9312 42.4012 49.6763 42.3069 49.4804 42.132C49.381 42.046 49.3022 41.9387 49.2501 41.818C49.198 41.6973 49.1738 41.5664 49.1794 41.4351C49.1781 41.2392 49.2371 41.0474 49.3485 40.8866C49.4536 40.7258 49.5946 40.5918 49.7608 40.4948C49.9291 40.3979 50.1196 40.3468 50.3134 40.3464C50.4449 40.3331 50.5778 40.3484 50.7028 40.3914C50.8279 40.4343 50.9421 40.5038 51.0377 40.5951C51.1333 40.6864 51.208 40.7974 51.2567 40.9203C51.3054 41.0432 51.3268 41.1752 51.3196 41.3072C51.3234 41.4533 51.2951 41.5984 51.2366 41.7324C51.1782 41.8664 51.0911 41.9859 50.9814 42.0825C50.7691 42.2845 50.4869 42.3968 50.1938 42.3959ZM49.4474 50.8907V43.6124H51.0969V50.8907H49.4474ZM53.3732 50.8907V40.2474H55.0557V50.8907H53.3732ZM57.2701 50.8907V43.6124H58.7918V44.3835C59.0036 44.2314 59.2254 44.0937 59.4557 43.9711C59.7314 43.8298 60.02 43.7151 60.3175 43.6289C60.6229 43.5367 60.9389 43.484 61.2577 43.4722C61.6912 43.4386 62.1258 43.5226 62.5155 43.7155C62.8511 43.9185 63.1017 44.2365 63.2206 44.6103C63.3876 45.1575 63.4627 45.7291 63.4433 46.301V50.8701H61.7938V46.4577C61.8014 46.14 61.7681 45.8226 61.6948 45.5134C61.6725 45.4068 61.6293 45.3056 61.5678 45.2157C61.5062 45.1258 61.4275 45.049 61.3361 44.9897C61.1007 44.8701 60.8357 44.8214 60.5732 44.8495C60.3082 44.8643 60.0469 44.9185 59.7979 45.0103C59.4994 45.1138 59.2206 45.2672 58.9732 45.4639V50.8701L57.2701 50.8907ZM63.3608 45.4969L63.0227 44.4495C63.225 44.2898 63.4433 44.1516 63.6742 44.0371C63.9677 43.8821 64.2757 43.7564 64.5938 43.6619C64.9326 43.5609 65.2836 43.5068 65.6371 43.501C66.0736 43.4767 66.5091 43.5633 66.9031 43.7526C67.2496 43.9456 67.5125 44.2599 67.6412 44.6351C67.8231 45.1781 67.9052 45.7493 67.8845 46.3217V50.899H66.2144V46.4866C66.2215 46.1678 66.1897 45.8493 66.1196 45.5381C66.0758 45.3255 65.9498 45.1388 65.7691 45.0186C65.5352 44.899 65.2715 44.8503 65.0103 44.8783C64.7266 44.8911 64.4474 44.9539 64.1856 45.0639C63.8931 45.172 63.6159 45.3176 63.3608 45.4969ZM72.3546 50.8907V43.6124H73.8598V44.3835C74.0719 44.2317 74.2936 44.094 74.5237 43.9711C74.8006 43.8293 75.0906 43.7146 75.3897 43.6289C75.6936 43.5364 76.0083 43.4838 76.3258 43.4722C76.7524 43.4424 77.1793 43.5263 77.5629 43.7155C77.8984 43.9187 78.1489 44.2366 78.268 44.6103C78.4351 45.1579 78.5101 45.7291 78.4907 46.301V50.8701H76.8412V46.4577C76.8488 46.14 76.8155 45.8226 76.7423 45.5134C76.7199 45.4068 76.6768 45.3056 76.6152 45.2157C76.5536 45.1258 76.4749 45.049 76.3835 44.9897C76.1496 44.8701 75.8859 44.8214 75.6247 44.8495C75.3584 44.8638 75.0956 44.918 74.8454 45.0103C74.5396 45.1117 74.2536 45.2652 74 45.4639V50.8701L72.3546 50.8907ZM78.4454 45.4969L78.1072 44.4495C78.3105 44.2891 78.5303 44.1509 78.7629 44.0371C79.0559 43.8813 79.3641 43.7555 79.6825 43.6619C80.0212 43.5605 80.3723 43.5063 80.7258 43.501C81.1609 43.4767 81.5951 43.5633 81.9876 43.7526C82.3263 43.9468 82.5827 44.2575 82.7093 44.6268C82.8907 45.1699 82.9732 45.741 82.9526 46.3134V50.8907H81.2784V46.4783C81.2845 46.1598 81.254 45.8415 81.1876 45.5299C81.1436 45.3174 81.0177 45.1308 80.8371 45.0103C80.6016 44.8912 80.3367 44.8425 80.0742 44.8701C79.7906 44.883 79.5114 44.9458 79.2495 45.0557C78.9638 45.1679 78.6935 45.3162 78.4454 45.4969ZM87.9629 50.9938C87.5022 51.0224 87.0409 50.9476 86.6128 50.7749C86.1847 50.6022 85.8007 50.3361 85.4887 49.9959C84.8718 49.2118 84.5637 48.2289 84.6227 47.233C84.6133 46.5788 84.7455 45.9303 85.0103 45.332C85.2565 44.7905 85.6529 44.331 86.1526 44.0082C86.7049 43.6685 87.3435 43.4952 87.9918 43.5093C88.3481 43.499 88.7037 43.5492 89.0433 43.6577C89.3674 43.7658 89.666 43.9381 89.9217 44.1649C90.1867 44.4097 90.395 44.7095 90.532 45.0433C90.6948 45.4454 90.7773 45.8755 90.7753 46.3093V47.0433C90.7736 47.2357 90.7543 47.4276 90.7175 47.6165H85.5629L85.6907 46.6227H89.2124C89.2345 46.297 89.2137 45.9698 89.1505 45.6495C89.1007 45.3764 88.9648 45.1265 88.7629 44.9361C88.5233 44.7405 88.2177 44.6446 87.9093 44.668C87.5968 44.6623 87.2906 44.7562 87.0351 44.9361C86.7445 45.172 86.5389 45.4963 86.4495 45.8598C86.2932 46.4427 86.2347 47.0474 86.2763 47.6495C86.2754 48.0816 86.3831 48.507 86.5897 48.8866C86.762 49.1793 87.0236 49.4091 87.3361 49.5423C87.668 49.6791 88.0245 49.7465 88.3835 49.7402C88.5963 49.7381 88.8083 49.72 89.0186 49.6866C89.2535 49.6539 89.4862 49.6071 89.7155 49.5464C89.894 49.5056 90.066 49.4404 90.2268 49.3526L90.5361 50.2969C90.3345 50.4478 90.1105 50.5661 89.8722 50.6474C89.5724 50.753 89.2652 50.8342 88.9526 50.8907C88.6264 50.9555 88.2953 50.9901 87.9629 50.9938ZM94.866 50.9938C94.3508 51.0003 93.8444 50.8599 93.4062 50.5889C92.968 50.3179 92.6161 49.9277 92.3918 49.4639C92.0993 48.8535 91.9579 48.1817 91.9794 47.5052C91.9624 46.7799 92.1209 46.0612 92.4412 45.4103C92.7259 44.8299 93.1709 44.3433 93.7237 44.0082C94.3081 43.6656 94.9764 43.4928 95.6536 43.5093C96.0346 43.499 96.4148 43.5505 96.7794 43.6619C96.9837 43.7177 97.1773 43.8069 97.3526 43.9258L96.8371 44.9856C96.6919 44.8718 96.5203 44.7966 96.3382 44.767C96.0919 44.7229 95.8419 44.7022 95.5918 44.7052C95.2531 44.7032 94.9219 44.8054 94.6433 44.9979C94.3393 45.2243 94.1049 45.5315 93.967 45.8845C93.7844 46.3491 93.6961 46.8453 93.7072 47.3443C93.6444 47.97 93.7894 48.5989 94.1196 49.134C94.2655 49.3198 94.4543 49.4675 94.6697 49.5645C94.8851 49.6614 95.1209 49.7047 95.3567 49.6907C95.6557 49.6953 95.9523 49.6362 96.2268 49.5175C96.4439 49.4297 96.6489 49.3147 96.8371 49.1753L97.0845 50C96.9814 50.1072 96.8412 50.2392 96.6722 50.4124C96.4616 50.5859 96.2251 50.725 95.9711 50.8247C95.6173 50.9525 95.2419 51.01 94.866 50.9938ZM96.9278 50.8907V49.9423L96.8289 49.8804V44.7959L96.8825 44.7588L96.8289 43.1794V40.2474H98.4784V50.8907H96.9278ZM105.39 50.9938C104.888 50.9992 104.395 50.868 103.963 50.6144C103.508 50.3373 103.144 49.9331 102.915 49.4515C102.623 48.8411 102.482 48.1693 102.503 47.4928C102.487 46.768 102.644 46.0498 102.961 45.3979C103.247 44.8185 103.692 44.3322 104.243 43.9959C104.829 43.6536 105.499 43.4808 106.177 43.4969C106.558 43.4866 106.939 43.5381 107.303 43.6495C107.507 43.7053 107.701 43.7945 107.876 43.9134L107.361 44.9732C107.214 44.8587 107.041 44.7834 106.858 44.7546C106.613 44.7106 106.364 44.6899 106.115 44.6928C105.777 44.6907 105.446 44.7929 105.167 44.9856C104.862 45.2105 104.627 45.5182 104.491 45.8722C104.308 46.3367 104.22 46.8329 104.231 47.332C104.17 47.9575 104.315 48.5859 104.643 49.1216C104.79 49.3068 104.979 49.4541 105.194 49.551C105.409 49.6479 105.645 49.6916 105.88 49.6783C106.179 49.6825 106.476 49.6235 106.751 49.5052C106.968 49.4173 107.173 49.3023 107.361 49.1629L107.608 49.9876C107.505 50.0948 107.361 50.2268 107.196 50.4C106.984 50.5743 106.746 50.7135 106.491 50.8124C106.139 50.9446 105.765 51.0063 105.39 50.9938ZM107.452 50.8907V49.9423L107.353 49.8804V44.7959L107.406 44.7588L107.353 43.1794V40.2474H109.002V50.8907H107.452ZM114.049 50.9938C113.589 51.022 113.128 50.9471 112.7 50.7744C112.272 50.6018 111.887 50.3358 111.575 49.9959C110.958 49.2118 110.65 48.2289 110.709 47.233C110.705 46.5767 110.846 45.9276 111.122 45.332C111.366 44.7906 111.761 44.3311 112.26 44.0082C112.813 43.6678 113.453 43.4945 114.103 43.5093C114.458 43.4992 114.812 43.5494 115.151 43.6577C115.475 43.7658 115.773 43.9381 116.029 44.1649C116.294 44.4097 116.502 44.7095 116.639 45.0433C116.802 45.4454 116.885 45.8755 116.882 46.3093V47.0433C116.883 47.2359 116.864 47.428 116.825 47.6165H111.629L111.757 46.6227H115.287C115.313 46.297 115.292 45.9692 115.225 45.6495C115.176 45.3768 115.042 45.1268 114.841 44.9361C114.6 44.7435 114.296 44.6479 113.988 44.668C113.675 44.661 113.368 44.755 113.113 44.9361C112.822 45.1716 112.614 45.4959 112.524 45.8598C112.367 46.4427 112.309 47.0474 112.351 47.6495C112.35 48.0816 112.457 48.507 112.664 48.8866C112.836 49.1793 113.098 49.4091 113.41 49.5423C113.742 49.6783 114.099 49.746 114.458 49.7402C114.671 49.7381 114.882 49.72 115.093 49.6866C115.329 49.6536 115.563 49.607 115.794 49.5464C115.971 49.506 116.142 49.4404 116.301 49.3526L116.61 50.2969C116.41 50.4469 116.187 50.5651 115.951 50.6474C115.651 50.7526 115.343 50.8338 115.031 50.8907C114.708 50.9546 114.379 50.9893 114.049 50.9938ZM120.685 54.0247V52.6845C120.793 52.7179 120.905 52.7398 121.019 52.7505C121.132 52.7678 121.246 52.7773 121.361 52.7794C121.589 52.7724 121.813 52.7249 122.025 52.6392C122.314 52.5175 122.563 52.3158 122.742 52.0577C123.017 51.652 123.198 51.1898 123.27 50.7052L123.361 50.8907H122.656L120.07 43.6H121.856L123.291 48.1361L123.893 50.2433H123.534L124.07 48.1361L125.274 43.6H127.064L124.672 51.101C124.464 51.8297 124.115 52.5105 123.645 53.1052C123.308 53.5246 122.855 53.8358 122.342 54C122.208 54.0445 122.07 54.0763 121.93 54.0948C121.794 54.12 121.656 54.134 121.518 54.1361C121.425 54.1406 121.333 54.1406 121.241 54.1361L120.895 54.0948C120.822 54.0817 120.751 54.0581 120.685 54.0247ZM128.21 50.8907V43.6124H129.72V44.3959C129.933 44.2444 130.156 44.1067 130.388 43.9835C130.667 43.8428 130.958 43.7269 131.258 43.6371C131.567 43.5415 131.887 43.4874 132.21 43.4763C132.518 43.4389 132.83 43.4742 133.122 43.5795C133.413 43.6848 133.676 43.8571 133.889 44.0825C134.235 44.506 134.408 45.2511 134.408 46.3175V50.8742H132.726V46.4619C132.761 46.0234 132.678 45.5836 132.487 45.1876C132.326 44.932 131.996 44.8206 131.489 44.8454C131.32 44.8547 131.153 44.8809 130.99 44.9237C130.794 44.9781 130.602 45.047 130.417 45.1299C130.221 45.2222 130.035 45.3356 129.864 45.468V50.8742L128.21 50.8907ZM139.245 54.1897C138.419 54.2343 137.597 54.0441 136.874 53.6412C136.606 53.4702 136.388 53.2306 136.243 52.9472C136.098 52.6637 136.031 52.3467 136.049 52.0289C136.044 51.7773 136.111 51.5296 136.243 51.3155C136.369 51.1064 136.536 50.9253 136.734 50.7835C136.921 50.6404 137.13 50.5291 137.353 50.4536L138.371 50.5814L138.082 50.833C137.967 50.9343 137.87 51.0559 137.798 51.1918C137.71 51.3754 137.669 51.578 137.678 51.7814C137.673 52.0289 137.728 52.2738 137.839 52.4948C137.953 52.7072 138.137 52.8746 138.359 52.9691C138.665 53.0976 138.996 53.1568 139.328 53.1423C139.667 53.1455 140.006 53.1039 140.334 53.0186C140.604 52.9571 140.855 52.8328 141.068 52.6557C141.157 52.5801 141.227 52.4857 141.275 52.3795C141.323 52.2732 141.347 52.1577 141.344 52.0412C141.351 51.8256 141.304 51.6118 141.208 51.4186C141.1 51.2229 140.922 51.0756 140.709 51.0062C140.361 50.8973 139.997 50.8499 139.633 50.866H138.751C138.528 50.866 138.338 50.866 138.161 50.8412C138.005 50.8268 137.851 50.802 137.699 50.767C137.642 50.7537 137.587 50.7299 137.538 50.6969C137.488 50.6656 137.434 50.642 137.377 50.6268C137.103 50.5494 136.864 50.3769 136.705 50.1402C136.583 49.9402 136.519 49.7105 136.52 49.4763C136.528 49.2948 136.573 49.1163 136.652 48.9526C136.744 48.7604 136.87 48.586 137.023 48.4371C137.203 48.2614 137.409 48.114 137.633 48L138.635 48.2186C138.474 48.2894 138.332 48.3984 138.223 48.5361C138.111 48.6643 138.048 48.8279 138.045 48.9979C138.033 49.0919 138.045 49.1874 138.079 49.2759C138.112 49.3644 138.168 49.4431 138.239 49.5052C138.443 49.6129 138.673 49.6601 138.903 49.6412H140.21C140.677 49.6289 141.143 49.687 141.592 49.8144C141.899 49.9035 142.181 50.0631 142.417 50.2804C142.606 50.4598 142.748 50.6837 142.829 50.932C142.906 51.1718 142.945 51.4223 142.944 51.6742C142.95 52.0496 142.849 52.4188 142.652 52.7381C142.448 53.0606 142.173 53.3315 141.847 53.5299C141.482 53.7521 141.084 53.915 140.668 54.0124C140.203 54.129 139.725 54.1885 139.245 54.1897ZM139.179 48.4165C138.66 48.4246 138.144 48.3234 137.666 48.1196C137.245 47.9472 136.88 47.6618 136.61 47.2948C136.352 46.9253 136.218 46.4835 136.227 46.033C136.207 45.5412 136.341 45.0556 136.61 44.6433C136.872 44.2687 137.239 43.9814 137.666 43.8186C138.155 43.6289 138.675 43.5324 139.2 43.534C139.725 43.5182 140.248 43.6022 140.742 43.7814C141.173 43.9381 141.55 44.2159 141.827 44.5814C142.111 44.9833 142.256 45.467 142.239 45.9588C142.262 46.4303 142.134 46.8968 141.874 47.2906C141.614 47.6844 141.235 47.9849 140.792 48.1484C140.277 48.3406 139.729 48.4289 139.179 48.4082V48.4165ZM139.204 47.3897C139.568 47.4091 139.927 47.3076 140.227 47.101C140.371 46.9578 140.481 46.7833 140.547 46.591C140.614 46.3987 140.635 46.1937 140.61 45.9918C140.64 45.6106 140.521 45.2328 140.28 44.9361C140.147 44.8082 139.988 44.7102 139.814 44.6483C139.64 44.5865 139.454 44.5623 139.27 44.5773C139.026 44.5748 138.784 44.6124 138.553 44.6887C138.34 44.7642 138.16 44.9096 138.041 45.101C137.897 45.3949 137.833 45.7216 137.856 46.0481C137.878 46.3746 137.986 46.6894 138.169 46.9608C138.294 47.111 138.453 47.2285 138.634 47.3033C138.814 47.378 139.01 47.4077 139.204 47.3897ZM141.398 44.8371L141.019 44.1567C141.177 43.9929 141.366 43.8625 141.575 43.7732C141.868 43.6326 142.19 43.562 142.515 43.567H143.287V44.8371H141.398ZM144.12 50.4454L144.33 49.233C144.459 49.3179 144.597 49.3872 144.742 49.4392C144.986 49.5369 145.237 49.6153 145.493 49.6742C145.789 49.7446 146.092 49.782 146.396 49.7856C146.72 49.8114 147.044 49.7411 147.328 49.5835C147.426 49.5231 147.507 49.4379 147.562 49.3367C147.617 49.2354 147.644 49.1214 147.641 49.0062C147.642 48.9194 147.625 48.8334 147.592 48.7533C147.559 48.6732 147.51 48.6007 147.447 48.5402C147.292 48.39 147.112 48.2673 146.915 48.1773C146.693 48.066 146.437 47.9505 146.157 47.8268C145.775 47.6675 145.412 47.4685 145.072 47.233C144.788 47.0387 144.55 46.7838 144.375 46.4866C144.208 46.1755 144.127 45.8252 144.14 45.4722C144.133 45.0725 144.269 44.6835 144.524 44.3753C144.787 44.073 145.128 43.8478 145.509 43.7237C145.953 43.5748 146.419 43.5023 146.887 43.5093C147.312 43.5009 147.736 43.5494 148.148 43.6536C148.394 43.7089 148.631 43.7919 148.858 43.901L148.643 45.1381C148.527 45.0538 148.399 44.9858 148.264 44.9361C148.078 44.8595 147.884 44.8028 147.687 44.767C147.469 44.7258 147.248 44.7051 147.027 44.7052C146.688 44.6849 146.35 44.7472 146.041 44.8866C145.944 44.9313 145.861 45.0027 145.803 45.0924C145.744 45.1822 145.713 45.2867 145.711 45.3938C145.701 45.5215 145.725 45.6495 145.781 45.7648C145.837 45.8801 145.922 45.9783 146.029 46.0495C146.29 46.2206 146.566 46.3682 146.854 46.4907C147.277 46.6849 147.69 46.901 148.091 47.1381C148.411 47.3228 148.692 47.5696 148.915 47.8639C149.122 48.1563 149.228 48.508 149.216 48.866C149.235 49.1699 149.179 49.4737 149.052 49.7507C148.926 50.0276 148.733 50.269 148.491 50.4536C147.909 50.8437 147.215 51.0334 146.515 50.9938C146.176 50.9963 145.836 50.9687 145.501 50.9113C145.21 50.8648 144.923 50.7959 144.643 50.7052C144.458 50.6425 144.282 50.5551 144.12 50.4454ZM153.01 50.9938C152.675 51.0016 152.343 50.9398 152.033 50.8124C151.76 50.6851 151.539 50.4663 151.41 50.1938C151.244 49.8136 151.168 49.4001 151.188 48.9856V44.7959H150.268V43.901C150.59 43.8103 150.841 43.7278 151.019 43.6577C151.113 43.6228 151.199 43.5678 151.27 43.4967C151.341 43.4255 151.396 43.3398 151.431 43.2454C151.467 43.1464 151.508 43.0309 151.555 42.899L151.703 42.4577L151.876 41.9423H152.878V43.5918H154.874V44.7876H152.858V48.1649C152.848 48.5072 152.87 48.8495 152.924 49.1876C152.93 49.2704 152.955 49.3506 152.997 49.4221C153.04 49.4936 153.098 49.5545 153.167 49.6C153.327 49.6656 153.501 49.6953 153.674 49.6866C153.813 49.6854 153.951 49.6718 154.087 49.6454C154.237 49.6173 154.385 49.5815 154.532 49.5381C154.647 49.5047 154.757 49.4594 154.862 49.4021L155.118 50.3505C154.956 50.4751 154.778 50.5777 154.59 50.6557C154.346 50.7575 154.093 50.8375 153.835 50.8948C153.565 50.958 153.288 50.9912 153.01 50.9938ZM159.41 50.9938C158.95 51.0224 158.488 50.9476 158.06 50.7749C157.632 50.6022 157.248 50.3361 156.936 49.9959C156.319 49.2118 156.011 48.2289 156.07 47.233C156.058 46.5785 156.191 45.9295 156.458 45.332C156.704 44.7905 157.1 44.331 157.6 44.0082C158.152 43.6677 158.791 43.4944 159.439 43.5093C159.796 43.499 160.151 43.5492 160.491 43.6577C160.815 43.7658 161.113 43.9381 161.369 44.1649C161.634 44.4097 161.842 44.7095 161.979 45.0433C162.142 45.4454 162.225 45.8755 162.223 46.3093V47.0433C162.221 47.2357 162.202 47.4276 162.165 47.6165H157.019L157.151 46.6227H160.672C160.694 46.297 160.674 45.9698 160.61 45.6495C160.56 45.3764 160.425 45.1265 160.223 44.9361C159.983 44.7405 159.677 44.6446 159.369 44.668C159.057 44.6623 158.75 44.7562 158.495 44.9361C158.204 45.172 157.999 45.4963 157.909 45.8598C157.753 46.4428 157.694 47.0472 157.732 47.6495C157.734 48.0817 157.843 48.5067 158.049 48.8866C158.22 49.179 158.481 49.4088 158.792 49.5423C159.124 49.6783 159.48 49.7456 159.839 49.7402C160.052 49.7382 160.264 49.7203 160.474 49.6866C160.711 49.6543 160.945 49.6075 161.175 49.5464C161.354 49.5047 161.525 49.4395 161.687 49.3526L161.996 50.2969C161.794 50.447 161.57 50.5649 161.332 50.6474C161.032 50.753 160.725 50.8342 160.412 50.8907C160.082 50.9563 159.747 50.9905 159.41 50.9938Z" fill="#5E2779"/>
</svg>
