<svg width="131" height="36" viewBox="0 0 131 36" fill="none" xmlns="http://www.w3.org/2000/svg">
<path d="M3.83677 8.90239V4.24575H4.35665C6.12476 4.24575 6.87208 4.94699 6.87208 6.53572C6.87208 8.12446 6.317 8.90239 4.48662 8.90239H3.83677ZM3.83677 17.3309V11.8908H4.66532C6.34679 11.8908 7.4786 12.6386 7.4786 14.5424C7.4786 16.301 7.10765 17.3309 4.80071 17.3309H3.83677ZM11.3614 14.7917C11.3614 12.3921 10.2783 11.0773 8.13385 10.3268C10.1186 9.71045 10.7143 7.83958 10.7143 6.25084C10.7143 3.45687 9.08966 1.14224 5.71861 1.14224H0V20.4317H6.04353C10.1294 20.4317 11.3587 17.5254 11.3587 14.7917H11.3614ZM22.3275 0L21.7453 1.45177C20.8475 1.1046 19.8932 0.93085 18.9321 0.939544C15.1224 0.939544 12.3064 3.33908 12.3064 7.94641V13.6522C12.3064 16.1667 13.1349 18.0047 14.4888 19.1497L13.6331 21.2452H15.3958L15.8968 20.0454C16.8662 20.4509 17.9076 20.6504 18.9564 20.6316C22.7661 20.6316 25.5821 18.3417 25.5821 13.622V7.92175C25.5821 5.32226 24.6696 3.43221 23.1804 2.25162L24.0929 0.00821759L22.3275 0ZM21.4719 6.4152C21.4949 6.66364 21.503 6.91373 21.4962 7.163V14.4301C21.4962 16.7748 20.5892 17.4432 18.9321 17.4432C18.2975 17.4984 17.6658 17.3085 17.1639 16.9118L21.4719 6.4152ZM16.4004 14.4958V7.14382C16.4004 4.88125 17.3102 4.13071 18.9646 4.13071C19.4966 4.108 20.0242 4.23811 20.4863 4.50598L16.4004 14.4958ZM30.9623 8.91334V4.26767H32.1049C34.0003 4.26767 34.8667 4.93877 34.8667 6.4152C34.8667 7.89162 34.271 8.90239 32.1049 8.90239L30.9623 8.91334ZM35.5166 11.4526C37.2793 10.7842 38.5789 8.77638 38.5789 6.52203C38.5789 3.72805 36.9543 1.16142 33.28 1.16142H27.1065V20.4508H30.9623V12.0552H31.7908L34.6582 20.4317H39.0582L35.5166 11.4526ZM43.7398 20.4289V7.98202L48.1885 20.4317H52.954V1.14224H49.3988V13.5618L44.8987 1.14224H40.1521V20.4317L43.7398 20.4289ZM64.023 17.2158H58.8405V11.9703H63.6114V8.79008H58.8351V4.3608H63.7468V1.14224H54.8737V20.4317H63.9823L64.023 17.2158ZM69.4952 8.91334V4.25671H70.0123C71.7805 4.25671 72.5224 4.95794 72.5224 6.54668C72.5224 8.13541 71.9808 8.92156 70.1423 8.92156L69.4952 8.91334ZM69.4952 17.3446V11.8908H70.3237C72.0052 11.8908 73.137 12.6386 73.137 14.5424C73.137 16.301 72.766 17.3309 70.4591 17.3309L69.4952 17.3446ZM77.0008 14.8026C77.0008 12.4031 75.9178 11.091 73.7733 10.3377C75.7607 9.72141 76.3591 7.85054 76.3591 6.2618C76.3591 3.46782 74.7345 1.1532 71.3662 1.1532H65.6503V20.4426H71.6938C75.777 20.4426 76.99 17.5363 76.99 14.8026H77.0008ZM78.3736 20.4426H82.3187V1.14224H78.3736V20.4426ZM94.598 4.3608V1.14224H84.5255V20.4317H88.4733V11.9977H93.3471V8.79008H88.4733V4.3608H94.598ZM106.19 4.3608V1.14224H96.1143V20.4317H100.068V11.9977H104.941V8.79008H100.068V4.3608H106.19ZM116.814 17.235H111.64V11.984H116.427V8.79008H111.654V4.3608H116.568V1.14224H107.695V20.4317H116.801L116.814 17.235ZM121.753 20.4481V7.98202L126.224 20.4317H131V1.14224H127.442V13.5618L122.939 1.14224H118.209V20.4317L121.753 20.4481ZM1.96306 33.8729C1.69107 33.8738 1.41944 33.8528 1.15076 33.8099C0.930086 33.7754 0.712118 33.725 0.498212 33.6592C0.361941 33.6187 0.230326 33.5636 0.105599 33.4949L0.31409 32.5827C0.445412 32.6572 0.583233 32.7194 0.725657 32.769C0.902468 32.8326 1.08334 32.8838 1.26719 32.9224C1.46617 32.9615 1.66832 32.9816 1.871 32.9827C2.16685 33.0013 2.46203 32.9369 2.72392 32.7964C2.8216 32.7299 2.89995 32.6382 2.95088 32.5308C3.00181 32.4234 3.02348 32.3042 3.01364 32.1856C3.01915 32.0137 2.96768 31.845 2.86743 31.7062C2.74011 31.5555 2.58692 31.4293 2.41525 31.3337C2.21217 31.2159 1.95765 31.0817 1.64897 30.9337C1.38213 30.8034 1.12825 30.6474 0.890825 30.4681C0.661958 30.2938 0.465726 30.0795 0.311383 29.8353C0.169673 29.5868 0.0908275 29.3068 0.0818525 29.0201C0.0728775 28.7334 0.134051 28.4488 0.259937 28.1918C0.37745 27.9796 0.544843 27.7999 0.747318 27.6686C0.960964 27.5301 1.19624 27.4291 1.44319 27.37C2.04225 27.2399 2.66282 27.2502 3.25733 27.4002C3.45445 27.4517 3.64453 27.5281 3.82324 27.6275L3.61745 28.5096C3.4483 28.4018 3.26634 28.3162 3.07592 28.2548C2.81349 28.1704 2.53886 28.1315 2.26362 28.1398C2.0728 28.1373 1.88276 28.165 1.70042 28.2219C1.54745 28.2638 1.40823 28.3461 1.29698 28.4602C1.24586 28.5139 1.20607 28.5775 1.18 28.6472C1.15393 28.7169 1.14214 28.7912 1.14535 28.8656C1.13993 29.0314 1.18217 29.1952 1.26719 29.3368C1.36846 29.4874 1.50276 29.6121 1.6598 29.7011C1.83851 29.8134 2.07137 29.9449 2.36109 30.0983C2.58854 30.2106 2.80515 30.3311 3.01635 30.4571C3.21878 30.579 3.40919 30.7203 3.58496 30.879C3.74897 31.028 3.88317 31.2074 3.98028 31.4076C4.08074 31.6194 4.13083 31.8522 4.1265 32.0869C4.13848 32.4368 4.04396 32.782 3.85573 33.0758C3.66812 33.3434 3.40749 33.55 3.1057 33.6702C2.74163 33.8128 2.35339 33.8817 1.96306 33.8729ZM7.08328 33.8729C6.78071 33.8924 6.47767 33.843 6.1965 33.7282C5.91533 33.6135 5.66319 33.4364 5.45867 33.21C5.05363 32.6892 4.85133 32.0363 4.89006 31.3748C4.88232 30.94 4.96921 30.5089 5.14458 30.112C5.30596 29.753 5.5652 29.4479 5.8919 29.2327C6.25536 29.0066 6.67565 28.8915 7.10223 28.9013C7.33624 28.8944 7.56969 28.9278 7.79269 28.9999C8.00429 29.0724 8.19945 29.1869 8.36671 29.3368C8.54167 29.4992 8.67937 29.6983 8.77016 29.9202C8.87603 30.1876 8.92937 30.4733 8.9272 30.7612V31.2487C8.92664 31.3767 8.91303 31.5043 8.88659 31.6295H5.50741L5.59406 30.9693H7.90641C7.92145 30.7529 7.90687 30.5353 7.86309 30.3229C7.83133 30.1418 7.74308 29.9757 7.61127 29.849C7.45394 29.7191 7.25327 29.6554 7.05078 29.671C6.84557 29.6669 6.64444 29.7293 6.47676 29.849C6.28515 30.0055 6.14921 30.2209 6.08956 30.4626C5.98938 30.8502 5.95147 31.2515 5.97584 31.6514C5.9765 31.9383 6.04719 32.2206 6.18162 32.4732C6.2956 32.6669 6.46711 32.8193 6.67171 32.9087C6.88968 32.9991 7.12389 33.044 7.35946 33.0402C7.49918 33.0388 7.63835 33.027 7.77644 33.0046C7.93159 32.9829 8.08512 32.9517 8.23675 32.9114C8.35372 32.8838 8.4669 32.8405 8.5725 32.7827L8.77287 33.41C8.6415 33.5102 8.49529 33.5888 8.33964 33.6428C8.14279 33.7127 7.9408 33.7666 7.73583 33.8044C7.52084 33.8474 7.3026 33.8704 7.08328 33.8729ZM15.7126 28.9615L12.5636 32.3006L12.6394 32.0541L12.6584 32.8758V33.7907H11.5753V26.7537H12.6584V30.2489L12.6096 31.4432L12.3849 31.2707L14.4265 28.9615H15.7126ZM13.1295 31.4788L13.8687 30.7447L15.8995 33.7935H14.6593L13.1295 31.4788ZM18.3337 33.8729C17.9839 33.8836 17.6364 33.8123 17.3183 33.6647C17.0498 33.534 16.8173 33.3383 16.6414 33.095C16.4661 32.8477 16.3392 32.5688 16.2677 32.2732C16.1889 31.9507 16.1516 31.6193 16.1567 31.2871C16.1495 30.8323 16.2557 30.3829 16.4654 29.9805C16.6524 29.6381 16.9349 29.359 17.2777 29.1779C17.6332 28.9924 18.0284 28.8983 18.4284 28.904C18.8842 28.8799 19.3354 29.0058 19.7146 29.2628C20.0343 29.5008 20.275 29.8312 20.405 30.2106C20.5485 30.619 20.6176 31.0507 20.6081 31.4843C20.6149 31.9409 20.5088 32.3919 20.2994 32.7964C20.1136 33.1404 19.8308 33.4207 19.4871 33.6017C19.131 33.7879 18.7345 33.8812 18.3337 33.8729ZM18.3634 33.0922C18.5289 33.1051 18.6946 33.0719 18.8426 32.996C18.9906 32.9202 19.1152 32.8047 19.2028 32.6622C19.4054 32.288 19.4992 31.8636 19.4736 31.4377C19.4769 31.1416 19.4386 30.8465 19.3599 30.5612C19.3005 30.3229 19.18 30.1046 19.0106 29.9285C18.9283 29.8486 18.831 29.7861 18.7246 29.7447C18.6181 29.7034 18.5045 29.6839 18.3905 29.6874C18.2271 29.6742 18.0632 29.7053 17.9157 29.7775C17.7681 29.8497 17.6423 29.9605 17.5511 30.0983C17.3476 30.4651 17.2535 30.8837 17.2804 31.3035C17.2765 31.6031 17.3138 31.9018 17.3914 32.191C17.4531 32.4387 17.5782 32.6652 17.7542 32.8484C17.8346 32.9281 17.9299 32.9907 18.0345 33.0325C18.1391 33.0744 18.251 33.0947 18.3634 33.0922ZM21.6127 33.8044V28.9697H22.5549L22.6226 29.6299L22.7093 29.9531V33.8044H21.6127ZM22.6497 30.3832L22.5874 29.6299C22.6515 29.5 22.7441 29.3866 22.8582 29.2984C23.0058 29.1782 23.17 29.0804 23.3456 29.0081C23.5303 28.9314 23.728 28.8914 23.9277 28.8903C24.0179 28.8856 24.1083 28.8856 24.1985 28.8903C24.2581 28.8936 24.3165 28.9106 24.3691 28.9396V29.9942C24.3082 29.9611 24.2437 29.9353 24.1768 29.9175C24.0431 29.8847 23.9055 29.8709 23.768 29.8764C23.5992 29.8733 23.4314 29.9011 23.2725 29.9586C23.1391 30.0044 23.0132 30.07 22.8988 30.1531C22.8084 30.221 22.7247 30.2982 22.6497 30.3832ZM26.6273 33.8729C26.4083 33.8784 26.1906 33.8373 25.9883 33.7524C25.8081 33.6679 25.6626 33.5226 25.5767 33.3415C25.47 33.0882 25.4209 32.8139 25.4332 32.5389V29.7559H24.8267V29.1615C25.0406 29.1012 25.203 29.0464 25.3222 28.9999C25.3842 28.9767 25.4405 28.9402 25.4872 28.8929C25.5339 28.8456 25.57 28.7887 25.5929 28.7259C25.6173 28.6602 25.6417 28.5835 25.6715 28.4959C25.7012 28.4082 25.7364 28.3096 25.7716 28.2028L25.8854 27.8604H26.5433V28.956H27.8674V29.7504H26.5433V31.9938C26.5368 32.2212 26.5515 32.4485 26.5867 32.6731C26.5902 32.728 26.6062 32.7812 26.6334 32.8287C26.6606 32.8763 26.6984 32.9168 26.7437 32.947C26.8501 32.9906 26.9646 33.0103 27.0795 33.0046C27.1704 33.0037 27.2609 32.9947 27.3502 32.9772C27.4488 32.9585 27.5464 32.9348 27.6426 32.906C27.7177 32.8832 27.7902 32.8531 27.8593 32.8156L28.0271 33.4456C27.9199 33.5283 27.8024 33.5965 27.6778 33.6483C27.5186 33.7159 27.3535 33.7691 27.1851 33.8072C27.0022 33.8502 26.815 33.8723 26.6273 33.8729ZM29.2456 33.8044V29.7614H28.5606V29.1313L29.2456 28.9615V28.5232C29.2364 28.2167 29.2908 27.9115 29.4053 27.6275C29.5007 27.4064 29.6464 27.2112 29.8305 27.0578C29.9993 26.9179 30.1946 26.8144 30.4045 26.7537C30.6018 26.697 30.8058 26.6676 31.011 26.6661C31.1561 26.6649 31.301 26.6759 31.4442 26.6989C31.5357 26.7107 31.6262 26.7291 31.715 26.7537V27.5755C31.6268 27.5462 31.5362 27.5251 31.4442 27.5125C31.3051 27.4939 31.1648 27.4856 31.0245 27.4878C30.9332 27.4856 30.8426 27.5044 30.7596 27.5428C30.6765 27.5812 30.6033 27.6383 30.5453 27.7097C30.4063 27.905 30.3401 28.1437 30.3584 28.3835V28.9533H31.5011V29.7531H30.3584V33.7962L29.2456 33.8044ZM32.9578 28.1617C32.7854 28.1652 32.618 28.1026 32.4894 27.9864C32.4241 27.9293 32.3724 27.858 32.3382 27.7778C32.3039 27.6976 32.2881 27.6107 32.2917 27.5234C32.2909 27.3933 32.3296 27.266 32.4027 27.1591C32.4718 27.0523 32.5644 26.9633 32.6735 26.8989C32.784 26.8345 32.9091 26.8006 33.0363 26.8003C33.1227 26.7915 33.2099 26.8017 33.292 26.8302C33.3741 26.8587 33.4492 26.9049 33.5119 26.9655C33.5747 27.0262 33.6238 27.0998 33.6557 27.1815C33.6877 27.2632 33.7018 27.3508 33.697 27.4385C33.6995 27.5356 33.6809 27.632 33.6425 27.721C33.6042 27.8099 33.547 27.8893 33.475 27.9535C33.3355 28.0877 33.1503 28.1623 32.9578 28.1617ZM32.4677 33.8044V28.9697H33.5508V33.8044H32.4677ZM35.0454 33.8044V26.7346H36.1502V33.8044H35.0454ZM37.6042 33.8044V28.9697H38.6033V29.482C38.7424 29.3809 38.8881 29.2894 39.0393 29.208C39.2203 29.1141 39.4098 29.038 39.6052 28.9807C39.8057 28.9194 40.0132 28.8845 40.2225 28.8766C40.5071 28.8543 40.7925 28.9101 41.0483 29.0382C41.2688 29.1731 41.4333 29.3843 41.5114 29.6326C41.621 29.9961 41.6703 30.3758 41.6576 30.7557V33.7907H40.5745V30.8598C40.5795 30.6487 40.5576 30.4379 40.5095 30.2325C40.4949 30.1617 40.4665 30.0945 40.4261 30.0348C40.3856 29.9751 40.3339 29.924 40.274 29.8846C40.1194 29.8052 39.9454 29.7728 39.773 29.7915C39.599 29.8013 39.4275 29.8373 39.264 29.8983C39.068 29.9671 38.8849 30.069 38.7225 30.1996V33.7907L37.6042 33.8044ZM41.6034 30.2215L41.3814 29.5258C41.5142 29.4197 41.6576 29.3279 41.8092 29.2519C42.0019 29.1489 42.2041 29.0654 42.413 29.0026C42.6355 28.9355 42.866 28.8996 43.0981 28.8958C43.3846 28.8796 43.6706 28.9371 43.9293 29.0629C44.1568 29.1911 44.3295 29.3998 44.414 29.6491C44.5334 30.0098 44.5873 30.3892 44.5737 30.7694V33.8099H43.4771V30.879C43.4818 30.6672 43.4609 30.4556 43.4149 30.2489C43.3861 30.1077 43.3034 29.9837 43.1847 29.9038C43.0311 29.8244 42.858 29.792 42.6865 29.8107C42.5002 29.8191 42.3169 29.8608 42.145 29.9339C41.9529 30.0058 41.7709 30.1024 41.6034 30.2215ZM47.5089 33.8044V28.9697H48.4972V29.482C48.6364 29.3811 48.782 29.2896 48.9331 29.208C49.1149 29.1138 49.3053 29.0377 49.5017 28.9807C49.7013 28.9193 49.9079 28.8843 50.1164 28.8766C50.3965 28.8568 50.6768 28.9126 50.9287 29.0382C51.1489 29.1732 51.3134 29.3844 51.3917 29.6326C51.5013 29.9964 51.5506 30.3758 51.5379 30.7557V33.7907H50.4548V30.8598C50.4598 30.6487 50.4379 30.4379 50.3898 30.2325C50.3752 30.1617 50.3468 30.0945 50.3064 30.0348C50.2659 29.9751 50.2143 29.924 50.1543 29.8846C50.0007 29.8052 49.8275 29.7728 49.656 29.7915C49.4811 29.801 49.3086 29.837 49.1443 29.8983C48.9435 29.9657 48.7557 30.0676 48.5892 30.1996V33.7907L47.5089 33.8044ZM51.5081 30.2215L51.2861 29.5258C51.4195 29.4193 51.5639 29.3274 51.7166 29.2519C51.909 29.1483 52.1113 29.0648 52.3204 29.0026C52.5428 28.9353 52.7733 28.8993 53.0054 28.8958C53.2911 28.8796 53.5762 28.9371 53.834 29.0629C54.0563 29.1919 54.2247 29.3983 54.3078 29.6436C54.427 30.0043 54.4811 30.3837 54.4676 30.7639V33.8044H53.3683V30.8735C53.3723 30.6619 53.3523 30.4505 53.3087 30.2435C53.2798 30.1023 53.1971 29.9783 53.0785 29.8983C52.9239 29.8192 52.75 29.7868 52.5776 29.8052C52.3914 29.8138 52.208 29.8555 52.0361 29.9285C51.8485 30.003 51.671 30.1015 51.5081 30.2215ZM57.7574 33.8729C57.4549 33.8919 57.152 33.8422 56.8709 33.7275C56.5899 33.6128 56.3377 33.436 56.1328 33.21C55.7278 32.6892 55.5255 32.0363 55.5642 31.3748C55.558 30.9402 55.6449 30.5094 55.8187 30.112C55.9804 29.7523 56.2407 29.4471 56.5687 29.2327C56.9314 29.007 57.3507 28.8919 57.7764 28.9013C58.0104 28.8945 58.2438 28.9278 58.4668 28.9999C58.6796 29.0716 58.8757 29.1861 59.0436 29.3368C59.2176 29.4994 59.3543 29.6985 59.4443 29.9202C59.5512 30.1873 59.6054 30.473 59.604 30.7612V31.2487C59.6029 31.3766 59.5903 31.504 59.5661 31.6295H56.1815L56.2655 30.9693H58.5778C58.5924 30.753 58.5787 30.5356 58.5372 30.3229C58.5045 30.1415 58.4153 29.9755 58.2827 29.849C58.1254 29.7191 57.9247 29.6554 57.7222 29.671C57.517 29.6672 57.316 29.7295 57.1482 29.849C56.9574 30.0057 56.8224 30.2212 56.7637 30.4626C56.6611 30.8498 56.6226 31.2515 56.65 31.6514C56.6494 31.9384 56.7201 32.221 56.8558 32.4732C56.9689 32.6676 57.1406 32.8203 57.3458 32.9087C57.5638 32.9996 57.7979 33.0443 58.0336 33.0402C58.1733 33.0388 58.3125 33.0268 58.4506 33.0046C58.6048 32.9828 58.7576 32.9517 58.9082 32.9114C59.0254 32.8843 59.1383 32.841 59.2439 32.7827L59.447 33.41C59.3147 33.5102 59.1675 33.5888 59.0111 33.6428C58.8142 33.7129 58.6125 33.7669 58.4072 33.8044C58.1931 33.8474 57.9756 33.8704 57.7574 33.8729ZM62.2901 33.8729C61.9518 33.8772 61.6193 33.7839 61.3316 33.6039C61.0438 33.424 60.8128 33.1647 60.6654 32.8567C60.4734 32.4512 60.3806 32.0049 60.3947 31.5555C60.3836 31.0738 60.4876 30.5964 60.6979 30.164C60.8848 29.7785 61.1771 29.4553 61.54 29.2327C61.9237 29.0051 62.3626 28.8903 62.8072 28.9013C63.0574 28.8944 63.3071 28.9286 63.5464 29.0026C63.6805 29.0397 63.8077 29.0989 63.9228 29.1779L63.5843 29.8819C63.489 29.8063 63.3763 29.7563 63.2567 29.7367C63.095 29.7074 62.9309 29.6937 62.7666 29.6956C62.5442 29.6943 62.3268 29.7622 62.1438 29.8901C61.9442 30.0405 61.7903 30.2445 61.6998 30.479C61.5799 30.7876 61.5219 31.1172 61.5292 31.4487C61.488 31.8643 61.5831 32.2821 61.8 32.6375C61.8958 32.7609 62.0197 32.859 62.1612 32.9234C62.3026 32.9878 62.4574 33.0166 62.6123 33.0073C62.8086 33.0103 63.0033 32.9711 63.1836 32.8923C63.3261 32.8339 63.4608 32.7575 63.5843 32.6649L63.7468 33.2127C63.6791 33.284 63.587 33.3716 63.476 33.4867C63.3378 33.6019 63.1824 33.6944 63.0157 33.7606C62.7834 33.8455 62.5369 33.8836 62.2901 33.8729ZM63.6439 33.8044V33.1744L63.5789 33.1333V29.7559L63.6141 29.7312L63.5789 28.6821V26.7346H64.662V33.8044H63.6439ZM69.2 33.8729C68.8709 33.8765 68.5471 33.7893 68.2632 33.6209C67.9643 33.4368 67.7253 33.1683 67.5754 32.8484C67.3834 32.4429 67.2906 31.9967 67.3047 31.5473C67.2939 31.0659 67.397 30.5888 67.6052 30.1558C67.793 29.7709 68.085 29.4479 68.4473 29.2245C68.8321 28.9971 69.2717 28.8824 69.7172 28.893C69.9674 28.8862 70.217 28.9204 70.4564 28.9944C70.5905 29.0315 70.7177 29.0907 70.8328 29.1697L70.4943 29.8737C70.3982 29.7976 70.2845 29.7476 70.164 29.7285C70.0032 29.6992 69.84 29.6855 69.6766 29.6874C69.4542 29.686 69.2367 29.7539 69.0538 29.8819C68.8533 30.0313 68.6992 30.2357 68.6098 30.4708C68.4899 30.7794 68.4319 31.109 68.4392 31.4405C68.3991 31.856 68.4942 32.2734 68.71 32.6293C68.8061 32.7523 68.9301 32.8501 69.0715 32.9145C69.2129 32.9789 69.3675 33.0079 69.5223 32.9991C69.7186 33.0018 69.9133 32.9626 70.0936 32.884C70.2361 32.8257 70.3708 32.7493 70.4943 32.6567L70.6568 33.2045C70.5891 33.2758 70.4943 33.3634 70.386 33.4785C70.2471 33.5942 70.0908 33.6867 69.923 33.7524C69.6922 33.8402 69.4465 33.8812 69.2 33.8729ZM70.5539 33.8044V33.1744L70.4889 33.1333V29.7559L70.5241 29.7312L70.4889 28.6821V26.7346H71.572V33.8044H70.5539ZM74.8862 33.8729C74.5837 33.8916 74.2809 33.8419 73.9998 33.7272C73.7188 33.6125 73.4665 33.4358 73.2616 33.21C72.8565 32.6892 72.6542 32.0363 72.6929 31.3748C72.6903 30.9388 72.7827 30.5076 72.9637 30.112C73.1242 29.7524 73.3837 29.4472 73.711 29.2327C74.0745 29.0066 74.4948 28.8915 74.9214 28.9013C75.1545 28.8946 75.387 28.9279 75.6091 28.9999C75.8219 29.0716 76.018 29.1861 76.1858 29.3368C76.3599 29.4994 76.4966 29.6985 76.5866 29.9202C76.6935 30.1873 76.7477 30.473 76.7463 30.7612V31.2487C76.7466 31.3767 76.7339 31.5043 76.7084 31.6295H73.2968L73.3807 30.9693H75.6985C75.7157 30.753 75.702 30.5353 75.6578 30.3229C75.6262 30.1418 75.5379 29.9757 75.406 29.849C75.2477 29.7211 75.0478 29.6576 74.8455 29.671C74.6403 29.6663 74.4389 29.7287 74.2715 29.849C74.0799 30.0054 73.9439 30.2209 73.8843 30.4626C73.7817 30.8498 73.7432 31.2515 73.7706 31.6514C73.77 31.9384 73.8408 32.221 73.9764 32.4732C74.0895 32.6676 74.2613 32.8203 74.4665 32.9087C74.6844 32.9991 74.9184 33.044 75.1542 33.0402C75.2939 33.0388 75.4331 33.0268 75.5712 33.0046C75.7263 32.9827 75.8799 32.9517 76.0315 32.9114C76.1479 32.8846 76.26 32.841 76.3645 32.7827L76.5676 33.41C76.4359 33.5096 76.2897 33.5881 76.1344 33.6428C75.9375 33.7127 75.7356 33.7666 75.5306 33.8044C75.3183 33.8469 75.1025 33.8699 74.8862 33.8729ZM79.2428 35.8862V34.996C79.3143 35.0182 79.3877 35.0327 79.4621 35.0398C79.5366 35.0513 79.6116 35.0576 79.6869 35.059C79.8365 35.0543 79.9841 35.0228 80.1228 34.9658C80.313 34.885 80.4764 34.7511 80.5939 34.5796C80.7745 34.3101 80.8929 34.0031 80.9405 33.6812L81.0001 33.8044H80.5371L78.8394 28.9615H80.0118L80.9541 31.9746L81.3494 33.3744H81.1138L81.4658 31.9746L82.2564 28.9615H83.4316L81.8611 33.9441C81.7244 34.4281 81.4953 34.8804 81.1869 35.2754C80.9654 35.554 80.6679 35.7607 80.3313 35.8698C80.2433 35.8994 80.1526 35.9204 80.0605 35.9328C79.9712 35.9495 79.8805 35.9588 79.7897 35.9602C79.7293 35.9632 79.6688 35.9632 79.6083 35.9602L79.3809 35.9328C79.3329 35.924 79.2864 35.9083 79.2428 35.8862ZM84.1843 33.8044V28.9697H85.1753V29.4902C85.3157 29.3896 85.4622 29.2981 85.614 29.2163C85.7974 29.1228 85.9886 29.0458 86.1853 28.9862C86.3882 28.9226 86.5985 28.8867 86.8108 28.8793C87.0128 28.8545 87.2178 28.878 87.4092 28.9479C87.6006 29.0179 87.7731 29.1323 87.9128 29.282C88.1402 29.5633 88.2539 30.0583 88.2539 30.7666V33.7935H87.1492V30.8625C87.1721 30.5713 87.1179 30.2791 86.9922 30.0161C86.8866 29.8463 86.67 29.7723 86.3369 29.7888C86.2263 29.795 86.1165 29.8124 86.0093 29.8408C85.8807 29.877 85.7548 29.9227 85.6329 29.9778C85.5043 30.0391 85.3826 30.1144 85.2701 30.2024V33.7935L84.1843 33.8044ZM91.43 35.9958C90.8875 36.0254 90.3477 35.8991 89.8731 35.6315C89.6968 35.5179 89.5536 35.3587 89.4585 35.1704C89.3633 34.9821 89.3195 34.7716 89.3316 34.5604C89.3279 34.3934 89.3721 34.2288 89.4589 34.0866C89.5412 33.9477 89.6509 33.8274 89.7811 33.7332C89.9037 33.6381 90.041 33.5642 90.1872 33.5141L90.856 33.599L90.6665 33.7661C90.5904 33.8334 90.5271 33.9141 90.4797 34.0044C90.422 34.1264 90.395 34.261 90.4011 34.3961C90.3973 34.5604 90.4336 34.7231 90.5067 34.87C90.5817 35.011 90.7022 35.1222 90.8479 35.185C91.049 35.2704 91.2663 35.3097 91.4842 35.3C91.707 35.3022 91.9292 35.2746 92.1449 35.2178C92.3221 35.177 92.4872 35.0945 92.6268 34.9768C92.685 34.9266 92.7315 34.8639 92.7629 34.7933C92.7942 34.7228 92.8097 34.646 92.8083 34.5686C92.8125 34.4254 92.7818 34.2834 92.7189 34.155C92.6479 34.0251 92.5308 33.9272 92.3913 33.8811C92.1628 33.8088 91.9237 33.7773 91.6846 33.788H91.1051C90.9589 33.788 90.8344 33.788 90.7179 33.7715C90.6159 33.762 90.5146 33.7455 90.4147 33.7222C90.377 33.7134 90.3412 33.6976 90.3091 33.6757C90.2764 33.6549 90.2408 33.6392 90.2035 33.6291C90.0231 33.5777 89.8667 33.4631 89.7621 33.3059C89.6821 33.1731 89.6399 33.0204 89.6403 32.8649C89.6457 32.7443 89.6752 32.6257 89.7269 32.517C89.7878 32.3893 89.8702 32.2735 89.9706 32.1746C90.0889 32.0579 90.224 31.96 90.3713 31.8842L91.0293 32.0294C90.9235 32.0765 90.8306 32.1489 90.7585 32.2403C90.6852 32.3255 90.644 32.4342 90.6421 32.5471C90.6342 32.6095 90.6417 32.673 90.6639 32.7317C90.6861 32.7905 90.7224 32.8428 90.7694 32.884C90.9032 32.9556 91.0545 32.987 91.2053 32.9744H92.0636C92.3699 32.9662 92.6758 33.0048 92.9707 33.0895C93.1724 33.1487 93.3579 33.2547 93.5123 33.399C93.6368 33.5182 93.7299 33.6669 93.783 33.8318C93.8337 33.9911 93.8593 34.1575 93.8588 34.3249C93.8628 34.5742 93.7961 34.8194 93.6666 35.0316C93.533 35.2457 93.3523 35.4257 93.1386 35.5575C92.8988 35.7051 92.6375 35.8133 92.3642 35.878C92.0587 35.9555 91.745 35.995 91.43 35.9958ZM91.3867 32.1609C91.0455 32.1663 90.7069 32.0991 90.393 31.9637C90.1165 31.8491 89.8766 31.6596 89.6998 31.4158C89.5305 31.1703 89.4424 30.8769 89.448 30.5776C89.4353 30.251 89.5233 29.9284 89.6998 29.6545C89.8713 29.4057 90.1129 29.2148 90.393 29.1067C90.7142 28.9807 91.0558 28.9166 91.4003 28.9177C91.7451 28.9072 92.0887 28.963 92.4129 29.082C92.6959 29.1861 92.9432 29.3707 93.125 29.6134C93.3115 29.8804 93.4066 30.2017 93.3958 30.5283C93.411 30.8415 93.327 31.1515 93.1561 31.413C92.9851 31.6746 92.7362 31.8742 92.4454 31.9828C92.1072 32.1105 91.7474 32.1691 91.3867 32.1554V32.1609ZM91.403 31.4788C91.6416 31.4917 91.8777 31.4243 92.0745 31.2871C92.1693 31.1919 92.2414 31.076 92.285 30.9483C92.3287 30.8205 92.3428 30.6844 92.3263 30.5503C92.3455 30.2971 92.268 30.0461 92.1097 29.849C92.022 29.7641 91.9176 29.6989 91.8033 29.6579C91.6889 29.6168 91.5672 29.6007 91.4463 29.6107C91.2863 29.609 91.1271 29.634 90.9752 29.6847C90.8358 29.7348 90.7174 29.8314 90.6394 29.9586C90.5448 30.1538 90.5027 30.3708 90.5175 30.5877C90.5322 30.8046 90.6032 31.0137 90.7233 31.194C90.8052 31.2937 90.9099 31.3718 91.0283 31.4214C91.1467 31.4711 91.2753 31.4908 91.403 31.4788ZM92.8435 29.7833L92.5943 29.3313C92.6981 29.2225 92.8224 29.1359 92.9599 29.0766C93.1524 28.9832 93.3637 28.9363 93.5772 28.9396H94.0836V29.7833H92.8435ZM94.6305 33.5086L94.7686 32.7033C94.8531 32.7597 94.9441 32.8057 95.0394 32.8402C95.1994 32.9051 95.364 32.9572 95.5322 32.9964C95.7265 33.0431 95.9254 33.0679 96.1252 33.0703C96.3377 33.0875 96.5506 33.0408 96.7371 32.9361C96.8015 32.8959 96.8544 32.8394 96.8905 32.7721C96.9267 32.7048 96.9447 32.6291 96.9429 32.5526C96.9435 32.495 96.9325 32.4378 96.9106 32.3846C96.8888 32.3314 96.8564 32.2833 96.8156 32.2431C96.7135 32.1433 96.5954 32.0618 96.4663 32.002C96.3201 31.9281 96.1522 31.8514 95.9681 31.7692C95.7177 31.6634 95.479 31.5312 95.256 31.3748C95.0691 31.2457 94.9129 31.0764 94.7984 30.879C94.6884 30.6723 94.6351 30.4396 94.6441 30.2051C94.6395 29.9396 94.7288 29.6813 94.8959 29.4765C95.0689 29.2757 95.2926 29.1261 95.543 29.0437C95.8343 28.9448 96.1401 28.8966 96.4474 28.9013C96.7265 28.8957 97.0052 28.9279 97.2759 28.9971C97.4368 29.0338 97.5931 29.089 97.7416 29.1615L97.6008 29.9832C97.5243 29.9272 97.4404 29.882 97.3517 29.849C97.2297 29.7981 97.1026 29.7605 96.9727 29.7367C96.8298 29.7094 96.6848 29.6956 96.5394 29.6956C96.3173 29.6822 96.0952 29.7235 95.8923 29.8161C95.8284 29.8458 95.7741 29.8932 95.7358 29.9529C95.6974 30.0125 95.6766 30.0819 95.6757 30.1531C95.669 30.2379 95.6848 30.3229 95.7214 30.3995C95.7581 30.4761 95.8143 30.5413 95.8842 30.5886C96.0558 30.7023 96.237 30.8003 96.4257 30.8817C96.7035 31.0107 96.9748 31.1542 97.238 31.3117C97.4484 31.4344 97.6325 31.5983 97.7795 31.7938C97.9149 31.9881 97.9845 32.2217 97.9772 32.4595C97.9896 32.6613 97.9526 32.8632 97.8695 33.0471C97.7863 33.2311 97.6597 33.3915 97.5006 33.5141C97.1184 33.7732 96.6631 33.8992 96.2037 33.8729C95.9805 33.8745 95.7576 33.8562 95.5376 33.8181C95.3466 33.7872 95.1584 33.7414 94.9744 33.6812C94.8526 33.6395 94.737 33.5815 94.6305 33.5086ZM100.468 33.8729C100.248 33.8781 100.03 33.837 99.8265 33.7524C99.6471 33.6678 99.5024 33.5225 99.4177 33.3415C99.3085 33.0889 99.2585 32.8143 99.2715 32.5389V29.7559H98.6677V29.1615C98.8789 29.1012 99.044 29.0464 99.1605 28.9999C99.2224 28.9767 99.2787 28.9402 99.3255 28.8929C99.3722 28.8456 99.4083 28.7887 99.4312 28.7259C99.4548 28.6602 99.4819 28.5835 99.5125 28.4959L99.6099 28.2028L99.7237 27.8604H100.382V28.956H101.692V29.7504H100.368V31.9938C100.362 32.2212 100.376 32.4485 100.411 32.6731C100.416 32.7281 100.432 32.7814 100.46 32.8289C100.487 32.8764 100.526 32.9168 100.571 32.947C100.676 32.9906 100.79 33.0103 100.904 33.0046C100.995 33.0037 101.086 32.9947 101.175 32.9772C101.274 32.9585 101.371 32.9348 101.467 32.906C101.543 32.8838 101.615 32.8536 101.684 32.8156L101.852 33.4456C101.746 33.5283 101.629 33.5965 101.505 33.6483C101.345 33.7159 101.179 33.7691 101.01 33.8072C100.832 33.8491 100.651 33.8712 100.468 33.8729ZM104.671 33.8729C104.368 33.8919 104.065 33.8422 103.784 33.7275C103.503 33.6128 103.251 33.436 103.046 33.21C102.641 32.6892 102.439 32.0363 102.477 31.3748C102.47 30.94 102.556 30.5089 102.732 30.112C102.894 29.7523 103.154 29.4471 103.482 29.2327C103.844 29.0065 104.264 28.8913 104.69 28.9013C104.924 28.8945 105.157 28.9278 105.38 28.9999C105.593 29.0716 105.789 29.1861 105.957 29.3368C106.131 29.4994 106.268 29.6985 106.357 29.9202C106.464 30.1873 106.519 30.473 106.517 30.7612V31.2487C106.516 31.3766 106.503 31.504 106.479 31.6295H103.1L103.187 30.9693H105.499C105.514 30.753 105.5 30.5356 105.459 30.3229C105.426 30.1415 105.337 29.9755 105.204 29.849C105.047 29.7191 104.846 29.6554 104.643 29.671C104.438 29.6672 104.237 29.7295 104.069 29.849C103.879 30.0057 103.744 30.2212 103.685 30.4626C103.583 30.8499 103.543 31.2514 103.569 31.6514C103.57 31.9385 103.642 32.2208 103.777 32.4732C103.889 32.6674 104.06 32.8201 104.264 32.9087C104.483 32.9991 104.717 33.0437 104.952 33.0402C105.092 33.0389 105.231 33.027 105.369 33.0046C105.524 32.9831 105.678 32.952 105.829 32.9114C105.947 32.8837 106.059 32.8405 106.165 32.7827L106.368 33.41C106.236 33.5097 106.089 33.588 105.932 33.6428C105.736 33.7129 105.534 33.7669 105.329 33.8044C105.112 33.848 104.892 33.8707 104.671 33.8729Z" fill="#5E2779"/>
</svg>
