<svg width="292" height="250" viewBox="0 0 292 250" fill="none" xmlns="http://www.w3.org/2000/svg">
<g clip-path="url(#clip0_1117_4663)">
<path d="M146.951 93.0909L146.936 93.161M268.075 75.0222L250.089 159.121C248.434 166.862 240.816 171.795 233.075 170.139L120.944 146.159C113.203 144.503 108.27 136.886 109.925 129.145L127.911 45.0466C129.566 37.3056 137.184 32.3723 144.925 34.0278L257.056 58.0083C264.797 59.6638 269.73 67.2812 268.075 75.0222Z" stroke="#FFF6ED" stroke-width="5" stroke-linecap="round" stroke-linejoin="round"/>
</g>
<path d="M51.4998 138.584H51.5428M25.7498 41.2506H77.2498C81.9903 41.2506 85.8332 46.6978 85.8332 53.4173V150.751C85.8332 157.47 81.9903 162.917 77.2498 162.917H25.7498C21.0094 162.917 17.1665 157.47 17.1665 150.751V53.4173C17.1665 46.6978 21.0094 41.2506 25.7498 41.2506Z" stroke="#FFF6ED" stroke-width="5" stroke-linecap="round" stroke-linejoin="round"/>
<path d="M113.932 218.82C112.386 219.705 110.431 220.023 108.216 219.816C103.775 219.399 98.5508 216.888 94.2546 213.287C89.9449 209.675 86.7443 205.115 86.1059 200.737C85.7911 198.578 86.0976 196.462 87.2009 194.478C88.311 192.482 90.2705 190.542 93.3801 188.832L94.8331 188.033L93.475 187.151C90.3373 185.112 87.1897 182.392 85.0573 179.146C82.934 175.915 81.8449 172.214 82.6935 168.131C83.8474 162.621 89.4842 158.753 94.7833 158.99L95.6854 159.03L95.7558 158.071C95.9153 155.934 96.7534 154.511 97.917 153.607C99.1098 152.682 100.739 152.232 102.554 152.271C106.215 152.349 110.231 154.401 112.077 157.632L112.446 158.279L113.134 158.023L113.44 157.914C116.622 156.836 120.375 157.178 124.025 158.546C127.785 159.955 131.341 162.42 133.901 165.358C136.473 168.311 137.951 171.633 137.788 174.757C137.628 177.807 135.885 180.936 131.451 183.554L129.956 184.437L131.433 185.253C135.866 187.703 138.029 192.278 137.837 196.642C137.647 200.973 135.141 205.154 130.048 206.914L130.048 206.913L130.037 206.918C127.98 207.661 125.359 208.187 123.444 208.205C122.454 208.214 121.808 208.084 121.505 207.91C121.473 207.891 121.451 207.875 121.436 207.863C121.442 207.837 121.453 207.799 121.476 207.746C121.481 207.734 121.486 207.722 121.492 207.71L119.854 206.926C119.852 206.931 119.851 206.936 119.849 206.94L119.848 206.94C118.818 209.284 117.981 211.716 117.347 214.205C116.663 216.482 115.455 217.948 113.932 218.82Z" fill="#EC5E55" stroke="#EC5E55" stroke-width="1.875"/>
<path d="M116.182 169.616C111.602 171.803 113.711 182.037 115.338 186.881C117.396 185.218 122.584 185.277 124.921 185.514C123.917 179.304 120.763 167.43 116.182 169.616Z" fill="white" stroke="black"/>
<path d="M116.127 179.974C114.278 180.688 114.859 184.82 115.349 186.785C116.199 186.196 118.387 185.358 119.29 185.528C119.083 183.043 117.976 179.261 116.127 179.974Z" fill="black" stroke="black"/>
<path d="M99.0833 171.78C94.5028 173.966 96.6121 184.201 98.2394 189.045C100.297 187.382 105.485 187.44 107.822 187.678C106.818 181.467 103.664 169.593 99.0833 171.78Z" fill="white" stroke="black"/>
<path d="M101.571 181.845C99.7226 182.558 99.7446 186.112 100.235 188.077C101.085 187.488 103.748 187.459 104.734 187.399C104.527 184.914 103.42 181.132 101.571 181.845Z" fill="black" stroke="black"/>
<path d="M105.438 198.548C109.304 199.525 118.068 200.61 122.199 197.13C119.54 202.156 112.465 209.477 105.438 198.548Z" fill="white" stroke="black" stroke-width="2"/>
<path d="M102.9 194.327C101.358 193.966 97.9225 196.757 101.371 200.121" stroke="black" stroke-width="2" stroke-linecap="round"/>
<path d="M126.25 198.846C127.72 197.877 128.511 192.726 123.459 192.764" stroke="black" stroke-width="2" stroke-linecap="round"/>
<path d="M111.792 190.518L110.101 193.758L113.135 193.383" stroke="black" stroke-width="2" stroke-linecap="round"/>
<path d="M160.477 162.292L155.57 180.249C155.4 181.815 153.018 185.516 144.858 187.798C136.698 190.079 133.99 191.608 133.656 192.087M160.477 162.292L160.527 159.117M160.477 162.292L163.542 157.259M160.477 162.292L165.214 158.387" stroke="#66B3A0" stroke-width="4" stroke-linecap="round"/>
<path d="M68.1407 170.21L73.048 188.167C73.2186 189.732 75.5999 193.434 83.7599 195.715C91.9198 197.997 94.6278 199.525 94.9618 200.005M68.1407 170.21L68.0908 167.035M68.1407 170.21L65.0759 165.176M68.1407 170.21L63.4046 166.304" stroke="#66B3A0" stroke-width="4" stroke-linecap="round"/>
<path d="M109.681 219.21L107.38 223.517C105.454 227.123 105.804 231.357 108.27 234.293L111.972 238.7C113.472 240.486 114.381 242.849 113.539 245.165C113.219 246.045 112.783 246.869 112.2 247.429" stroke="#66B3A0" stroke-width="4" stroke-linecap="round"/>
<path d="M122.41 209.21L124.71 213.517C126.636 217.123 126.287 221.357 123.821 224.293L120.119 228.7C118.619 230.486 117.71 232.849 118.552 235.165C118.872 236.045 119.308 236.869 119.89 237.429" stroke="#66B3A0" stroke-width="4" stroke-linecap="round"/>
<defs>
<clipPath id="clip0_1117_4663">
<rect width="172" height="172" fill="white" transform="translate(291.084 35.9707) rotate(102.072)"/>
</clipPath>
</defs>
</svg>
