<svg width="608" height="630" viewBox="0 0 608 630" fill="none" xmlns="http://www.w3.org/2000/svg">
<path d="M344.499 128.817C360.824 104.557 393.643 103.273 419.242 108.18C389.379 18.09 576.222 44.9301 543.499 104.242C534.062 121.417 532.736 126.294 532.736 126.294C536.101 117.314 550.567 133.682 557.566 146.687C575.336 179.761 541.619 212.866 506.03 203.553C525.672 270.1 417.161 266.622 394.947 223.26C368.164 230.305 331.965 204.179 352.488 180.888C338.611 168.764 333.254 145.563 344.499 128.817Z" fill="#FFE7BA"/>
<path d="M37.6446 129.477C52.9643 106.412 83.6322 105.134 107.537 109.747C79.8825 24.256 254.385 49.4064 223.647 105.784C214.782 122.11 213.53 126.744 213.53 126.744C216.698 118.211 230.17 133.727 236.674 146.063C253.187 177.437 221.592 208.932 188.365 200.153C206.535 263.307 105.158 260.199 84.521 219.065C59.4773 225.803 25.7265 201.06 44.9666 178.907C32.034 167.42 27.0922 145.399 37.6446 129.477Z" fill="#FFC7B7"/>
<path d="M47.077 349.098C74.3861 303.643 127.165 300.301 168.068 308.65C124.124 142.497 423.071 186.792 367.851 297.713C351.924 329.833 349.576 338.914 349.576 338.914C355.383 322.166 377.889 352.09 388.552 375.996C415.619 436.796 384.495 514.224 327.74 498C356.318 620.802 143.488 643.243 109.74 563.5C66.4014 577.346 23.5724 489.187 57.5832 445.404C35.8331 423.333 28.2646 380.475 47.077 349.098Z" fill="#D9EADA"/>
<path d="M153.804 88.4775C169.123 65.4122 199.791 64.1336 223.697 68.7472C196.042 -16.744 370.544 8.40636 339.806 64.7843C330.941 81.1103 329.689 85.7439 329.689 85.7439C332.858 77.2106 346.329 92.7271 352.833 105.063C369.346 136.437 337.751 167.932 304.524 159.153C322.694 222.307 221.317 219.199 200.68 178.065C175.637 184.803 141.886 160.06 161.126 137.907C148.193 126.42 143.251 104.399 153.804 88.4775Z" fill="#D9EADA"/>
<path d="M386.451 357.477C401.771 334.412 432.439 333.134 456.344 337.747C428.689 252.256 603.191 277.406 572.454 333.784C563.589 350.11 562.337 354.744 562.337 354.744C565.505 346.211 578.977 361.727 585.481 374.063C601.993 405.437 570.399 436.932 537.172 428.153C555.342 491.307 453.965 488.199 433.328 447.065C408.284 453.803 374.533 429.06 393.773 406.907C380.841 395.42 375.899 373.399 386.451 357.477Z" fill="#FFC7B7"/>
</svg>
