<svg width="108" height="105" viewBox="0 0 108 105" fill="none" xmlns="http://www.w3.org/2000/svg">
<path d="M37.1016 83.891V21.6028C37.1016 16.7064 40.6471 12.5301 45.4786 11.7354L91.6815 4.13608C97.7705 3.13459 103.304 7.83273 103.304 14.0035V73.0021" stroke="#5E2779" stroke-width="8" stroke-linecap="round" stroke-linejoin="round"/>
<path d="M20.5507 100.224C29.6915 100.224 37.1015 92.9116 37.1015 83.891C37.1015 74.8703 29.6915 67.5576 20.5507 67.5576C11.41 67.5576 4 74.8703 4 83.891C4 92.9116 11.41 100.224 20.5507 100.224Z" stroke="#5E2779" stroke-width="8" stroke-linecap="round" stroke-linejoin="round"/>
<path d="M86.7534 89.3354C95.8941 89.3354 103.304 82.0227 103.304 73.002C103.304 63.9814 95.8941 56.6687 86.7534 56.6687C77.6127 56.6687 70.2026 63.9814 70.2026 73.002C70.2026 82.0227 77.6127 89.3354 86.7534 89.3354Z" stroke="#5E2779" stroke-width="8" stroke-linecap="round" stroke-linejoin="round"/>
</svg>
