<svg width="64" height="61" viewBox="0 0 64 61" fill="none" xmlns="http://www.w3.org/2000/svg">
<path d="M31.9167 59C48.7153 59 62.3333 46.1282 62.3333 30.25C62.3333 14.3718 48.7153 1.5 31.9167 1.5C15.118 1.5 1.5 14.3718 1.5 30.25C1.5 46.1282 15.118 59 31.9167 59Z" fill="black" fill-opacity="0.56"/>
<path d="M25.8333 18.75L44.0833 30.25L25.8333 41.75V18.75Z" fill="black" fill-opacity="0.56"/>
<path d="M31.9167 59C48.7153 59 62.3333 46.1282 62.3333 30.25C62.3333 14.3718 48.7153 1.5 31.9167 1.5C15.118 1.5 1.5 14.3718 1.5 30.25C1.5 46.1282 15.118 59 31.9167 59Z" stroke="#FFF5ED" stroke-width="3" stroke-linecap="round" stroke-linejoin="round"/>
<path d="M25.8333 18.75L44.0833 30.25L25.8333 41.75V18.75Z" stroke="#FFF5ED" stroke-width="3" stroke-linecap="round" stroke-linejoin="round"/>
</svg>
