<svg width="107" height="118" viewBox="0 0 107 118" fill="none" xmlns="http://www.w3.org/2000/svg">
<path d="M86.5683 37C89.5246 37 92.3597 35.8411 94.45 33.7782C96.5404 31.7153 97.7148 28.9174 97.7148 26C97.7148 23.0826 96.5404 20.2847 94.45 18.2218C92.3597 16.1589 89.5246 15 86.5683 15C86.5683 12.0826 85.394 9.28472 83.3036 7.22182C81.2133 5.15892 78.3781 4 75.4219 4C72.4657 4 69.6306 5.15892 67.5402 7.22182C65.4499 9.28472 64.2755 12.0826 64.2755 15C64.2755 12.0826 63.1012 9.28472 61.0108 7.22182C58.9204 5.15892 56.0853 4 53.1291 4C50.1729 4 47.3378 5.15892 45.2474 7.22182C43.157 9.28472 41.9827 12.0826 41.9827 15C41.9827 12.0826 40.8083 9.28472 38.718 7.22182C36.6276 5.15892 33.7925 4 30.8363 4C27.8801 4 25.0449 5.15892 22.9546 7.22182C20.8642 9.28472 19.6899 12.0826 19.6899 15C16.7337 15 13.8985 16.1589 11.8082 18.2218C9.71781 20.2847 8.54346 23.0826 8.54346 26C8.54346 28.9174 9.71781 31.7153 11.8082 33.7782C13.8985 35.8411 16.7337 37 19.6899 37" stroke="#5E2779" stroke-width="8" stroke-linecap="round" stroke-linejoin="round"/>
<path d="M41.9829 114L36.4097 37" stroke="#5E2779" stroke-width="8" stroke-linecap="round" stroke-linejoin="round"/>
<path d="M64.2759 114L69.8491 37" stroke="#5E2779" stroke-width="8" stroke-linecap="round" stroke-linejoin="round"/>
<path d="M97.7153 37C100.502 37 102.731 39.2 102.174 42.5L87.6836 108.5C87.1263 111.25 83.7823 114 80.9957 114H25.2637C21.9197 114 19.1331 111.8 18.5758 108.5L4.08548 42.5C3.52816 39.2 5.75745 37 8.54405 37H97.7153Z" stroke="#5E2779" stroke-width="8" stroke-linecap="round" stroke-linejoin="round"/>
</svg>
