<svg width="34" height="34" viewBox="0 0 34 34" fill="none" xmlns="http://www.w3.org/2000/svg">
<g clip-path="url(#clip0_497_6072)">
<path d="M29.5237 6.53073C28.8001 5.80682 27.941 5.23257 26.9954 4.84077C26.0499 4.44897 25.0364 4.24731 24.0128 4.24731C22.9893 4.24731 21.9758 4.44897 21.0302 4.84077C20.0847 5.23257 19.2256 5.80682 18.502 6.53073L17.0003 8.0324L15.4987 6.53073C14.0371 5.06917 12.0548 4.24807 9.98783 4.24807C7.92087 4.24807 5.93856 5.06917 4.477 6.53073C3.01543 7.9923 2.19434 9.9746 2.19434 12.0416C2.19434 14.1085 3.01543 16.0908 4.477 17.5524L17.0003 30.0757L29.5237 17.5524C30.2476 16.8288 30.8218 15.9697 31.2136 15.0242C31.6054 14.0786 31.8071 13.0651 31.8071 12.0416C31.8071 11.018 31.6054 10.0045 31.2136 9.05898C30.8218 8.11341 30.2476 7.25431 29.5237 6.53073Z" stroke="#5E2779" stroke-width="4.6" stroke-linecap="round" stroke-linejoin="round"/>
</g>
<defs>
<clipPath id="clip0_497_6072">
<rect width="34" height="34" fill="white"/>
</clipPath>
</defs>
</svg>
