<svg width="1306" height="982" viewBox="0 0 1306 982" fill="none" xmlns="http://www.w3.org/2000/svg">
<path d="M49.5702 167.983C84.9715 118.864 155.84 116.141 211.081 125.966C147.175 -56.094 550.421 -2.53456 479.391 117.526C458.906 152.294 456.013 162.162 456.013 162.162C463.335 143.989 494.465 177.033 509.495 203.303C547.653 270.116 474.643 337.187 397.861 318.492C439.849 452.983 205.583 446.365 157.894 358.766C100.022 373.115 22.0293 320.424 66.4901 273.246C36.6049 248.784 25.1853 201.889 49.5702 167.983Z" fill="#FFC7B7"/>
<path d="M79.9409 567.667C136.178 488.081 248.02 483.374 335.107 499.026C235.674 204.876 871.529 289.765 758.528 484.229C725.938 540.542 721.298 556.512 721.298 556.512C732.99 527.093 781.855 580.397 805.367 622.816C865.061 730.701 749.345 839.48 628.337 809.576C693.551 1026.89 323.963 1017.19 249.391 875.734C157.967 899.187 35.3107 814.308 105.827 737.824C58.8609 698.391 41.2035 622.603 79.9409 567.667Z" fill="#D9EADA"/>
<path d="M293.447 160.419C328.848 111.3 399.717 108.577 454.958 118.402C391.052 -63.6575 794.298 -10.098 723.268 109.963C702.783 144.73 699.89 154.598 699.89 154.598C707.212 136.426 738.342 169.469 753.372 195.739C791.53 262.552 718.52 329.624 641.738 310.929C683.726 445.419 449.46 438.802 401.771 351.203C343.899 365.552 265.906 312.86 310.367 265.682C280.482 241.22 269.062 194.326 293.447 160.419Z" fill="#D9EADA"/>
<path d="M758.663 177.94C796.387 126.277 872.227 123.541 931.383 133.991C862.374 -57.8618 1294.14 -0.703802 1218.52 125.604C1196.71 162.181 1193.65 172.568 1193.65 172.568C1201.42 153.443 1234.85 188.301 1251.03 215.995C1292.09 286.429 1214.18 356.928 1131.93 337.097C1177.32 478.812 926.574 471.405 875.239 379.063C813.349 394.066 729.698 338.429 777.125 288.828C745.058 263.01 732.678 213.602 758.663 177.94Z" fill="#FFE7BA"/>
<path d="M794.099 525.632C829.5 476.513 900.368 473.79 955.61 483.615C891.703 301.555 1294.95 355.115 1223.92 475.176C1203.43 509.943 1200.54 519.811 1200.54 519.811C1207.86 501.639 1238.99 534.682 1254.02 560.952C1292.18 627.765 1219.17 694.836 1142.39 676.142C1184.38 810.632 950.111 804.015 902.422 716.416C844.55 730.765 766.558 678.073 811.018 630.895C781.133 606.433 769.714 559.538 794.099 525.632Z" fill="#FFC7B7"/>
</svg>
