<svg width="884" height="451" viewBox="0 0 884 451" fill="none" xmlns="http://www.w3.org/2000/svg">
<path d="M42.6292 173.851C83.986 130.812 176.198 132.761 249.254 145.292C270.5 4.56863 514.5 25.0685 592 117.068C617 145.568 581 173.851 581 173.851C610.5 165.568 640 228.068 616.5 241.068C644 310.068 614.006 356.532 511.967 334.472C580.012 461.057 273.653 440.218 202.788 356.488C128.682 366.07 21.7117 312.604 75.082 271.924C33.6724 247.499 14.1491 203.564 42.6292 173.851Z" fill="#FFC7B7"/>
<path d="M632.403 159.618C638.982 150.965 652.65 150.699 663.366 152.624C650.079 119.948 728.209 130.754 715.122 151.951C711.348 158.09 710.841 159.841 710.841 159.841C712.16 156.622 718.342 162.613 721.381 167.346C729.096 179.383 715.35 191.121 700.429 187.548C709.236 211.67 663.974 209.762 654.311 193.987C643.213 196.367 627.881 186.726 636.219 178.448C630.321 173.991 627.872 165.59 632.403 159.618Z" fill="#7AD8C0"/>
<path d="M735.687 115.126C740.305 108.903 749.835 108.681 757.299 110.036C748.157 86.6263 802.588 94.1943 793.386 109.431C790.732 113.844 790.372 115.101 790.372 115.101C791.304 112.789 795.592 117.072 797.693 120.46C803.027 129.077 793.401 137.53 783.011 135.002C789.062 152.286 757.513 151.024 750.834 139.73C743.088 141.464 732.434 134.583 738.277 128.625C734.182 125.442 732.506 119.421 735.687 115.126Z" fill="#5E2779"/>
<path d="M815.521 160.163C820.14 153.94 829.67 153.718 837.134 155.073C827.991 131.663 882.423 139.231 873.22 154.468C870.567 158.881 870.207 160.138 870.207 160.138C871.138 157.826 875.426 162.109 877.527 165.497C882.862 174.114 873.235 182.567 862.845 180.039C868.897 197.323 837.347 196.061 830.668 184.767C822.922 186.501 812.268 179.62 818.112 173.662C814.017 170.479 812.34 164.458 815.521 160.163Z" fill="#FFCFFF"/>
</svg>
